<?xml version="1.0" encoding="utf-8"?>
<!-- Generator: Adobe Illustrator 22.0.1, SVG Export Plug-In . SVG Version: 6.00 Build 0)  -->
<svg version="1.1" id="Layer_1" xmlns="http://www.w3.org/2000/svg" xmlns:xlink="http://www.w3.org/1999/xlink" x="0px" y="0px"
	 viewBox="0 0 45 45" style="enable-background:new 0 0 45 45;" xml:space="preserve">
<path d="M43.6,37.5c-0.3-1-1-1.8-2-2.2C41,35,41,34.6,41.1,34.1c0-0.1,0-0.2,0.1-0.3c0.4-3,0.7-6,1.1-9c0.3-2.2-0.4-3.9-2.1-5.2
	c-0.3-0.3-0.4-0.5-0.3-0.9c0.3-1.6,0.7-3.2,1-4.8c0.2-1.2-0.4-2.2-1.6-2.4c-1-0.2-2,0.5-2.3,1.7s-0.5,2.5-0.8,3.9
	c-0.1-0.3-0.2-0.5-0.2-0.6c-0.3-1.1-0.5-2.3-0.8-3.4c-0.3-1.3-1.7-2-2.9-1.3c-0.8,0.4-1.2,1.4-0.9,2.4c0.4,1.8,0.8,3.5,1.2,5.3
	c0,0.1,0.1,0.4,0,0.5c-0.9,0.9-1.5,2-1.8,3.3c-3.1-0.7-6-0.2-8.6,1.8c0-1.2,0-2.2,0-3.3c0-0.4,0.1-0.5,0.5-0.5c1.4,0,2.8,0,4.2,0
	c2.4-0.1,3.9-2.8,2.7-4.9c-0.4-0.7-1.1-1.2-1.9-1.5c0.5-1.3,0.4-2.5-0.5-3.6c-1-1.3-2.2-1.6-3.5-1.5c0-0.1-0.1-0.1-0.1-0.1
	c-0.5-1.8-1.8-2.9-3.5-2.9c-1.9,0-3.2,0.9-3.8,2.7c0,0.1-0.3,0.3-0.5,0.3c-0.6,0.1-1.2,0.2-1.8,0.4c-0.3,0.1-0.5,0.1-0.8-0.1
	c-2.1-1.3-4.8-0.3-5.5,2.1c-0.1,0.5-0.3,0.6-0.8,0.6c-1.7,0-3.2,1-3.5,2.7c-0.2,0.8,0,1.6,0,2.4c0,0-0.1,0.1-0.3,0.1
	c-1.4,0.6-2.1,2-1.9,3.5s1.3,2.7,2.8,2.8c1,0.1,2,0.1,2.9,0.1c0.2,0,0.4,0,0.6,0.1c0.6,0.6,1.2,1.3,1.9,2c-1.7,0.5-3.1,1.5-4,3.2
	c-0.9,1.7-0.9,3.4-0.2,5.2c0.1,0.1,0.1,0.2,0.1,0.2c-0.2,0.1-0.5,0.2-0.5,0.2c-1,0.4-1.6,1.2-2,2.2c-0.1,0.3-0.1,0.6,0.3,0.8
	c0.3,0.1,0.5-0.1,0.7-0.4c0.5-1.3,1.4-1.9,2.6-2c10.1,0,20.2,0,30.3,0c0.8,0,1.6,0,2.4,0c1.6,0,2.9,0.4,3.5,2.1
	c0.1,0.3,0.3,0.5,0.7,0.4C43.7,38.1,43.7,37.8,43.6,37.5z M37.2,17c0.3-1.2,0.5-2.5,0.8-3.7c0.1-0.7,0.6-1,1.1-0.8
	c0.6,0.1,0.8,0.6,0.7,1.3c-0.3,1.6-0.7,3.3-1,4.9c-0.6-0.2-1.2-0.3-1.8-0.4C37,17.8,37.1,17.4,37.2,17z M32.6,15
	c0-0.4-0.2-0.9-0.3-1.5c-0.1-0.6,0.2-1,0.7-1.1c0.4-0.1,0.9,0.2,1,0.6c0.4,1.7,0.8,3.5,1.2,5.2c-0.6,0.2-1.1,0.4-1.7,0.7
	C33.2,17.6,32.9,16.3,32.6,15z M13.5,14.5c-1-1.6,0.1-3.6,2-3.7c0.4,0,0.8,0,1.2,0c0.4,0,0.6-0.1,0.7-0.6c0.1-1.4,1.2-2.5,2.6-2.5
	c1.5,0,2.6,0.9,2.8,2.3c0.1,0.6,0.3,0.8,0.9,0.8c0.6,0,1.2,0,1.7,0.2c1.6,0.5,2.1,2.2,1.2,3.6c-0.4,0.7-0.3,0.9,0.5,1.1
	c1.2,0.2,2.1,1.2,2,2.3c-0.1,1.2-1.1,2.1-2.4,2.1c-2.2,0-4.5,0-6.7,0s-4.4,0-6.5,0c-1.3,0-2.3-0.9-2.4-2.1c-0.1-1.2,0.8-2.2,2-2.4
	C13.9,15.5,14,15.3,13.5,14.5z M5.1,23.4c-1.6,0-2.7-0.9-2.7-2.3c0-1.2,0.9-2.2,2.1-2.4c0.8-0.1,0.9-0.4,0.5-1
	c-0.5-0.9-0.6-1.7-0.1-2.6c0.5-0.9,1.3-1.4,2.3-1.3c0.1,0,0.1,0,0.2,0c1.2,0,1.2,0,1.5-1.2C9.4,10.8,11.4,10,13,11
	c-0.9,1.1-1.1,2.3-0.6,3.6c-0.4,0.2-0.8,0.4-1.1,0.7c-1.1,0.9-1.5,2.2-1.1,3.5c0.4,1.3,1.6,2.2,3,2.3c1,0,1.9,0,2.9,0
	c0.2,0,0.4,0,0.6,0v2.3c-0.6,0-1.1,0-1.7,0C11.7,23.4,8.4,23.4,5.1,23.4z M16.6,24.5v1.8c-0.6-0.5-1.2-1.1-1.9-1.6l0.1-0.2H16.6z
	 M13.4,34.8c-0.8,0-1.4,0-2.1,0c-1.5,0-3,0-4.5,0.1c-0.4,0-0.6-0.1-0.7-0.5c-0.6-1.2-0.6-2.5-0.1-3.8c0.7-1.8,2.2-2.9,4.2-3
	c0.2,0,0.4,0.1,0.5,0.2c0.8,0.9,1.6,1.8,2.4,2.7c0.2,0.2,0.3,0.5,0.3,0.7C13.5,32.3,13.4,33.5,13.4,34.8z M14.5,34.6
	c0-1.3,0-2.4,0-3.7c0-0.5-0.2-0.8-0.5-1.2c-1.5-1.6-3.1-3.3-4.6-5c-0.1-0.1-0.1-0.2-0.2-0.3c1.4,0,2.7,0,4,0c0.1,0,0.3,0.2,0.4,0.3
	c1,1.1,2,2.1,3,3.2c0.2,0.2,0.6,0.4,0.8,0.3c0.2,0,0.3-0.5,0.3-0.7c0-1.9,0-3.8,0-5.8c0-0.2,0-0.4,0-0.6h3.4c0,0.2,0,0.5,0,0.7
	c0,0.6,0,1.2,0,1.7c0.1,1.4-0.2,2.5-1.1,3.6c-1.5,2.1-1.9,4.6-1.4,7.1c0,0.1,0,0.2,0.1,0.4H14.5z M30.4,34.8c-2.9,0-5.7,0-8.6,0
	c-0.5,0-0.9,0-1.4,0.1c-0.4,0-0.6-0.1-0.6-0.5c-1.1-4.5,1.8-9.2,6.4-10.3c1.4-0.4,2.8-0.4,4.2,0c0.2,0,0.4,0.3,0.4,0.4
	c0.4,3.4,0.8,6.8,1.2,10.3H30.4z M40.7,27.3c-0.8,0-1.5,0-2.2,0c-0.4,0-0.7,0.1-0.8,0.5c0.1,0.5,0.5,0.6,0.9,0.6c0.7,0,1.4,0,2.1,0
	c-0.3,2.2-0.5,4.3-0.8,6.4H33c-0.1-1.2-0.3-2.4-0.5-3.7c0.5,0,1,0,1.5,0c0.1,0,0.3,0.1,0.4,0c0.2-0.1,0.6-0.3,0.6-0.6
	c0.1-0.3-0.3-0.5-0.6-0.5c-0.7,0-1.3,0-2,0c-0.2-1.4-0.3-2.8-0.5-4.3c0.8,0,1.4,0,2.1,0c0.4,0,0.9,0,0.9-0.6c0-0.4-0.3-0.6-1-0.6
	c-0.6,0-1.1,0-1.7,0.1c-0.5,0-0.6-0.2-0.6-0.6c-0.1-3.1,3-5.4,6-4.6c2.1,0.6,3.9,2.9,3.4,5.3C40.8,25.5,40.8,26.4,40.7,27.3z"/>
</svg>
