<?xml version="1.0" encoding="utf-8"?>
<!-- Generator: Adobe Illustrator 22.0.1, SVG Export Plug-In . SVG Version: 6.00 Build 0)  -->
<svg version="1.1" id="Layer_1" xmlns="http://www.w3.org/2000/svg" xmlns:xlink="http://www.w3.org/1999/xlink" x="0px" y="0px"
	 viewBox="0 0 45 45" style="enable-background:new 0 0 45 45;" xml:space="preserve">
<g>
	<path d="M32.6,42c-0.2,0.1-0.4,0.1-0.6,0.2c0.2,0.5,0.5,1.1,0.7,1.6h0.1C32.7,43.2,32.7,42.6,32.6,42z"/>
	<path d="M12.2,43.8L12.2,43.8c0.3-0.5,0.6-1,0.8-1.6c-0.2-0.1-0.4-0.1-0.6-0.2C12.3,42.6,12.3,43.2,12.2,43.8z"/>
	<path d="M23.3,1.9c0-0.4-0.4-0.7-0.8-0.7s-0.8,0.2-0.8,0.6c0,0.8,0,1.6,0,2.5h1.6C23.3,3.5,23.3,2.7,23.3,1.9z"/>
	<path d="M21.2,10.2c-0.4,0-0.6,0.2-0.8,0.6c-0.6,1.9-1.2,3.8-1.7,5.8c-0.8,2.7-1.7,5.3-2.4,8c-1,3.6-1.8,7.3-2.7,10.9
		c-0.4,1.8-0.9,3.6-1.3,5.4c-0.1,0.6,0.2,1,0.7,0.9c0.4-0.1,0.5-0.4,0.6-0.8c2.6-9.6,5.2-19.3,7.8-28.9c0.1-0.4,0.2-0.8,0.3-1.1
		C21.7,10.5,21.5,10.2,21.2,10.2z"/>
	<path d="M32.7,41c0-0.1-0.1-0.3-0.1-0.4c-0.7-2.8-1.4-5.7-2.1-8.5c-0.7-2.7-1.3-5.4-2-8.1c-1-3.5-2.1-7-3.1-10.5
		c-0.3-0.9-0.6-1.9-0.8-2.8c-0.1-0.4-0.5-0.6-0.8-0.5c-0.3,0.1-0.5,0.4-0.5,0.8c0,0.1,0.1,0.3,0.1,0.4c2.4,8.8,4.7,17.6,7.1,26.5
		c0.3,1.1,0.6,2.2,0.9,3.3c0.1,0.4,0.4,0.6,0.8,0.5C32.5,41.7,32.7,41.4,32.7,41z"/>
	<path d="M24.7,9.9c0-1.3,0-2.5,0-3.7c0-0.8-0.6-1.3-1.4-1.3c-0.5,0-1,0-1.5,0c-0.8,0-1.4,0.6-1.4,1.4s0,1.7,0,2.5
		c0,0.4,0,0.7,0,1.2c0.5-0.3,0.9-0.4,1.4-0.1c0.5,0.3,0.6,0.7,0.5,1.2h0.6C22.7,10,23.6,9.4,24.7,9.9z"/>
</g>
</svg>
