<?xml version="1.0" encoding="utf-8"?>
<!-- Generator: Adobe Illustrator 22.0.1, SVG Export Plug-In . SVG Version: 6.00 Build 0)  -->
<svg version="1.1" id="Layer_1" xmlns="http://www.w3.org/2000/svg" xmlns:xlink="http://www.w3.org/1999/xlink" x="0px" y="0px"
	 viewBox="0 0 45 45" style="enable-background:new 0 0 45 45;" xml:space="preserve">
<g>
	<path d="M13.9,13.7l-3.6-3c-0.3-0.3-0.7-0.4-1.2-0.3c-0.4,0-0.8,0.2-1.1,0.6l-5.4,6.7l3.6,3C6.5,21,6.9,21.1,7.4,21
		c0.4,0,0.8-0.2,1.1-0.6L13.9,13.7z"/>
	<path d="M16.5,22.1c-0.6-0.1-1.2-0.2-1.8-0.4c-0.3-0.1-0.4-0.4-0.4-0.7c0.1-0.3,0.4-0.4,0.7-0.4c2.4,0.7,5,0.7,7.4-0.2
		c0.2-0.1,0.4,0,0.5,0.1l3.4,3.1c0.6,0.5,1.5,0.5,2-0.1c0.3-0.3,0.4-0.6,0.4-1s-0.2-0.7-0.5-1l-6-5.5c-1.2-1.1-2.9-1.7-4.5-1.7
		l-3,0.1L9.3,21c-0.2,0.3-0.5,0.5-0.9,0.7c0,2.3,0.7,4.5,2.1,6.3l5.7-5.8C16.3,22.1,16.4,22.1,16.5,22.1z"/>
	<path d="M21.9,34.9c-0.2-0.2-0.5-0.3-0.8-0.3c-0.3,0-0.5,0.1-0.7,0.3C20.2,35,20,35.3,20,35.6c0,0.3,0.1,0.6,0.3,0.8l1.6,1.7
		c0.4,0.4,1.1,0.5,1.5,0c0.4-0.4,0.5-1.1,0.1-1.5L21.9,34.9z"/>
	<path d="M24.2,32.7c-0.2-0.2-0.5-0.3-0.8-0.3c-0.3,0-0.6,0.1-0.8,0.3c-0.2,0.2-0.3,0.5-0.3,0.8s0.1,0.6,0.3,0.8l1.6,1.7l0.6,0.6
		c0.2,0.2,0.5,0.3,0.8,0.3c0.3,0,0.6-0.1,0.8-0.3c0.2-0.2,0.3-0.5,0.3-0.8s-0.1-0.6-0.3-0.8L24.2,32.7z"/>
	<path d="M26.6,30.5c-0.2-0.2-0.5-0.3-0.8-0.3s-0.5,0.1-0.7,0.3c-0.4,0.4-0.5,1.1,0,1.5l2.9,3.1c0.2,0.2,0.5,0.3,0.8,0.3
		s0.6-0.1,0.8-0.3c0.2-0.2,0.3-0.5,0.3-0.8c-0.1-0.2-0.2-0.5-0.4-0.7L26.6,30.5z"/>
	<path d="M29,28.2c-0.2-0.2-0.5-0.3-0.8-0.3s-0.6,0.1-0.8,0.3c-0.4,0.4-0.5,1.1,0,1.5l2.9,3.1c0.4,0.4,1.1,0.5,1.5,0
		c0.4-0.4,0.5-1.1,0-1.5L29,28.2z"/>
	<path d="M36.1,19.2l-7.5-7.4c-2.4,0.6-4.8,1.5-7.1,2.5c0.5,0.3,1,0.6,1.4,1l6,5.4c1,0.9,1.1,2.5,0.2,3.5c-0.5,0.5-1.2,0.8-1.8,0.8
		c-0.6,0-1.2-0.2-1.6-0.6l-3.2-2.9c-1.8,0.6-3.6,0.7-5.4,0.5c0,0,0.1,0,0.1,0.1c0.2,0.2,0.2,0.5,0,0.7l-5.8,5.9
		c-0.3,0.3-0.4,0.6-0.4,1c0,0.4,0.2,0.7,0.4,1c0.3,0.3,0.7,0.4,1,0.4c0.4,0,0.7-0.2,1-0.4l0.4-0.5l6.2-6.3c0.2-0.2,0.5-0.2,0.7,0
		c0.2,0.2,0.2,0.5,0,0.7l-6.2,6.3c-0.6,0.6-0.5,1.5,0,2c0.3,0.3,0.7,0.4,1,0.4c0.4,0,0.7-0.2,1-0.4l0.5-0.6l5.6-5.7
		c0.2-0.2,0.5-0.2,0.7,0c0.2,0.2,0.2,0.5,0,0.7L17.7,33c-0.3,0.3-0.4,0.6-0.4,1s0.2,0.7,0.4,1c0.3,0.3,0.8,0.5,1.2,0.4
		c0-0.1,0-0.1,0-0.2c0-0.6,0.3-1.1,0.7-1.5c0.4-0.4,1-0.6,1.5-0.6c0.1,0,0.1,0,0.2,0c0-0.1,0-0.1,0-0.2c0-0.6,0.3-1.1,0.7-1.5
		c0.4-0.4,1-0.6,1.5-0.6c0.1,0,0.1,0,0.2,0c0-0.6,0.2-1.2,0.7-1.7c0.4-0.4,1-0.6,1.5-0.6H26c0-0.6,0.2-1.2,0.7-1.6
		c0.4-0.4,1-0.6,1.5-0.6c0.6,0,1.1,0.3,1.5,0.7l1.2,1.3c3.6-1.6,5.8-5.3,5.6-9.2C36.4,19.5,36.2,19.4,36.1,19.2z"/>
	<path d="M34.1,7.1c-0.3-0.3-0.7-0.4-1.1-0.5c-0.4,0-0.8,0.2-1.1,0.5l-3.3,3.3l8.2,8.1c0.3,0.3,0.7,0.4,1.1,0.5
		c0.4,0,0.8-0.2,1.1-0.5l3.3-3.3L34.1,7.1z"/>
</g>
</svg>
