<?xml version="1.0" encoding="utf-8"?>
<!-- Generator: Adobe Illustrator 22.0.1, SVG Export Plug-In . SVG Version: 6.00 Build 0)  -->
<svg version="1.1" id="Layer_1" xmlns="http://www.w3.org/2000/svg" xmlns:xlink="http://www.w3.org/1999/xlink" x="0px" y="0px"
	 viewBox="0 0 45 45" style="enable-background:new 0 0 45 45;" xml:space="preserve">
<g>
	<path d="M22.3,5.3c-9.3,0.1-17,7.5-17,17.2c0,9.6,7.7,17.2,17.2,17.2c9.6,0,17.4-7.8,17.2-17.5C39.6,12.9,32,5.2,22.3,5.3z
		 M22.3,39.1c-9.1,0-16.5-7.4-16.5-16.6c0.1-9.2,7.5-16.6,16.7-16.6c9.3,0,16.5,7.5,16.5,16.3C39.1,31.6,31.6,39.2,22.3,39.1z"/>
	<path d="M22.7,8.4c-7.9-0.1-14.2,6.2-14.2,14c0,7.8,6.2,14.1,14,14.1c7.7,0,14-6.2,14-14C36.5,14.8,30.4,8.6,22.7,8.4z M26.1,27.9
		c-0.7,0.8-1.7,1.2-2.7,1.3c-0.2,0.1-0.2,0.1-0.2,0.3c0,0.5,0,1,0,1.5c0,0.1,0,0.2,0,0.3c-0.5,0-1,0-1.5,0c0,0-0.1-0.1-0.1-0.2
		c0-0.5,0-1,0-1.5v-0.3c-2.2-0.2-3.5-1.6-4-3.8c0.9-0.2,1.7-0.4,2.3-0.9c0.1,0.2,0.1,0.4,0.2,0.6c0.3,1,1,1.5,2.1,1.5
		c0.5,0,1.1,0,1.5-0.5c0.5-0.6,0.5-1.8-0.4-2.2c-0.6-0.2-1.1-0.5-1.7-0.7c-0.8-0.3-1.6-0.6-2.3-1.1c-0.9-0.7-1.4-1.6-1.5-2.8
		c0-0.9,0.2-1.7,0.6-2.5c0.6-1.1,1.6-1.6,2.8-1.8c0.1,0,0.1,0,0.2,0c0-0.4,0-0.9,0-1.3c-0.1-0.1,0-0.2,0.2-0.2c0.4,0,0.9,0,1.4,0
		v1.5c0.5,0.2,1,0.3,1.5,0.5c1.1,0.5,1.7,1.5,2.1,2.6c0,0,0,0.2-0.1,0.2c-0.7,0.3-1.4,0.6-2.1,0.9c-0.1-0.2-0.1-0.3-0.2-0.5
		c-0.3-0.7-0.7-1.2-1.5-1.4c-0.9-0.2-1.7,0.3-1.9,1.1c-0.1,0.6,0,1.1,0.6,1.4c0.5,0.3,1.1,0.5,1.6,0.7c0.7,0.3,1.5,0.6,2.2,1
		c1.2,0.6,1.8,1.6,1.9,2.9C27.3,25.8,27,26.9,26.1,27.9z"/>
</g>
</svg>
