<?xml version="1.0" encoding="utf-8"?>
<!-- Generator: Adobe Illustrator 22.0.1, SVG Export Plug-In . SVG Version: 6.00 Build 0)  -->
<svg version="1.1" id="Layer_1" xmlns="http://www.w3.org/2000/svg" xmlns:xlink="http://www.w3.org/1999/xlink" x="0px" y="0px"
	 viewBox="0 0 45 45" style="enable-background:new 0 0 45 45;" xml:space="preserve">
<path d="M41.6,20.1c-2.6-0.7-5.2-1.4-7.8-2.1c-0.5-0.1-0.9-0.4-1.3-0.8c-1-1.1-1.9-2.1-2.8-3.1c-1.8-1.9-4-2.9-6.6-2.9
	c-1.9,0-3.7,0-5.6,0s-3.7,0-5.4,0c-1.9,0-3.7,0.6-5.2,1.7c-1.7,1.2-2.9,2.9-4,4.5c-1,1.4,0.2,3.4,2,3.4c2.4,0,4.9,0,7.3,0
	c0.4,0,0.6,0.1,0.8,0.5c0.6,1.6,1.7,2.5,3.4,2.7c0.7,0,1.5,0,2.2,0c0.8,0,1.1-0.3,1.1-1.1c0-0.3,0.2-0.4,0.5-0.4c0.6,0,1.3,0,1.9,0
	c0.5,0,0.9-0.4,0.9-0.9c-0.1-0.5-0.4-0.8-0.9-0.8c-0.4,0-0.8,0-1.2,0c-1.3,0-1.2,0-1.2-1.3c0-0.3,0.1-0.4,0.4-0.4c0.7,0,1.3,0,2,0
	c0.6,0,1-0.4,0.9-0.9s-0.3-0.8-0.9-0.8c-0.6,0-1.3,0-1.9,0c-0.4,0-0.5-0.1-0.5-0.5c0-0.7-0.3-1-1-1c-0.5,0-1.1,0-1.6,0
	c-2,0-3.4,0.9-4.1,2.8c-0.1,0.3-0.2,0.4-0.5,0.4c-2.4,0-4.9,0-7.3,0c-0.3,0-0.5-0.1-0.7-0.4s0-0.6,0.2-0.8c0.7-0.8,1.4-1.7,2.1-2.5
	c1.4-1.6,3.3-2.5,5.4-2.5c3.7,0,7.4,0,11.1,0c2.1,0.1,3.9,0.8,5.3,2.3c0.8,0.9,1.6,1.8,2.4,2.7c0.8,1,1.8,1.7,3.1,2
	c2.3,0.5,4.7,1.2,7,1.8c1,0.2,1.5,0.7,1.5,1.5c0,1,0,2,0,2.9c0,0.7-0.6,1.3-1.3,1.4c-0.9,0.1-1,0.2-1.1,1.1c-0.2,2-1.8,3.5-3.8,3.5
	c-1.9,0-3.5-1.6-3.6-3.6c0-0.7-0.3-1-1-1c-5.9,0-11.7,0-17.6,0c-0.6,0-0.9,0.3-1,0.9c-0.1,0.1-0.1,0.3-0.1,0.5
	c-0.2,2-2.2,3.5-4.2,3.1c-1.8-0.3-2.9-1.6-3.1-3.4c-0.1-0.8-0.3-1-1.1-1.1c-1-0.1-1.7-0.9-1.7-1.9c0-1.1,0-2.2,0-3.3
	c-0.1-0.7-0.4-1.1-0.9-1.1c-0.6,0-0.9,0.4-0.9,1.1c0,1.1,0,2.1,0,3.2c0,1.7,0.8,3,2.4,3.6c0.3,0.1,0.4,0.2,0.5,0.5
	c0.6,2.4,2.7,4.2,5,4.2c2.7,0,4.8-1.5,5.5-4.1c0.1-0.4,0.2-0.5,0.6-0.5c5,0,10.1,0,15.2,0c0.3,0,0.5,0.1,0.6,0.5
	c0.7,2.5,2.9,4.1,5.5,4.1c2.4,0,4.5-1.7,5.1-4.2c0-0.2,0.1-0.4,0.4-0.5c1.5-0.6,2.2-1.7,2.2-3.3c0-0.8,0-1.6,0-2.4
	C44.2,21.8,43.2,20.5,41.6,20.1z M16.5,17.7c1.3-0.1,1.3-0.1,1.3,1.2c0,0.4,0,0.7,0,1.1c0,0.6,0,1.2,0,2c0,0.1,0.1,0.3-0.2,0.4
	c-1.3,0.4-2.8-0.4-3.2-1.6C13.9,19.3,15,17.8,16.5,17.7z"/>
</svg>
