<?xml version="1.0" encoding="utf-8"?>
<!-- Generator: Adobe Illustrator 22.0.1, SVG Export Plug-In . SVG Version: 6.00 Build 0)  -->
<svg version="1.1" id="Layer_1" xmlns="http://www.w3.org/2000/svg" xmlns:xlink="http://www.w3.org/1999/xlink" x="0px" y="0px"
	 viewBox="0 0 45 45" style="enable-background:new 0 0 45 45;" xml:space="preserve">
<style type="text/css">
	.st0{fill:#151727;}
	.st1{fill:#97A3AE;}
</style>
<g>
	<path class="st0" d="M8,41.2c0.1,0,0.1-0.1,0.1-0.1c3.8-6.4,7.5-12.9,11.3-19.3c0-0.1,0.1-0.1,0.1-0.2h-0.2c-2.9,0-5.8,0-8.6,0
		c-0.1,0-0.3,0-0.3-0.1c-0.1-0.1-0.1-0.3,0-0.4c0.8-1.5,1.6-3.1,2.4-4.6c2.1-4,4.2-8,6.2-12c0.1-0.2,0.2-0.3,0.5-0.3
		c0.6,0,1.3,0,1.9,0c0.1,0,0.2,0,0.3,0c3.6,0,7.2,0,10.7,0c0.1,0,0.1,0,0.2,0c0.2,0,0.3,0.2,0.3,0.4c0,0.1-0.1,0.1-0.1,0.2
		c-2.4,4.7-4.8,9.3-7.3,14c0,0-0.1,0.1-0.1,0.2h0.2h8.7c0.1,0,0.2,0,0.2,0c0.1,0,0.2,0.1,0.2,0.2s0,0.2-0.1,0.3
		c0,0.1-0.1,0.1-0.2,0.1c-2.2,1.9-4.4,3.7-6.6,5.6c-2.2,1.8-4.4,3.7-6.6,5.5c-2.1,1.8-4.1,3.5-6.2,5.3c-1.3,1.1-2.6,2.2-4,3.4
		c-0.8,0.7-1.5,1.3-2.3,2c-0.2,0.2-0.4,0.3-0.6,0.5L8,41.2z M21,4.7c-0.4,0-0.9,0-1.3,0c-0.1,0-0.2,0-0.3,0.2
		c-2.7,5.1-5.3,10.3-8,15.4c-0.1,0.2-0.2,0.4-0.3,0.7h0.2H17c1,0,2,0,3.1,0c0.3,0,0.4,0.2,0.3,0.5v0.1c-3,5.2-6,10.4-9.1,15.5
		c-0.5,0.9-1.1,1.9-1.6,2.8c0.1,0,0.1,0,0.2-0.1c0.4-0.3,0.8-0.7,1.2-1c0.5-0.4,0.9-0.8,1.4-1.2l0.1-0.1c0.8-0.7,1.6-1.3,2.4-2
		c2.8-2.4,5.6-4.7,8.4-7.1c3.4-2.9,6.8-5.7,10.2-8.6c0.1-0.1,0.2-0.2,0.3-0.3h-0.8c-2.6,0-5.3,0-7.9,0c-0.1,0-0.3,0-0.4-0.1
		s0-0.3,0-0.4c2.4-4.7,4.8-9.3,7.3-14c0.1-0.1,0.1-0.2-0.1-0.2c-3.5,0-7.1,0-10.6,0C21.2,4.7,21.1,4.7,21,4.7"/>
	<path class="st1" d="M27.5,18.1c-0.2,0-0.2,0-0.1-0.2c0.5-1,1.1-2.1,1.6-3.1c2-3.8,3.9-7.5,5.8-11.2c0.1-0.1,0.1-0.1,0.1-0.2V3.2
		H22.1c-0.1,0.2-0.3,0.5-0.4,0.7c0.1,0,0.2,0,0.3,0c3.5,0,7.1,0,10.7,0c0.1,0,0.1,0,0.2,0c0.3,0,0.4,0.2,0.3,0.4
		c0,0.1-0.1,0.1-0.1,0.2c-2.5,4.7-4.9,9.3-7.3,14c-0.1,0.1-0.1,0.1-0.1,0.2h0.2h8.7c0,0,0.1,0,0.2,0c0.1,0,0.2,0.1,0.2,0.2
		c0,0.1,0,0.2-0.1,0.3c-0.1,0-0.1,0.1-0.2,0.1c-2.2,1.9-4.4,3.7-6.6,5.6c-2.2,1.8-4.4,3.7-6.6,5.5c-2.1,1.8-4.1,3.5-6.2,5.3
		c-1,0.8-1.9,1.6-2.8,2.4l0.9-1.6c0.6-0.5,0.8-0.6,1.3-1.1c2.8-2.4,5.6-4.7,8.4-7.1c3.4-2.9,6.8-5.7,10.2-8.6
		c0.1-0.1,0.2-0.2,0.3-0.3h-0.8c-2.6,0-5.3,0-7.9,0c-0.2,0-0.3,0-0.4-0.1c-0.1-0.1-0.1-0.3,0-0.4c2.5-4.7,4.9-9.3,7.3-14
		C32,4.8,32,4.7,31.8,4.7c-3.5,0-7.1,0-10.6,0c-0.1,0-0.1,0-0.2,0c-1.7,3.3-3.3,6.5-5,9.7c-0.9,1.9-1.9,3.8-2.9,5.7
		c-0.1,0-0.1,0-0.1,0.1h9.3c0.1,0,0,0.1,0,0.1c-2.1,3.7-4.2,7.3-6.3,10.9c-0.9,1.6-1.9,3.2-2.8,4.8l0,0l-0.9,1.4c0,0,0,0,0,0l-1,1.6
		c-0.2,0.4-0.4,0.7-0.6,1.1c1.2-1,2.4-2,3.6-3c2.3-2,4.6-3.9,6.9-5.9c2.2-1.8,4.3-3.7,6.5-5.5c2.1-1.8,4.2-3.5,6.3-5.3
		c1-0.8,1.9-1.6,2.9-2.4C33.8,18.1,30.6,18.1,27.5,18.1z"/>
</g>
</svg>
