<?xml version="1.0" encoding="utf-8"?>
<!-- Generator: Adobe Illustrator 22.0.1, SVG Export Plug-In . SVG Version: 6.00 Build 0)  -->
<svg version="1.1" id="Layer_1" xmlns="http://www.w3.org/2000/svg" xmlns:xlink="http://www.w3.org/1999/xlink" x="0px" y="0px"
	 viewBox="0 0 45 45" style="enable-background:new 0 0 45 45;" xml:space="preserve">
<g>
	<path d="M38.3,28c-1-0.2-1.9,0.1-2.8,0.7c-2.3,2-5.2,1.6-7.9,2.1c2.5-1.1,5.4-0.5,7.6-2.4c0.1-0.1,0.2-0.3,0.3-0.4
		c2.3-2.4,2.7-5.3,2.7-8.5c0-0.3,0.2-0.8-0.2-0.9c-0.4-0.1-0.7,0.3-0.8,0.6c-0.3,0.6-0.3,1.2-0.5,1.8c-0.5,1.5-0.5,3.2-1.7,4.4
		c-0.1-0.2,0-0.4,0.1-0.6c0.5-2,0.7-4.1,0.5-6.2c0-0.3,0.1-0.8-0.4-0.8c-0.4,0-0.6,0.2-0.7,0.6c-0.1,0.3-0.2,0.6-0.2,0.9
		c0,1.2-0.3,2.4-0.5,3.6c-0.1,0.7-0.3,1.4-1.2,2c0.7-2,0.5-3.9,0.5-5.7c0-0.4,0.1-1-0.5-1c-0.5,0-0.6,0.5-0.6,0.8
		c-0.2,1.2-0.3,2.3-0.4,3.5c-0.1,1.1-0.5,2-1.1,2.9c0-1.2,0.2-2.3,0.2-3.4c0-0.6,0.5-1.7-0.4-1.8c-0.7-0.1-0.7,1.1-0.8,1.8
		c-0.4,1.9-0.4,4-2.1,5.4c-0.7,0.6-1.4,1.4-2.1,2c-1.4,1.1-1.9,2.6-2.1,4.3c-0.2,1.5,0.1,2.9,0.2,4.3c0.1,0.7,0.4,0.9,1,0.6
		c0.9-0.4,1.8-0.8,2.7-1.1c0.9-0.4,1.6-0.9,0.7-2c1.3-0.3,2.3-1,3.4-1.6c2.6-1.5,5.2-3,7.5-4.8c0.3-0.2,0.7-0.3,0.6-0.7
		C39.1,28.2,38.7,28,38.3,28z"/>
	<path d="M19.1,29c-1.9-1.5-3.2-3.4-3.3-5.9c0-0.5-0.1-1.1-0.3-1.6c-0.1-0.4-0.2-1.1-0.7-1.1c-0.6,0.1-0.4,0.7-0.4,1.2
		c0.1,1.5,0.2,3,0.3,4.4c-0.2-0.1-0.3-0.3-0.4-0.5c-0.7-1.8-0.9-3.8-1.1-5.7c-0.1-0.5-0.1-1.3-0.7-1.4c-0.7,0-0.5,0.8-0.5,1.3
		c-0.2,1.9,0,3.8,0.5,6c-0.7-1.1-1.1-2-1.3-2.9c-0.2-1.3-0.4-2.6-0.6-3.9c-0.1-0.5-0.3-1-0.9-1c-0.6,0-0.4,0.6-0.4,0.9
		c-0.1,1.4-0.1,2.8,0.1,4.2c0.1,0.7,0.1,1.3,0.2,2.3c-0.7-0.7-0.7-1.3-0.8-1.9c-0.4-1.3-0.7-2.7-1.1-4c-0.1-0.3-0.4-0.9-0.9-0.7
		c-0.4,0.1-0.2,0.6-0.3,0.9c0,1.8,0,3.6,0.7,5.3c1.2,2.8,2.8,4.8,5.9,5c1.4,0.1,2.9,0.2,4.2,1.1c-0.5-0.1-1-0.2-1.4-0.3
		c-2.7-0.4-5.4-0.7-7.6-2.5c-0.3-0.4-1-0.3-1.7-0.2c-0.4,0-0.8,0.2-0.8,0.6c0,0.4,0.3,0.6,0.6,0.7c0.4,0.2,0.9,0.3,1.1,0.6
		c1.3,1.8,3.4,2.4,5.2,3.5c1.4,0.8,2.7,2.1,4.5,2.4c-0.2,0.6-0.9,1.2,0.1,1.7c1.1,0.6,2.3,1.1,3.5,1.5c0.4,0.1,0.8,0.2,0.8-0.4
		c0.2-1.9,0.4-3.7,0.1-5.6C21.5,31.2,20.4,30,19.1,29z M13.3,28c1.1-0.4,2.1-0.5,3.1-0.2C15.4,27.8,14.5,27.9,13.3,28z"/>
	<path d="M21.2,19.5c-0.1-0.7-0.2-1.3-0.3-1.8c-0.1-0.2-0.3-0.5,0-0.6c0.4-0.2,0.5,0.2,0.6,0.5c0.3,0.6,0.5,1.1,0.8,1.9
		c1.3-2,1-3.9,0.1-5.7c-1-2.1-2.6-3.4-4.9-3.8c-0.6-0.1-0.7,0.3-0.7,0.7c-0.3,3.1,0.6,5.8,2.7,8C19.9,19.1,20.4,19.5,21.2,19.5z"/>
	<path d="M15,17.6c0.3,0,0.8,0.1,1.1-0.5c-0.5-0.4-1-0.8-1.6-1.2c0.9-0.3,1.3,0.4,2.1,0.5c0-0.2,0.1-0.4,0-0.5
		c-0.4-2.6-4.1-5.2-6.7-4.7c-0.6,0.1-0.5,0.4-0.5,0.8C9.3,14.7,12.2,17.7,15,17.6z"/>
	<path d="M23.2,24.1c0.1-3-3.8-5.8-6.6-4.8c-0.6,0.2-0.6,0.6-0.4,1.1c0.6,1.6,1.6,2.9,3,3.9c0.9,0.6,1.8,1.1,3.1,1
		c-0.4-0.7-0.7-1.2-1.2-1.9c0.9,0.2,1.2,1,1.9,1.1C23.1,24.4,23.2,24.3,23.2,24.1z"/>
	<path d="M26.2,13.5c0.1,0.6-0.6,1.1-0.4,1.7c1.8,0,3.6-1.7,4.2-4c0.2-0.9,0.6-2.1-0.1-2.6C29.1,8,28,8.7,27.2,9.2
		c-2.2,1.3-3.2,3.7-2.4,5.5C25.4,14.5,25.4,13.6,26.2,13.5z"/>
	<path d="M26.1,19.2c-0.5,0.4-0.9,0.8-1.5,1.3c1.8,0.5,3.1,0,4.3-1.1c1.3-1.2,2-2.6,1.8-4.4c-0.1-0.7-0.5-0.5-0.9-0.4
		c-1.9,0.4-3.5,1.4-4.7,2.9c-0.5,0.6-1,1.3-0.8,2.1C24.9,19.6,25.3,18.9,26.1,19.2z"/>
	<path d="M24.6,28.3c1.6-0.2,2.4-1.3,3-2.6c0.6-1.3,0.6-2.7-0.1-4c-0.3-0.5-0.7-0.2-0.9,0c-1.6,1.1-2.6,2.6-3,4.5
		c-0.1,0.4-0.2,1,0.1,1.3c0.5,0.5,0.6-0.7,1.1-0.3c0,0.1-0.1,0.3-0.1,0.4C24.6,27.8,24.4,28,24.6,28.3z"/>
	<path d="M22.8,11.7c0.4-0.3-0.2-0.7,0.1-1c0.6,0,0.4,0.6,0.8,0.8c1.1-2.1-0.4-5.1-2.5-5.4C20.8,6,20.5,6,20.3,6.5
		C19.9,8.2,21.1,10.9,22.8,11.7z"/>
	<path d="M32.4,16.5c0.1-0.2,0.2-0.3,0.4-0.1c0.1,0.1-0.1,0.2-0.3,0.3c-0.2,0.4-0.7,0.9,0.3,0.8c1.5-0.1,3.2-2,3.1-3.5
		c0-0.4-0.1-0.7-0.7-0.7c-1.4,0.1-3.1,1.3-3.5,2.6C31.5,16.7,31.7,16.8,32.4,16.5z"/>
	<path d="M20.5,25.8c-0.4-0.1-1-0.3-1.3,0.1c-0.3,0.4,0.2,0.8,0.3,1.1c0.3,0.6,0.8,1.1,1.3,1.6c0.7,0.6,0.7,0.6,1.4,0h0.1
		c1,0.5,0.7-0.2,0.6-0.4C22.5,27,21.7,26.2,20.5,25.8z"/>
</g>
</svg>
