<?xml version="1.0" encoding="utf-8"?>
<!-- Generator: Adobe Illustrator 22.0.1, SVG Export Plug-In . SVG Version: 6.00 Build 0)  -->
<svg version="1.1" id="Layer_1" xmlns="http://www.w3.org/2000/svg" xmlns:xlink="http://www.w3.org/1999/xlink" x="0px" y="0px"
	 viewBox="0 0 45 45" style="enable-background:new 0 0 45 45;" xml:space="preserve">
<g>
	<path d="M29.1,26.2c-0.9,0-1.7,0-2.6,0c-2.6,0-5.1,0-7.7,0H18c-3.2,0-6.4,0-9.5,0c-0.3,0-0.4,0.1-0.4,0.4c0,4.1,0,8.1,0,12.2
		c0,0.4,0,0.4,0.4,0.4c4,0,8,0,12,0c1.8,0,3.7,0,5.5,0c1.1,0,2.2,0,3.3,0c0.4,0,0.4,0,0.4-0.4c0-1.6,0-3.1,0-4.7c0-2.5,0-5,0-7.5
		C29.6,26.4,29.5,26.2,29.1,26.2z M9.5,29c0-0.2,0.1-0.3,0.3-0.3c0.4,0,0.9,0,1.3,0c0.2,0,0.4,0.1,0.4,0.4c0,0.5,0,1,0,1.5
		s0,0.9,0,1.4c0,0.3-0.1,0.4-0.4,0.4c-0.4,0-0.8,0-1.2,0c-0.3,0-0.4-0.1-0.4-0.4C9.5,30.9,9.5,29.9,9.5,29z M11.6,35.5
		c-0.1,0.4-0.1,0.8-0.1,1.3c0,0.3-0.1,0.4-0.4,0.4c-0.4,0-0.8,0-1.3,0c-0.2,0-0.3-0.1-0.3-0.3c0-1,0-1.9,0-2.9
		c0-0.2,0.1-0.4,0.4-0.4c0.4,0,0.8,0,1.3,0c0.3,0,0.4,0.1,0.4,0.4C11.6,34.5,11.6,35,11.6,35.5z M13.9,37.2c-0.4,0-0.9,0-1.3,0
		c-0.3,0-0.4-0.1-0.4-0.4c0-1,0-1.9,0-2.9c0-0.3,0.1-0.4,0.4-0.4c0.4,0,0.8,0,1.2,0c0.3,0,0.4,0.1,0.4,0.4c0,0.5,0,1,0,1.4
		c0,0.5,0,1,0,1.5C14.3,37.1,14.2,37.2,13.9,37.2z M14.3,30.5c0,0.5,0,0.9,0,1.4c0,0.3-0.1,0.4-0.4,0.4c-0.4,0-0.8,0-1.2,0
		c-0.3,0-0.4-0.1-0.4-0.4c0-1,0-2,0-2.9c0-0.2,0.1-0.3,0.3-0.3c0.4,0,0.9,0,1.3,0c0.2,0,0.4,0.1,0.4,0.4
		C14.3,29.5,14.3,30,14.3,30.5z M16.8,37.2c-0.5,0-0.9,0-1.4,0c-0.2,0-0.3-0.1-0.3-0.3c0-1,0-2,0-3c0-0.2,0.1-0.3,0.3-0.3
		c0.4,0,0.9,0,1.3,0c0.2,0,0.3,0.1,0.3,0.4c0,0.5,0,1,0,1.5s0,1,0,1.4C17.1,37.1,17,37.2,16.8,37.2z M17.1,30.5c0,0.5,0,0.9,0,1.4
		c0,0.3-0.1,0.4-0.4,0.4c-0.4,0-0.8,0-1.2,0c-0.3,0-0.4-0.1-0.4-0.4c0-1,0-2,0-2.9c0-0.3,0.1-0.4,0.3-0.4c0.4,0,0.9,0,1.3,0
		c0.2,0,0.4,0.1,0.4,0.4C17.1,29.5,17.1,30,17.1,30.5z M19.5,37.2c-0.4,0-0.9,0-1.3,0c-0.2,0-0.4-0.1-0.4-0.3c0-1,0-1.9,0-2.9
		c0-0.2,0.1-0.4,0.3-0.4c0.4,0,0.9,0,1.3,0c0.2,0,0.4,0.1,0.4,0.4c0,0.5,0,1,0,1.5s0,1,0,1.4C19.9,37.1,19.8,37.2,19.5,37.2z
		 M19.9,30.5c0,0.5,0,1,0,1.4c0,0.2-0.2,0.3-0.4,0.3c-0.4,0-0.9,0-1.3,0c-0.2,0-0.3-0.1-0.3-0.3c0-1,0-2,0-3c0-0.2,0.1-0.3,0.3-0.3
		c0.5,0,0.9,0,1.4,0c0.2,0,0.3,0.1,0.3,0.4C19.9,29.5,19.9,30,19.9,30.5z M22.6,36.8c0,0.2-0.1,0.3-0.4,0.3c-0.4,0-0.9,0-1.3,0
		c-0.2,0-0.3-0.1-0.3-0.3c0-0.5,0-1,0-1.5s0-1,0-1.4c0-0.2,0.1-0.4,0.3-0.3c0.4,0,0.8,0,1.3,0c0.2,0,0.4,0.1,0.4,0.3
		C22.6,34.9,22.6,35.9,22.6,36.8z M22.6,31.9c0,0.3,0,0.3-0.4,0.4c-0.4,0-0.7,0-1.1,0c-0.4,0-0.4,0-0.4-0.4c0-0.5,0-0.9,0-1.4
		s0-1,0-1.5c0-0.2,0.1-0.3,0.3-0.3c0.4,0,0.9,0,1.3,0c0.2,0,0.3,0.1,0.3,0.3C22.6,30,22.6,30.9,22.6,31.9z M25.4,36.8
		c0,0.2-0.1,0.4-0.4,0.3c-0.4,0-0.8,0-1.2,0c-0.3,0-0.4-0.1-0.4-0.4c0-0.5,0-0.9,0-1.4s0-0.9,0-1.4c0-0.3,0.1-0.4,0.4-0.4
		c0.4,0,0.8,0,1.2,0c0.3,0,0.4,0.1,0.4,0.4C25.4,34.9,25.4,35.9,25.4,36.8z M25.4,30.5c0,0.4,0,0.9,0,1.3c0,0.3-0.1,0.4-0.4,0.4
		c-0.4,0-0.8,0-1.2,0c-0.2,0-0.4-0.1-0.4-0.4c0-1,0-2,0-2.9c0-0.2,0.1-0.3,0.3-0.3c0.4,0,0.8,0,1.3,0c0.3,0,0.4,0.1,0.4,0.4
		C25.4,29.5,25.4,30,25.4,30.5z M27.9,37.2c-0.5,0-0.9,0-1.4,0c-0.3,0-0.4-0.1-0.4-0.3c0-1,0-1.9,0-2.9c0-0.2,0.1-0.3,0.3-0.3
		c0.4,0,0.9,0,1.3,0c0.2,0,0.4,0.1,0.3,0.4c0,0.5,0,1,0,1.5c0.2,0.3,0.2,0.8,0.2,1.3C28.2,37.1,28.1,37.2,27.9,37.2z M28.2,30.4
		c0,0.5,0,1,0,1.4c0,0.3-0.1,0.4-0.4,0.4c-0.4,0-0.8,0-1.2,0c-0.2,0-0.4-0.1-0.4-0.3c0-1,0-1.9,0-2.9c0-0.2,0.1-0.4,0.4-0.4
		c0.4,0,0.8,0,1.3,0c0.2,0,0.3,0.1,0.3,0.4C28.2,29.5,28.2,30,28.2,30.4z"/>
	<path d="M42.3,20c0-0.2-0.1-0.3-0.3-0.3H30.5c-0.4,0-0.5,0.1-0.5,0.5v0.1c0,4.5,0,9,0,13.4c0,0.7,0,1.4,0,2.2c0,1,0,2,0,3
		c0,0.2,0.1,0.3,0.3,0.3c3.9,0,7.8,0,11.7,0c0.3,0,0.4-0.1,0.4-0.3L42.3,20z M40.6,30.3c-0.4,0-0.7,0-1.1,0c-0.2,0-0.3-0.1-0.3-0.3
		c0-0.3,0-0.7,0-1c0-0.2,0.1-0.3,0.3-0.3s0.3,0,0.5,0s0.3,0,0.5,0s0.3,0.1,0.3,0.3c0,0.3,0,0.7,0,1C40.9,30.2,40.8,30.3,40.6,30.3z
		 M31.3,21.6c0-0.4,0.1-0.5,0.5-0.5c1.4,0,2.9,0,4.3,0c1.4,0,2.8,0,4.2,0c0.4,0,0.5,0.1,0.5,0.5c0,1,0,1.9,0,2.9
		c0,0.3-0.1,0.4-0.4,0.4c-2.2,0-4.3,0-6.5,0c-0.7,0-1.4,0-2.1,0c-0.4,0-0.5-0.1-0.5-0.5C31.3,23.5,31.3,22.6,31.3,21.6z M37.2,33.9
		c0-0.2,0.1-0.3,0.3-0.3c0.4,0,0.8,0,1.1,0c0.2,0,0.3,0.1,0.3,0.3c0,0.3,0,0.7,0,1c0,0.2-0.1,0.3-0.3,0.3c-0.2,0-0.4,0-0.6,0
		s-0.3,0-0.5,0s-0.3-0.1-0.3-0.3C37.2,34.6,37.2,34.2,37.2,33.9z M35.1,30c-0.1,0.3-0.3,0.3-0.5,0.3c-0.3,0-0.7,0-1,0
		c-0.2,0-0.3-0.1-0.3-0.4c0-0.3,0-0.6,0-1c0-0.2,0.1-0.3,0.3-0.3c0.3,0,0.7,0,1,0c0.3,0,0.4,0.1,0.4,0.4c0,0.2,0,0.4,0,0.6
		C35,29.7,35.1,29.9,35.1,30z M31.7,28.6c0.2,0,0.3,0,0.5,0s0.3,0,0.5,0s0.3,0.1,0.3,0.3c0,0.3,0,0.7,0,1c0,0.2-0.1,0.3-0.3,0.3
		c-0.3,0-0.7,0-1,0c-0.2,0-0.3-0.1-0.3-0.3c0-0.3,0-0.7,0-1C31.3,28.7,31.4,28.6,31.7,28.6z M33,36.9c0,0.2-0.1,0.3-0.3,0.3
		s-0.4,0-0.6,0c-0.2,0-0.4,0-0.5,0c-0.2,0-0.3-0.1-0.3-0.3c0-0.3,0-0.7,0-1c0-0.2,0.1-0.3,0.3-0.3c0.4,0,0.7,0,1.1,0
		c0.2,0,0.3,0.1,0.3,0.3C33.1,36.2,33.1,36.5,33,36.9z M33,34.9c0,0.2-0.1,0.4-0.4,0.3c-0.2,0-0.3,0-0.5,0c-0.2,0-0.4,0-0.6,0
		s-0.3-0.1-0.3-0.3c0-0.3,0-0.7,0-1c0-0.3,0.1-0.4,0.4-0.4c0.3,0,0.6,0,1,0c0.2,0,0.4,0.1,0.4,0.4C33.1,34.2,33.1,34.6,33,34.9z
		 M32.8,32.2c-0.3,0-0.5,0-0.8,0.1c-0.1,0-0.2-0.1-0.3-0.1c-0.2,0-0.3-0.1-0.3-0.4s0-0.7,0-1c0-0.2,0.1-0.3,0.3-0.3
		c0.4,0,0.7,0,1.1,0c0.1,0,0.3,0.1,0.3,0.2c0,0.1,0,0.1,0,0.2c0-0.3,0.2-0.4,0.4-0.4c0.3,0,0.7,0,1,0s0.5,0.2,0.4,0.5
		c0.2,0.3,0.2,0.6,0.1,0.8c0,0.4-0.1,0.4-0.5,0.4c-0.1,0-0.3,0-0.4,0c-0.2,0-0.4,0-0.7,0c-0.1,0-0.3-0.1-0.3-0.2
		C33.1,32.2,33,32.2,32.8,32.2z M35,36.8c0,0.3-0.1,0.4-0.3,0.4s-0.4,0-0.6,0c-0.2,0-0.4,0-0.6,0s-0.3-0.1-0.3-0.3
		c0-0.4,0-0.7,0-1.1c0-0.2,0.1-0.3,0.3-0.3c0.4,0,0.8,0,1.2,0c0.2,0,0.3,0.1,0.3,0.3C35,36.1,35,36.5,35,36.8z M35,34.9
		c0,0.2-0.1,0.4-0.4,0.4c-0.3,0-0.7,0-1,0c-0.3,0-0.4-0.1-0.4-0.4c0-0.3,0-0.6,0-1c0-0.2,0.1-0.4,0.4-0.3c0.2,0,0.4,0,0.6,0
		s0.3,0,0.5,0c0.3,0,0.4,0.1,0.4,0.4C35,34.2,35,34.6,35,34.9z M36.7,37.2c-0.4,0-0.8,0-1.2,0c-0.2,0-0.3-0.1-0.3-0.3
		c0-0.4,0-0.7,0-1.1c0-0.2,0.1-0.3,0.3-0.3s0.4,0,0.6,0c0.2,0,0.3,0,0.5,0c0.2,0,0.3,0.1,0.3,0.3c0.1,0.4,0.1,0.7,0.1,1.1
		C37,37.1,36.9,37.2,36.7,37.2z M37,34.9c0,0.2-0.1,0.3-0.3,0.3c-0.4,0-0.8,0-1.2,0c-0.2,0-0.3-0.1-0.3-0.3c0-0.3,0-0.7,0-1
		c0-0.2,0.1-0.3,0.3-0.3s0.4,0,0.6,0c0.2,0,0.4,0,0.6,0s0.3,0.1,0.3,0.3C37,34.3,37,34.6,37,34.9z M37,31.9c0,0.2-0.1,0.3-0.3,0.3
		s-0.4,0-0.6,0c-0.2,0-0.4,0-0.6,0s-0.3-0.1-0.3-0.3c0-0.4,0-0.7,0-1.1c0-0.2,0.1-0.3,0.4-0.3c0.3,0,0.7,0,1,0
		c0.3,0,0.4,0.1,0.4,0.4C37,31.3,37,31.6,37,31.9z M37,30c0,0.2-0.1,0.3-0.3,0.3c-0.4,0-0.8,0-1.2,0c-0.1,0-0.2-0.2-0.4-0.2
		c0-0.3,0-0.6,0.1-0.8c0-0.1,0-0.3,0-0.4c0.1-0.1,0.2-0.2,0.3-0.2c0.4,0,0.8,0,1.2,0c0.2,0,0.3,0.1,0.3,0.3C37,29.3,37,29.7,37,30z
		 M39,36.9c0,0.2-0.1,0.3-0.3,0.3s-0.4,0-0.6,0c-0.2,0-0.4,0-0.6,0s-0.3-0.1-0.3-0.3c0-0.4,0-0.7,0-1.1c0-0.2,0.1-0.3,0.3-0.3
		c0.4,0,0.8,0,1.2,0c0.2,0,0.3,0.1,0.3,0.3C39,36.2,39,36.5,39,36.9z M39,31.9c0,0.2-0.1,0.3-0.3,0.3s-0.4,0-0.6,0
		c-0.2,0-0.4,0-0.6,0s-0.3-0.1-0.3-0.3c0-0.4,0-0.7,0-1.1c0-0.2,0.1-0.3,0.3-0.3c0.4,0,0.8,0,1.2,0c0.2,0,0.3,0.1,0.3,0.3
		C39,31.2,39,31.6,39,31.9z M39,29.9c0,0.2-0.1,0.3-0.4,0.3c-0.4,0-0.7,0-1.1,0c-0.2,0-0.3-0.1-0.3-0.3c0-0.3,0-0.7,0-1
		c0-0.2,0.1-0.3,0.3-0.3s0.4,0,0.6,0c0.2,0,0.4,0,0.6,0s0.3,0.1,0.3,0.3C39,29.3,39,29.6,39,29.9z M39.1,31.8c0-0.3,0-0.6,0-1
		c0-0.2,0.1-0.3,0.3-0.3c0.3,0,0.7,0,1,0c0.2,0,0.3,0.1,0.3,0.3c0,0.3,0,0.7,0,1c0.2,0.4,0.1,0.5-0.2,0.4c-0.2,0-0.3,0-0.5,0
		s-0.3,0-0.5,0C39.2,32.2,39.1,32.1,39.1,31.8z M40.9,36.9c0,0.2-0.1,0.3-0.3,0.3c-0.2,0-0.3,0-0.5,0c-0.2,0-0.4,0-0.6,0
		s-0.3-0.1-0.3-0.3c0-0.3,0-0.7,0-1c0-0.2,0.1-0.3,0.3-0.3c0.4,0,0.7,0,1.1,0c0.2,0,0.3,0.1,0.3,0.3C40.9,36.2,40.9,36.5,40.9,36.9z
		 M40.9,34.5c0,0.2,0,0.4,0,0.6c0,0.2-0.1,0.3-0.3,0.3c-0.4,0-0.7,0-1.1,0c-0.2,0-0.3-0.1-0.3-0.3c0-0.5,0-0.9,0-1.2
		c0-0.2,0.1-0.3,0.3-0.3c0.4,0,0.7,0,1.1,0c0.2,0,0.3,0.1,0.3,0.3C40.9,34.1,40.9,34.3,40.9,34.5z"/>
	<path d="M33.1,31.8c0,0.1,0,0.2,0,0.2c0,0,0,0,0,0C33.1,31.9,33.1,31.9,33.1,31.8z"/>
	<path d="M10.2,26c0.9,0,1.7,0,2.6,0c0.2,0,0.3-0.1,0.3-0.3c0-0.5,0-0.9,0-1.4c0-2.1-0.1-4.1-0.1-6.2c-0.1-2.1-0.1-4.2-0.2-6.4
		c0-0.2-0.1-0.3-0.3-0.3c-0.6,0-1.2,0-1.8,0c-0.4,0-0.4,0-0.4,0.4c0,1.2-0.1,2.4-0.1,3.7c0,1.7-0.1,3.4-0.1,4.9
		c0,1.9-0.1,3.5-0.1,5.2C9.9,25.9,10,26,10.2,26z"/>
	<path d="M4,36.9c0.7,0,1.5,0,2.2,0c0.6,0,0.6,0,0.6-0.6c0-2.5-0.1-5.1-0.1-7.6c0-0.7,0-1.3-0.1-2c0-0.1,0-0.3,0-0.4
		c0-2.4,0-4.9-0.1-7.3c0-0.2,0-0.5,0-0.7c0-0.1,0-0.1,0-0.2c0-1.7-0.1-3.5-0.1-5.2c0-1.7,0-3.5-0.1-5.2c0-0.3-0.1-0.4-0.4-0.4
		c-0.6,0-1.2,0-1.8,0c0,0-0.1,0.1-0.1,0.3c0,3-0.1,5.9-0.1,8.9c0,1.2,0,2.4,0,3.6c0,0.3,0,0.6,0,0.8c0,0.1-0.1,0.2-0.1,0.2
		c0,0.8,0,1.7,0,2.5c0,0.1,0,0.2,0.1,0.3c0,0.1-0.1,0.1-0.1,0.2c0,0.5,0,1,0,1.5c0,1.4,0,2.8,0,4.2c0,2.2-0.1,4.4-0.1,6.7
		C3.7,36.8,3.7,36.9,4,36.9z"/>
	<path d="M10.6,11.2c0.3,0,0.6,0,0.9,0s0.6,0,0.9,0c0.2,0,0.3-0.1,0.3-0.3c0-0.3,0-0.6,0-0.9c0-0.1-0.1-0.2-0.2-0.2
		c-0.7,0-1.3,0-2,0c-0.1,0-0.2,0.1-0.2,0.2c0,0.3,0,0.6,0,0.9C10.2,11.1,10.3,11.2,10.6,11.2z"/>
	<path d="M4.3,7c0.4,0,0.7,0,1,0s0.6,0,0.9,0c0.2,0,0.3,0,0.3-0.3c0-0.2,0-0.4,0-0.6c0-0.3-0.2-0.4-0.4-0.4c-0.6,0-1.2,0-1.7,0
		C4.1,5.7,4,5.8,4,6s0,0.5,0,0.7C4,7,4.1,7,4.3,7z"/>
	<path d="M7.4,37.2c-1.5,0-2.9,0-4.3,0c-0.2,0-0.4,0.1-0.4,0.4c0,0.5,0,1,0,1.4c0,0.2,0.1,0.3,0.3,0.3c0.7,0,1.5,0,2.2,0
		c0.1,0,0.2,0,0.3-0.1c0,0,0,0,0.1,0c0.7,0,1.4,0,2.1,0c0.1,0,0.2-0.1,0.2-0.2c0-0.6,0-1.1,0-1.7C7.8,37.3,7.7,37.2,7.4,37.2
		C7.5,37.2,7.4,37.2,7.4,37.2z"/>
</g>
</svg>
