<?xml version="1.0" encoding="utf-8"?>
<!-- Generator: Adobe Illustrator 22.0.1, SVG Export Plug-In . SVG Version: 6.00 Build 0)  -->
<svg version="1.1" id="Layer_1" xmlns="http://www.w3.org/2000/svg" xmlns:xlink="http://www.w3.org/1999/xlink" x="0px" y="0px"
	 viewBox="0 0 45 45" style="enable-background:new 0 0 45 45;" xml:space="preserve">
<path d="M41.3,12.6c0-0.2-0.1-0.5-0.2-0.7c-0.1-0.2-0.2-0.4-0.3-0.6c-0.1-0.2-0.3-0.4-0.5-0.6s-0.4-0.3-0.6-0.5
	c-0.2-0.1-0.4-0.2-0.6-0.3c-0.2-0.1-0.5-0.2-0.7-0.2c-0.2-0.1-0.4-0.1-0.7-0.1H7.3c-0.2,0-0.5,0-0.7,0.1c-0.2,0-0.5,0.1-0.7,0.2
	c-0.2,0.1-0.4,0.2-0.6,0.3c-0.2,0.1-0.4,0.3-0.6,0.5s-0.3,0.4-0.5,0.6c-0.1,0.2-0.3,0.4-0.4,0.6c-0.1,0.2-0.2,0.5-0.2,0.7
	c-0.1,0.2-0.1,0.5-0.1,0.7v18.3c0,0.2,0,0.5,0.1,0.7c0.1,0.2,0.1,0.5,0.2,0.7c0.1,0.2,0.2,0.4,0.4,0.7c0.1,0.2,0.3,0.4,0.5,0.6
	s0.4,0.3,0.6,0.5c0.2,0.1,0.4,0.3,0.6,0.4c0.2,0.1,0.5,0.2,0.7,0.2c0.2,0.1,0.5,0.1,0.7,0.1h30.4c0.2,0,0.5,0,0.7-0.1
	c0.2-0.1,0.5-0.1,0.7-0.2c0.2-0.1,0.4-0.2,0.6-0.4c0.2-0.1,0.4-0.3,0.6-0.5s0.3-0.4,0.5-0.6c0.1-0.2,0.2-0.4,0.3-0.7
	c0.1-0.2,0.2-0.5,0.2-0.7s0.1-0.5,0.1-0.7V13.3C41.4,13.1,41.4,12.8,41.3,12.6z M16,27.8h-5.3c-0.1,0-0.2,0-0.3-0.1
	c-0.1,0-0.2-0.1-0.3-0.2c-0.1-0.1-0.1-0.2-0.2-0.3c0-0.1-0.1-0.2-0.1-0.3v-9.8h1.6v9.1H16V27.8z M19.5,21.7v6.1h-1.6V17.2h1.6V21.7z
	 M27.4,18.2l-2.3,9c-0.1,0.2-0.1,0.3-0.2,0.4c-0.1,0-0.2,0-0.3,0.1c-0.1,0-0.1,0-0.2,0h-0.1c-0.1,0-0.2,0-0.3-0.1
	c-0.1-0.1-0.2-0.3-0.3-0.4l-2.2-9c0-0.1,0-0.2,0-0.3c0-0.1,0-0.2,0.1-0.3c0.1-0.1,0.1-0.2,0.2-0.2c0.1-0.1,0.2-0.1,0.3-0.1
	c0.1,0,0.2,0,0.3,0c0.1,0,0.2,0,0.3,0.1c0.1,0.1,0.2,0.1,0.2,0.2c0.1,0.1,0.1,0.2,0.1,0.3l1.5,6l1.5-6c0-0.1,0.1-0.2,0.1-0.3
	c0.1-0.1,0.1-0.1,0.2-0.2c0.1-0.1,0.2-0.1,0.3-0.1c0.1,0,0.2,0,0.3,0c0.1,0,0.2,0.1,0.3,0.1c0.1,0.1,0.2,0.1,0.2,0.2
	c0.1,0.1,0.1,0.2,0.1,0.3C27.4,18,27.4,18.1,27.4,18.2z M34.3,18.8h-3.6v2.9h3.6v1.6h-3.6v2.9h3.6v1.5h-4.4c-0.1,0-0.2,0-0.3,0
	c-0.1,0-0.2-0.1-0.3-0.2c-0.1-0.1-0.1-0.2-0.2-0.3c0-0.1-0.1-0.2,0-0.3v-9c0-0.1,0-0.2,0.1-0.3c0-0.1,0.1-0.2,0.2-0.3
	c0.1-0.1,0.2-0.1,0.3-0.2c0.1,0,0.2-0.1,0.3-0.1h4.4L34.3,18.8z"/>
</svg>
