<?xml version="1.0" encoding="utf-8"?>
<!-- Generator: Adobe Illustrator 22.0.1, SVG Export Plug-In . SVG Version: 6.00 Build 0)  -->
<svg version="1.1" id="Layer_1" xmlns="http://www.w3.org/2000/svg" xmlns:xlink="http://www.w3.org/1999/xlink" x="0px" y="0px"
	 viewBox="0 0 45 45" style="enable-background:new 0 0 45 45;" xml:space="preserve">
<g>
	<path d="M35.5,23.9c-0.4,0.4-0.5,0.8-0.5,1.4c0,1.7,0,3.4,0,5c0,0.4,0,0.4-0.4,0.4c-8,0-15.9,0-23.9,0c-0.3,0-0.4-0.1-0.4-0.4
		c0-2.2,0-4.3,0-6.5c0-1,0-2,0-3c0-0.9-1-1.5-1.8-1.3s-1.2,0.8-1.2,1.7c0,5.8,0,11.7,0,17.5c0,0.1,0,0.2,0,0.3h3.2v-4.6h24.7V39h3.1
		c0-0.1,0-0.2,0-0.2c0-4.5,0-9,0-13.5c-0.1-0.3-0.1-0.5-0.2-0.8C37.7,23.4,36.3,23.1,35.5,23.9z"/>
	<path d="M34.3,25.9c0-0.8-0.3-1.4-1-1.9c-0.5-0.4-1.2-0.5-1.8-0.5c-3.7,0-7.4,0-11.1,0c-0.1,0-0.2,0-0.3,0V30h14.2
		C34.3,28.7,34.4,27.3,34.3,25.9z"/>
	<path d="M40.3,9.6c-2.1-0.4-4.1-0.8-6.2-1.3C31,7.7,27.8,7,24.7,6.4c-0.8-0.2-1.6-0.3-2.4-0.5c-0.2,0-0.4,0-0.6,0.1
		c-1,0.2-2,0.5-3,0.7C14,8,9.4,9.1,4.7,10.2c-0.7,0.2-1,0.6-0.8,1.3c0,0.1,0.1,0.3,0.1,0.4c0.2,0.6,0.6,0.8,1.2,0.7
		c5.6-1.4,11.2-2.7,16.8-4.1c0.2,0,0.4-0.1,0.5-0.1c1.8,0.4,3.6,0.7,5.5,1.1c3.9,0.8,7.9,1.6,11.8,2.4c0.5,0.1,0.9-0.2,1.1-0.6
		c0.1-0.2,0.1-0.4,0.1-0.6C41.2,10.2,40.9,9.8,40.3,9.6z"/>
	<path d="M12.2,30.1c2.1,0,4.1,0,6.2,0c0.7,0,1.3-0.5,1.3-1.3c0-1.3,0-2.7,0-4c0-0.8-0.6-1.3-1.3-1.3c-0.8,0-1.3,0.4-1.4,1.2
		c0,0.2,0,0.4,0,0.6c0,0.7,0,1.4,0,2.2c-0.2,0-0.3,0-0.4,0c-1.4,0-2.8,0-4.2,0c-0.8,0-1.4,0.6-1.4,1.3
		C10.9,29.5,11.4,30.1,12.2,30.1z"/>
	<path d="M13.8,27.2c1.7,0,2.9-1.3,2.9-2.8s-1.2-2.8-2.8-2.8c-1.6,0-2.9,1.2-2.9,2.8C10.9,25.8,12.1,27.2,13.8,27.2z"/>
</g>
</svg>
