<?xml version="1.0" encoding="utf-8"?>
<!-- Generator: Adobe Illustrator 22.0.1, SVG Export Plug-In . SVG Version: 6.00 Build 0)  -->
<svg version="1.1" id="Layer_1" xmlns="http://www.w3.org/2000/svg" xmlns:xlink="http://www.w3.org/1999/xlink" x="0px" y="0px"
	 viewBox="0 0 45 45" style="enable-background:new 0 0 45 45;" xml:space="preserve">
<g>
	<path d="M30.2,2.7c0,0-0.3,0-0.4,0c-0.1,0-0.3-0.1-0.5-0.1c-0.2-0.1-0.6-0.2-0.8-0.2S28,2.5,27.6,2.6c-0.3,0-0.3,0.1-0.4,0.3
		C27,3,26.8,3.1,26.6,3c-0.2,0,0-0.2,0.2-0.2c0.2-0.1,0-0.1-0.1-0.2c-0.1-0.1-0.2-0.1-0.3-0.1c-0.2,0-0.7-0.2-0.9-0.3
		c-0.2,0-1-0.1-1.2,0c-0.3,0.1-0.6,0.3-0.8,0.4C23.2,2.8,23,3,22.8,3.2s-0.5,0.2-0.7,0.4c-0.2,0.2-0.3,0.3-0.3,0.5
		c0,0.3,0,0.2,0.3,0.2c0.2,0.1,0.2-0.2,0.5-0.2c0.3,0,0.2,0.1,0.3,0.2C23,4.4,23,4.9,23.1,4.9c0.1,0,0.2,0,0.4-0.1
		c0.2-0.1,0.4-0.4,0.5-0.6c0-0.2-0.2-0.4-0.1-0.6c0-0.2,0.2-0.2,0.4-0.2c0.3-0.1,0.2-0.2,0.2-0.4c0.1-0.2,0.1-0.1,0.3,0
		c0.2,0,0.1,0.2,0,0.4c-0.1,0.2-0.3,0.2-0.4,0.4C24.3,4,24.6,4,24.8,4.1c0,0,0,0,0.1,0c0,0.1,0,0.1,0,0.3C25,4.6,25.1,4.6,25,4.7
		c-0.1,0.1-0.4-0.2-0.5-0.2c-0.1,0.1-0.1,0.3-0.1,0.5s-0.3,0.2-0.5,0.1c-0.2-0.2-0.6,0.2-0.6,0.2s-0.8,0-1,0c-0.1,0-0.1-0.3,0-0.4
		c0.1-0.1,0-0.3-0.2-0.3C22.1,4.7,22,5,22,5.2c0,0.1-0.4,0.3-0.6,0.3c-0.1,0-0.4,0.2-0.8,0.5c-0.4,0.3-1,0.4-1.1,0.5
		s-0.3,0.2-0.4,0.1c-0.1-0.1-0.4,0-0.5,0.1c-0.1,0.1,0,0.2,0.1,0.2C19,7,19.1,7.2,19.2,7.5c0,0.3-0.2,0.5-0.4,0.6
		c-0.2,0.1-1.3,0-1.5,0s-0.4,0.2-0.5,0.4c-0.2,0.2,0,0.2-0.1,0.4c-0.1,0.2-0.4,0.4-0.5,0.6c-0.1,0.3,0.1,0.4,0.2,0.7
		c0.2,0.3,0.2-0.1,0.4,0c0.2,0,0.2,0.2,0.3,0.2c0.1,0,0.6-0.1,0.8-0.1c0.2,0,0.5-0.3,0.7-0.4c0.2-0.2,0.3-0.4,0.4-0.6
		s0.6-0.3,0.8-0.4C20,8.8,19.9,8.7,20,8.6c0-0.1,0.3-0.3,0.5-0.3s0.3,0.1,0.5,0C21.1,8.2,21.2,8,21.3,8c0.1,0,0.4,0.1,0.5,0.2
		c0.1,0.1,0.4,0.4,0.6,0.5c0.2,0.1,0.9,0.6,1,0.7c0.1,0.1,0,0.3,0,0.4c0,0.1,0,0.2,0,0.2l0.2-0.4c0,0,0-0.2,0.1-0.2h0.2L24,9.3
		c0,0-0.1-0.1-0.2-0.1c-0.1,0-0.3-0.2-0.5-0.3c-0.1-0.1-0.6-0.6-0.8-0.8c-0.2-0.1-0.2-0.3-0.1-0.4c0.1-0.1,0.3-0.1,0.4-0.1
		c0.1,0,0.3,0.2,0.4,0.3C23.4,8,24,8.4,24.1,8.5c0.1,0.1,0.3,0.6,0.3,0.7c0.1,0.1,0.2,0.3,0.4,0.5s0.2,0.1,0.3,0.2
		c0,0.1-0.2,0.1-0.2,0.2c0,0.1,0.2,0.3,0.2,0.3s0.2-0.1,0.2-0.3c0-0.1,0.2-0.1,0.2-0.1l0.1-0.2C25.5,9.7,25,9.3,25,9.1
		c0-0.2,0.3,0.1,0.5,0.1C25.6,9.1,25.6,9,25.7,9c0.1,0,0.4,0.1,0.6,0.1c0.2-0.1,0.2-0.3,0.2-0.4c0-0.1-0.1-0.3-0.2-0.4
		c0-0.1,0.2-0.5,0.5-0.6c0.3-0.1,0,0,0.1-0.1c0.1-0.1,0.3-0.3,0.5-0.3c0.2,0,0.2,0.3,0.3,0.4c0.1,0.1,0.3,0.2,0.5,0.1
		c0.2-0.1,0.1-0.3-0.1-0.3c-0.1-0.1,0-0.2,0.2-0.3c0.2,0,0.5-0.1,0.5-0.1v0.1c0,0.1,0.1,0.4,0.1,0.5c0,0.1,0.8,0.5,1,0.6
		C30.3,8.6,30.3,9,30,9s-0.8-0.1-0.9-0.2c-0.1-0.1-0.4-0.2-0.6-0.2S28,8.7,27.9,8.8c-0.2,0.1-0.5,0.1-0.6,0.1
		c-0.1,0-0.3,0.3-0.6,0.3s-0.3,0.1-0.3,0.3s0.1,0.4,0.2,0.6c0.1,0.2,0.3,0.4,0.5,0.5c0.2,0.1,0.3,0,0.6-0.1s0.4,0.1,0.7,0.2
		c0.3,0.1,0.4-0.3,0.7-0.3c0.3,0,0.4,0.3,0.4,0.7c0,0.3-0.2,0.7-0.3,1.1c0,0.4-0.4,0.3-0.6,0.2c-0.2-0.1-0.3-0.2-0.6-0.1
		c-0.3,0.1-0.6,0.2-0.7,0.1c-0.1-0.1-1-0.2-1.2-0.3c-0.2-0.1-0.5-0.3-0.7-0.3c-0.2-0.1-0.5,0.1-0.7,0.3c-0.2,0.2-0.1,0.5-0.2,0.6
		c-0.1,0.1-0.4-0.1-0.7-0.2s-0.5-0.3-0.5-0.5s-0.5,0-0.8-0.1c-0.3-0.1-0.5-0.3-0.7-0.4s0.1-0.3,0.2-0.5c0.1-0.1,0-0.2,0-0.3
		c0.1-0.1-0.1-0.3-0.3-0.3s-1.8,0.1-2.2,0.1s-0.9,0.2-1.3,0.4c-0.3,0.2-1.1,0-1.2-0.1c-0.2-0.1-0.3,0.1-0.4,0.2
		c-0.1,0.1-0.3,0.3-0.5,0.4c-0.1,0-0.5,0.5-0.6,0.6c-0.2,0.1-0.2,0.4-0.3,0.7c-0.1,0.3-0.4,0.4-0.7,0.4s-0.5,0.2-0.6,0.3
		c-0.1,0.1-0.3,0.2-0.4,0.3c-0.1,0.1-0.7,1-0.9,1.2c-0.2,0.2-0.2,0.8-0.2,1.1s-0.3,0.9-0.6,1.1c-0.3,0.1,0,0.4,0.2,0.4
		c0.2,0.1,0,0.2-0.1,0.4c-0.1,0.1,0,0.5,0.3,0.5c0.2,0.1,0.1,0.5,0.3,0.5c0.2,0.1,0.3,0.5,0.3,0.7c0,0.2,0.3,0.4,0.5,0.5
		c0.2,0.1,0.7,0.9,1.1,1.1c0.4,0.2,0.6-0.1,0.9-0.3c0.3-0.1,0.7,0.1,1.1,0.2c0.3,0.2,0.8-0.1,1.3-0.4s1.4,0.1,1.5,0.1
		c0.1,0,0.2,0.4,0.3,0.6c0.1,0.2,0.3,0.1,0.4,0.1c0.1,0.1,0.3,0,0.3,0s0.1-0.2,0.2-0.2c0.1,0,0.4,0.4,0.5,0.7
		c0.1,0.2-0.3,0.7-0.4,0.8c-0.1,0.1,0.1,0.8,0.3,1c0.1,0.2,0.3,0.3,0.6,0.5c0.3,0.2,0.6,1.4,0.6,1.6c0,0.3-0.1,0.4,0,0.6
		s0.1,0.5-0.3,0.9c-0.3,0.3-0.3,0.6-0.4,0.8c-0.1,0.2-0.1,1.1,0,1.3c0.1,0.1,0.6,0.5,0.7,1.1c0.2,0.6,0.1,1,0.1,1.4s0.5,0.9,0.8,1.1
		c0.3,0.2,0.2,0.7,0.3,1c0.2,0.3-0.1,0.3-0.1,0.5c0,0.2,0.5,0.5,0.7,0.6c0.2,0.1,0.4-0.2,0.5-0.3c0.1-0.1,0.3-0.1,0.6-0.1
		c0.2,0,0.7,0,1,0c0.3,0,1.1-0.7,1.3-0.9c0.2-0.3,0.8-0.6,0.9-0.9c0.1-0.3,0.3-0.7,0.7-0.9c0.4-0.2,0.6-0.6,0.7-0.8
		s-0.1-0.6-0.1-0.9c0-0.3,0.2-0.4,0.3-0.5c0.1-0.1,0.7-0.5,1-0.6c0.3-0.1,0.5-0.1,0.7-0.3c0.2-0.2,0.2-0.9,0.2-1.2s0-0.5,0.1-0.7
		c0.1-0.2,0-0.4-0.1-0.5c-0.1-0.1-0.2-0.8-0.1-1.3s0.4-0.7,0.7-0.8c0.2-0.1,0.6-0.2,0.7-0.4c0.1-0.2,0.6-0.7,0.8-0.8
		c0.2-0.1,0.5-0.4,0.6-0.6c0.1-0.2,0.1-0.4,0.2-0.5c0.1-0.1,0.4-0.3,0.4-0.5c0-0.1,0.1-0.4,0.2-0.5c0.1-0.1,0.1-0.5,0.2-0.6
		c0.1-0.2,0-0.5,0-0.8c-0.1-0.3-0.3-0.2-0.4,0c-0.1,0.2-0.5,0-0.6,0c-0.1,0-0.6,0.2-0.9,0.2c-0.3,0.1-0.5-0.1-0.6-0.3
		c0-0.2-0.5-0.7-0.6-0.8c-0.1-0.1-0.4-0.6-0.5-0.8c-0.1-0.1-0.4-0.1-0.4-0.3S31.2,17.1,31,17s-0.5-0.7-0.5-0.9
		c0-0.1-0.3-0.5-0.4-0.6c-0.1-0.1-0.2-0.4-0.2-0.5s-0.3-0.5-0.4-0.6c-0.2,0-0.5-0.3-0.5-0.4s-0.1-0.3-0.2-0.4
		c-0.1-0.1-0.3-0.5-0.3-0.5c0.1-0.1,0.3,0.2,0.5,0.4c0.1,0.3,0.2,0,0.4-0.1c0.2-0.1,0.3,0.4,0.3,0.4s0.2,0.4,0.3,0.5
		c0.1,0.1,0.3,0.4,0.3,0.5c0,0.1,0.6,0.4,0.7,0.5c0.1,0.1,0.3,0.5,0.4,0.7c0.2,0.2,0.4,0.6,0.5,0.7c0.2,0.1,0.2,0.5,0.4,0.7
		c0.2,0.2,0.2,0.6,0.2,0.8s0.3,0.7,0.5,0.9c0.1,0.2,0.3,0.1,0.5,0c0.1-0.1,0.4-0.1,0.7-0.1s1-0.5,1.2-0.5c0.2,0,0.1-0.3,0.2-0.4
		c0.1-0.1,0.4-0.3,0.6-0.3c0.1,0,0.2-0.1,0.2-0.3c0-0.1,0.4-0.4,0.5-0.6c0.1-0.1,0.3-1.1,0.3-1.4S36.5,15,36.3,15
		c-0.2-0.1-0.2-0.3-0.3-0.5c-0.1-0.3-0.3,0.2-0.5,0.3c-0.3,0.1-0.7,0.3-0.7-0.1c0-0.4-0.2-0.5-0.5-0.5s-0.7-0.6-0.9-1
		c-0.2-0.4,0.3-0.4,0.5-0.4c0.3,0,0.3,0.4,0.6,0.7c0.3,0.4,0.8,0.7,1,0.5c0.2-0.1,0.4-0.1,0.5,0.1c0.1,0.2,0.4,0.3,0.6,0.3
		c0.2,0,0.6,0,1,0c0.4,0,0.7,0.1,0.9,0.2c0.1,0.1,0.4,0.6,0.7,0.6s0.4,0.2,0.3,0.2s-0.2,0.2-0.1,0.3c0.1,0.1,0.2,0.3,0.4,0.2
		c0.2-0.1,0.4,0.1,0.5,0.3c0.1,0.2,0.1,0.4,0.1,0.8s0.2,0.5,0.4,0.7s0.4,0.8,0.5,1c0,0.2,0,0.5,0.1,0.6c0.1,0.1,0.3,0.5,0.3,0.7
		s0.1,0.5,0.2,0.7c0.1,0.2,0.2-0.2,0.2-0.4s0.2-0.4,0.2-0.6S42,19.4,42,19.4s0.2,0,0.2-0.1c0-0.1-0.2-0.7-0.2-1.1
		c0-0.4,0.1-0.8,0.1-0.8c0-0.1,0-1.2,0-1.6c0-0.4,0.4-0.2,0.4,0s0.2,0.8,0.3,1c0.1,0.2,0.5,0.8,0.5,1s0.4,0.5,0.4,0.5
		C40.5,5.8,30.2,2.7,30.2,2.7z M26.2,3.9c-0.1,0-0.3,0.1-0.4,0.2c-0.1,0.2-0.5,0-0.7,0c0.1,0,0.2-0.1,0.3-0.1c0.2,0,0.4-0.1,0.6-0.2
		C26.2,3.7,26.3,3.9,26.2,3.9z M33.6,10.4c-0.2,0-0.3,0-0.5-0.1c-0.2-0.1-0.6-0.4-0.5-0.6c0,0,0.2-0.3,0-0.6
		c-0.3-0.3-0.7-0.3-0.9-0.7c-0.2-0.3-0.3-0.7-0.3-0.9c0.1-0.1,0.3-0.4,0.5-0.4c0.2,0,0.6,0.3,0.5,0.4c-0.1,0.1-0.2,0.2-0.2,0.3
		c0,0.1,0.1,0.2,0.4,0.4C32.8,8.3,33,8.6,33,8.7c0,0.1,0.3,0.1,0.3,0.2C33.4,9,33.5,9,33.4,9.1c-0.2,0.1-0.3,0.1-0.2,0.2
		c0.1,0.1,0.3,0.2,0.5,0.4s0.2,0.4,0.2,0.5C33.8,10.3,33.8,10.5,33.6,10.4z"/>
	<path d="M20,6c0.2-0.2,0.4-0.3,0.4-0.4c0-0.1-0.2-0.1-0.3-0.2c0-0.1,0.1-0.2,0-0.3C20,5,19.8,4.9,19.8,4.9c0-0.1,0-0.2,0.1-0.2
		C20,4.6,20,4.5,20,4.5c0-0.1-0.1-0.3-0.3-0.3c-0.2,0.1-0.4,0.2-0.4,0.4c0,0.1-0.1,0.2,0.1,0.4c0.2,0.2,0.3,0.2,0.2,0.3
		c-0.1,0.1-0.5,0.3-0.5,0.4c0,0.2-0.1,0.4-0.2,0.4c0,0,0.2,0.1,0.4,0.1C19.6,6.1,19.8,6.2,20,6z"/>
	<path d="M18,5.5c-0.1,0.1-0.1,0.3,0.1,0.3c0.1,0,0.4-0.1,0.6-0.2c0.1,0,0.3-0.5,0.3-0.5s0-0.2-0.2-0.2c-0.1,0-0.2,0.1-0.4,0.2
		C18.2,5.2,18.1,5.4,18,5.5z"/>
	<path d="M19.3,3.1c0.3,0,0.3-0.2,0.3-0.3c0-0.1-0.2-0.2-0.3-0.2c-0.1,0-0.6,0-0.7,0.3c-0.2,0.3,0,0.2,0.1,0.2
		C18.7,3.1,19.1,3.1,19.3,3.1z"/>
	<path d="M24.5,1.4c-0.4,0-1.4,0-1.4,0c0.1,0.1,0.6,0.3,1,0.3C24.4,1.7,24.5,1.4,24.5,1.4z"/>
	<path d="M15,3.5c0.3-0.2,1.2-0.7,1.5-0.7s0.8,0,0.9-0.1c0.2-0.1,0.8-0.3,1.1-0.4c0.3-0.1,0.5,0,0.7-0.1c0.2-0.1,0.9-0.3,1.2-0.5
		c0.3-0.1,0.7-0.3,0.7-0.3s-1.6-0.1-4.4,0.8c-1,0.4-1.8,1-1.9,1.1C14.8,3.3,14.7,3.7,15,3.5z"/>
	<path d="M12.5,4.1c0.2-0.2,0.4-0.2,0.8-0.4C13.6,3.6,14,3.2,14,3.2c-3.7,1.6-6.2,4.2-6.2,4.2C8,7.3,8.9,7,9.1,6.9
		c0.2-0.1,0.6-0.7,0.7-0.8c0.1,0,0.1,0.1,0.2,0.3c0.1,0.2,0.2,0.1,0.3,0c0.1,0,0.2-0.2,0.5-0.4c0.2-0.1,0.2-0.4,0-0.4
		s-0.4,0.2-0.7,0.2c-0.3,0,0.1-0.3,0.1-0.3s0.2,0,0.3,0s0.3,0,0.5-0.1c0.2,0,0.2-0.2,0.4-0.3C11.7,5,11.7,5,12,4.8
		C12.2,4.7,12.3,4.4,12.5,4.1z"/>
	<path d="M6.6,35.8c0-0.3-0.3-0.5-0.3-0.5s0-0.5-0.1-0.6c-0.1-0.1-0.2-0.2-0.3-0.3c-0.1-0.1,0.1-0.1,0.2-0.2
		c0.1-0.1-0.2-0.4-0.3-0.5c-0.1-0.1-0.1-0.4-0.1-0.8c0-0.4-0.1-0.8-0.1-1c-0.1-0.2-0.4-0.5-0.4-0.6c0-0.2,0.1-0.6,0.5-0.7
		C6,30.3,5.9,30,6,29.8s-0.1-0.5-0.2-0.7c-0.1-0.2-0.1-0.4,0-0.5c0.1-0.1,0-0.5-0.1-0.6c-0.1-0.1-0.1-0.7-0.1-1.1
		c0.1-0.4,0.3-1,0.5-1.2c0.2-0.2,0.2-0.5,0.2-0.7s-0.1-0.4-0.2-0.7c0-0.3-0.2-0.4-0.3-0.5c-0.1-0.1-0.4-0.4-0.5-0.6
		c-0.1-0.2-0.5-0.3-0.6-0.3c-0.2,0-0.5-0.3-0.7-0.6c-0.2-0.2-0.5-0.2-0.7-0.2c-0.3,0-0.6-0.1-0.9-0.2c-0.3,0,0.1-0.2,0.2-0.2
		c0.2-0.1,0.5-0.2,0.6-0.4c0.2-0.2,0-0.5,0-0.5c0-0.1,0-0.6-0.1-0.8c0.1,0-0.1-0.3-0.3-0.6c-0.2-0.3-0.1-1-0.1-1.5
		c-0.1-0.5-0.5-1.1-0.5-1.1C-0.9,29.3,7,36.7,7,36.7s0-0.3,0-0.5C7,36.1,6.6,36,6.6,35.8z"/>
	<path d="M27.3,42.4c0.1,0-0.3,0.1-0.6,0.2c-0.3,0.1-0.7,0.3-0.9,0.3c-0.3,0-0.2-0.1-0.3,0c-0.1,0-0.5,0.1-0.5,0
		c0-0.1-1-0.2-1.3-0.1c-0.3,0.1-0.7,0.2-1,0c-0.3-0.1-0.9-0.1-1.1,0C21.3,43,20.9,43,20.5,43s-0.4-0.2-0.6-0.3c-0.2-0.1-0.5,0-0.6,0
		c-0.1,0-0.1,0.2-0.1,0.2s-0.3,0-0.7,0c-0.3,0-1.2,0.1-1.2,0.1c6.6,1.4,10.8-0.2,10.8-0.2C28.1,42.7,27.4,42.5,27.3,42.4z"/>
	<path d="M35.6,30.8c0,0.1,0.1,0.2,0.1,0.2s0.1-0.1,0.1-0.2C35.8,30.7,35.6,30.7,35.6,30.8z"/>
	<path d="M34.6,27.3c-0.3,0-0.3,0.1-0.3,0.2c-0.1,0.1-0.2,0.3-0.3,0.4c-0.1,0.1,0,0.4-0.3,0.6s-0.2,0.4-0.5,0.3
		c-0.3-0.1-0.4-0.1-0.5,0.1c-0.1,0.3-0.2,0.5-0.2,0.7c0,0.2,0.1,0.2-0.1,0.5c-0.1,0.2-0.4,0.8-0.5,1.1c0,0.3-0.2,0.7,0,0.8
		c0.2,0.1,0.4,0,0.5-0.1c0.2-0.1,0.3,0.1,0.5-0.2c0.2-0.2,0.4-0.5,0.5-0.9c0.2-0.4,0.8-1.2,0.9-2c0-0.1,0.1-0.4,0.2-0.4
		c0.1,0,0.4,0,0.4-0.2c-0.1-0.2,0-0.3-0.1-0.6C34.8,27.7,34.9,27.3,34.6,27.3z"/>
	<path d="M42.2,20.7c0-0.1-0.1-0.2-0.1-0.1c0,0,0,0.5,0,0.7s0,0.4,0.1,0.5c0.1,0,0.3,0,0.3-0.1c0-0.1-0.1-0.3-0.1-0.5
		C42.3,21,42.2,20.8,42.2,20.7z"/>
	<path d="M36.5,19c-0.3,0-0.4,0.1-0.4,0.1c-0.1,0,0,0.1,0.2,0.2c0.1,0.1,0.2,0,0.3,0c0,0,0.1-0.1,0.1-0.2C36.7,19,36.6,19,36.5,19z"
		/>
	<path d="M28.7,11c-0.1-0.1-0.4-0.1-0.4,0c-0.1,0.1,0,0.2,0.2,0.2S28.8,11,28.7,11z"/>
	<path d="M26.1,10.1c-0.1,0.1-0.2,0.2-0.1,0.3c0.1,0.1,0.4,0.2,0.3-0.2C26.3,10.3,26.2,10,26.1,10.1z"/>
	<path d="M26,11c0.1,0.1,0.4,0.2,0.5,0c0,0-0.2-0.2-0.3-0.2C26,10.8,25.9,10.9,26,11z"/>
	<path d="M22.8,10.5c0.1,0.1,0.3,0,0.3,0V10c-0.1,0-0.3,0-0.5,0c-0.2,0-0.2,0-0.2,0.1c0,0,0,0.1,0.1,0.2
		C22.6,10.4,22.7,10.4,22.8,10.5z"/>
	<path d="M21.6,8.7c0.1-0.2-0.1-0.3-0.2-0.3c-0.1,0-0.1,0.1-0.1,0.3S21.2,8.9,21.2,9c-0.1,0.1-0.1,0.2-0.1,0.4
		c0,0.2,0.2,0.2,0.2,0.2c0.1,0,0.2-0.3,0.2-0.4c0-0.2-0.1-0.1-0.1-0.3C21.4,8.8,21.6,8.7,21.6,8.7z"/>
	<path d="M19.9,9.4c0-0.2-0.1-0.2-0.2-0.1c-0.1,0-0.1,0.3,0,0.3C19.8,9.6,19.9,9.4,19.9,9.4z"/>
	<path d="M13.8,12.1c0,0.1,0.1,0.2,0.1,0.2c0.1,0,0.2-0.1,0.2-0.1L14,12C14,12,13.8,12,13.8,12.1z"/>
	<path d="M13.1,12.7c0,0.1,0.1,0.2,0.1,0.1c0.1-0.1,0.2-0.1,0.2-0.1l-0.1-0.1C13.3,12.6,13.1,12.6,13.1,12.7z"/>
</g>
</svg>
