<?xml version="1.0" encoding="utf-8"?>
<!-- Generator: Adobe Illustrator 22.0.1, SVG Export Plug-In . SVG Version: 6.00 Build 0)  -->
<svg version="1.1" id="Layer_1" xmlns="http://www.w3.org/2000/svg" xmlns:xlink="http://www.w3.org/1999/xlink" x="0px" y="0px"
	 viewBox="0 0 45 45" style="enable-background:new 0 0 45 45;" xml:space="preserve">
<style type="text/css">
	.st0{fill:#97A3AE;}
</style>
<path d="M41.1,19.3h0.4l-0.1-2.8l-1.3-2.7l-1.9-2.4l0,0l-4.3-1.6l0,0l-3.8,0.5l-2.3-3l-0.3,0.5c0,0,0,0,0,0L27.6,7l-3.9-2.2
	l-3.9-0.3l-0.1,0l-0.2,0.6l0.1-0.7l-3.8,1.3l0,0L15.4,7c0,0,0,0,0,0l0.1-0.9l-1.9,1.5l-3.4,6.3l-1.3,0.4l-3.3,1.4l-1.8,3.1l0,0v3.6
	h0.6c0,0.1,0.1,0.2,0.1,0.3c0.5,0.1,1,0.1,1.5,0.1c0.2,0,0.3,0.1,0.4,0.2c0.3,0.6,1.1,0.9,1.7,0.8c0.8-0.2,1.3-0.8,1.3-1.6
	c0-0.7-0.5-1.4-1.2-1.6s-1.5,0.1-1.9,0.8c-0.1,0.2-0.2,0.2-0.4,0.2c-0.6,0-1.2,0-1.7,0c0,0.2,0,0.4,0.1,0.6H4v-3.3l1.7-3l3.3-1.4
	l1.3-0.4l3.4-6.3l1.5-1.2l0,0.6c-0.2,0.1-0.4,0.3-0.5,0.5c0,1,0,1.9,0,2.9c0,0.2,0,0.3-0.2,0.4c-0.6,0.3-0.9,1-0.8,1.7
	c0.2,0.8,0.8,1.3,1.6,1.3s1.4-0.5,1.6-1.4c0-0.1,0-0.3,0-0.4c0-0.6-0.3-1-0.8-1.2c-0.2-0.1-0.2-0.2-0.2-0.4c0-1.3,0-2.5,0-3.8
	c-0.1,0-0.1,0.1-0.2,0.1l0.3-0.9l3.4-1.2l-0.1,0.5c-0.2,0-0.5,0.1-0.6,0.2c0,0.9,0,1.8,0,2.7c-0.1,1.2,0.2,2.2,0.9,3.1
	c0.1,0.1,0.1,0.3,0,0.4c-0.4,0.6-0.2,1.4,0.3,1.9s1.3,0.6,2,0.2c0.6-0.4,0.9-1.1,0.7-1.8s-0.8-1.2-1.6-1.2c-0.2,0-0.4-0.1-0.5-0.3
	c-0.1-0.1-0.2-0.3-0.3-0.4c-0.3-0.4-0.4-0.8-0.4-1.3c0-1.2,0-2.3,0-3.5c0,0,0,0-0.1,0l0.2-0.5l3.7,0.3l3.8,2.1l-0.1,0.5
	c-0.2-0.2-0.4-0.3-0.6-0.4c0,2.3,0,5,0,7.3c0,0.2,0,0.4-0.3,0.5c-0.7,0.4-1,1.3-0.6,2.1c0.3,0.7,1.2,1.1,1.9,0.9
	c0.7-0.2,1.1-0.7,1.2-1.4c0.1-0.8-0.2-1.3-0.8-1.7c-0.1-0.1-0.2-0.1-0.2-0.3c0-2,0-4.3,0-6.3c-0.1-0.1-0.2-0.2-0.3-0.3l0.2-0.3
	l2.2,2.8l3.8-0.5l4.3,1.6l1.9,2.3l1.2,2.6l0.1,2.6h-0.1c0-0.2,0-0.4,0-0.5c-2.1,0-4.6,0-6.8,0c-0.2,0-0.3,0-0.4-0.2
	c-0.4-0.7-1.1-1-1.9-0.8c-0.7,0.2-1.2,0.8-1.2,1.6s0.5,1.4,1.2,1.6c0.7,0.2,1.5-0.1,1.9-0.8c0.1-0.1,0.2-0.2,0.3-0.2
	c2.1,0,4.6,0,6.7,0c0-0.1,0-0.1,0.1-0.2l0.1,0.2l-0.9,3.1l-1.9,2.5l-2.5,1.3l-3.4,0.4l-0.1,0v0.8c0,0,0,0-0.1,0l-0.3-0.8L26.1,27
	l0-0.3c0.2,0,0.4,0,0.5,0c0-0.7,0-1.3,0-2c0-0.2,0-0.3,0.2-0.4c0.7-0.4,1-1.1,0.8-1.8c-0.2-0.8-0.9-1.3-1.6-1.3s-1.4,0.5-1.6,1.2
	c-0.2,0.7,0.1,1.5,0.8,1.9c0.2,0.1,0.2,0.2,0.2,0.4c0,0.7,0,1.3,0,2c0,0,0.1,0,0.1,0l-0.1,0.4h-2.9v0.6c0,0-0.1,0-0.1,0l-0.6-0.7
	c0.1,0,0.1,0,0.2,0c0-1.2,0-2.7,0-3.8c0-0.2,0.1-0.3,0.2-0.4c0.7-0.4,1-1.1,0.8-1.9c-0.2-0.6-0.9-1.1-1.6-1.1
	c-0.7,0-1.4,0.5-1.6,1.2c-0.2,0.7,0.1,1.5,0.8,1.8c0.2,0.1,0.2,0.2,0.2,0.4c0,1.2,0,2.7,0,3.8c0.1,0,0.3,0,0.4,0l-0.1,0.2h-1.6
	l0,0.6l-0.3-0.6L12.6,27l-0.1,0l0,1c-0.2,0-0.5,0-0.7,0c0,0.8,0,1.7,0,2.5c0,0.3-0.1,0.6-0.4,0.9c-0.4,0.4-0.7,0.7-1.1,1.1
	c-0.2,0.2-0.5,0.4-0.9,0.4c-0.8,0-1.6,0-2.3,0c-0.2,0-0.3,0-0.4-0.2c-0.4-0.7-1.1-1-1.9-0.8c-0.7,0.2-1.2,0.8-1.2,1.5
	s0.5,1.4,1.2,1.6c0.7,0.2,1.5-0.1,1.9-0.8C6.9,34,7,33.9,7.2,33.9c0.8,0,1.5,0,2.3,0c0.7,0,1.3-0.2,1.8-0.7c0.3-0.4,0.7-0.7,1.1-1.1
	c0.5-0.5,0.7-1,0.7-1.6c0-0.8,0-1.7,0-2.5c-0.1,0-0.3,0-0.4-0.1l0-0.8l6.3,0.1l0.3,0.4c-0.1,0-0.2,0-0.2,0c0,0.6,0,1.5,0,2
	c0,0.2,0,0.3-0.2,0.4c-0.7,0.4-1,1.1-0.8,1.9c0.2,0.7,0.9,1.2,1.6,1.2s1.4-0.5,1.5-1.2c0.1-0.8-0.2-1.6-0.8-1.9
	c-0.2-0.1-0.2-0.2-0.2-0.4c0-0.6,0-1.5,0-2c-0.2,0-0.3-0.1-0.5-0.1l0-0.4h1.6l0.1-0.4c0.1,0,0.1,0,0.2,0l0.6,0.8c-0.1,0-0.1,0-0.2,0
	c0,3.2,0,6.7,0,10c0,0.2-0.1,0.3-0.2,0.4c-0.7,0.4-1,1.1-0.8,1.8c0.2,0.7,0.8,1.2,1.5,1.2s1.4-0.5,1.6-1.2c0.1-0.8-0.1-1.5-0.8-1.9
	c-0.2-0.1-0.2-0.2-0.2-0.4c0-3.2,0-6.7,0-9.9c-0.1,0-0.2,0-0.4,0v-0.4h2.8l0.1-0.6c0,0,0.1,0,0.1,0l0.1,0.5l6.1,0.1l0.2,0.6
	c-0.1,0-0.2,0-0.3,0c0,0.9,0,1.8,0,2.7c0,1.2,0.7,1.9,1.9,1.9c1,0,1.9,0,2.9,0c0.2,0,0.3,0,0.3,0.2c0.3,0.6,1,0.9,1.6,0.8
	c0.8-0.1,1.3-0.7,1.4-1.5c0.2-0.7-0.3-1.3-1-1.6c-0.7-0.2-1.5,0.1-1.9,0.7c-0.1,0.1-0.1,0.2-0.3,0.2c-1,0-2,0-3,0
	c-0.5,0-0.7-0.3-0.7-0.7c0-0.9,0-1.8,0-2.7c-0.1,0-0.3,0-0.4,0v-0.6l3.3-0.4l2.6-1.3l1.9-2.5l0.9-3.2l0-0.1l-0.3-0.2
	C41.1,19.4,41.1,19.3,41.1,19.3z M7.8,21.7c0.3,0,0.5,0.2,0.5,0.5s-0.2,0.5-0.5,0.5s-0.5-0.2-0.5-0.5S7.5,21.7,7.8,21.7z M15.8,12.3
	c-0.1,0.2-0.3,0.5-0.5,0.5s-0.5-0.2-0.5-0.5s0.2-0.5,0.5-0.5S15.8,12,15.8,12.3z M20.9,11.8c0.3,0,0.5,0.2,0.5,0.4
	c0,0.3-0.2,0.5-0.4,0.5c-0.3,0-0.5-0.2-0.5-0.5C20.4,12,20.6,11.8,20.9,11.8z M27.8,16.2c0,0.3-0.2,0.5-0.5,0.5s-0.5-0.2-0.5-0.5
	s0.2-0.5,0.5-0.5S27.8,15.9,27.8,16.2z M32.6,19.6c-0.3,0-0.5-0.3-0.5-0.5c0-0.3,0.3-0.5,0.5-0.5c0.3,0,0.5,0.3,0.5,0.5
	C33.1,19.4,32.8,19.6,32.6,19.6z M5.4,33.8c-0.3,0-0.5-0.2-0.5-0.5s0.2-0.5,0.5-0.5c0.3,0,0.5,0.2,0.5,0.5S5.7,33.8,5.4,33.8z
	 M20.1,31.4c0,0.3-0.3,0.5-0.5,0.5c-0.3,0-0.5-0.2-0.5-0.5c0-0.3,0.2-0.5,0.5-0.5C19.8,30.9,20.1,31.1,20.1,31.4z M20.9,21.4
	c0-0.3,0.2-0.5,0.5-0.5c0.3,0,0.5,0.2,0.5,0.5c0,0.2-0.2,0.5-0.5,0.5C21.1,21.9,20.9,21.7,20.9,21.4z M23,39.4
	c0,0.3-0.3,0.5-0.5,0.5S22,39.7,22,39.4c0-0.3,0.2-0.5,0.5-0.5S23,39.1,23,39.4z M26,22.4c0.3,0,0.5,0.2,0.5,0.5
	c-0.1,0.3-0.3,0.5-0.5,0.5c-0.3,0-0.5-0.2-0.5-0.5C25.5,22.6,25.7,22.4,26,22.4z M38.5,31.4c0.2,0,0.5,0.2,0.5,0.5
	c0,0.3-0.2,0.5-0.5,0.5S38,32.2,38,31.9C38,31.6,38.2,31.4,38.5,31.4z"/>
<path class="st0" d="M30.4,28.2c0-0.2,0-0.3,0.2-0.3c0.5,0,0.9-0.1,1.4,0c0.4,0,0.7,0,1.2,0c0.1,0,0.3,0,0.4,0
	c2.2-0.1,4.1-1,5.7-2.6c2-2.1,2.8-4.6,2.6-7.5c-0.2-2.2-1-4.2-2.6-5.8c-2.4-2.3-5.2-3.1-8.4-2.3c-0.6,0.1-0.6,0.1-0.9-0.4
	c-2.3-3.5-5.4-5.5-9.7-5.3c-1.9,0-3.7,0.7-5.4,1.9c-2.6,1.8-4.1,4.3-4.8,7.4c-0.1,0.4-0.2,0.5-0.6,0.5c-1.3,0.1-2.6,0.5-3.7,1.3
	c-2.3,1.7-3.4,4.7-2.6,7.6C3.9,25.3,5.5,27,8,27.8C8.8,28,9.7,28,10.5,28c0.4,0,0.9-0.1,1.3,0c0.4-0.1,0.8,0,1.2,0
	c0.3,0,0.5,0,0.7,0c0.3,0,0.3,0.1,0.3,0.3c0,2.1,0,4.1,0,6.2c0,0.3-0.1,0.6-0.3,0.8c-0.5,0.5-1.1,1.1-1.7,1.7
	c-0.2,0.1-0.3,0.2-0.5,0.1c-0.7-0.2-1.3,0-1.7,0.5c-0.4,0.5-0.5,1.1-0.2,1.7c0.3,0.8,1.2,1.1,2,0.8c0.8-0.2,1.2-1.1,1-1.9
	c-0.1-0.2,0-0.4,0.1-0.5c0.6-0.6,1.1-1.2,1.7-1.7c0.5-0.5,0.7-1.1,0.7-1.8c0-2,0-4.1,0-6.1c0-0.1-0.1-0.3,0.2-0.3
	c1.3,0,2.5-0.1,3.7,0c0.3-0.1,0.7-0.1,1.1,0c0.6-0.1,1.2-0.1,1.8,0c0.3-0.1,0.7-0.1,1.1,0c0.1,0,0.2,0,0.3,0c0.9,0,1.8,0,2.7,0
	c0.2,0,0.3,0,0.3,0.3c0,1.3,0,2.6,0,3.9c0,0.2-0.1,0.4-0.3,0.5c-0.7,0.5-1,1.4-0.6,2.1c0.4,0.7,1.2,1.1,2,0.8c0.6-0.2,1-0.7,1.1-1.3
	c0.1-0.7-0.2-1.2-0.8-1.6c-0.1-0.1-0.2-0.1-0.2-0.3c0-1.3,0-2.7,0-4.1c0-0.1,0-0.2,0.2-0.2c0.4,0,0.7,0,1.1,0c0.3,0,0.4,0.1,0.4,0.4
	c0,1.7,0,3.3,0,4.9c0.1,0.8,0.4,1.4,1,1.8c0.6,0.4,1.3,0.9,2,1.3c0.2,0.1,0.3,0.3,0.3,0.6c0,0.9,0.8,1.7,1.8,1.6
	c0.7-0.1,1.2-0.5,1.4-1.2s0-1.3-0.5-1.7c-0.5-0.5-1.2-0.5-1.8-0.2c-0.2,0.1-0.3,0.1-0.4,0c-0.7-0.5-1.5-1-2.2-1.5
	c-0.3-0.2-0.4-0.5-0.4-0.8c0-0.7,0-1.4,0-2.1C30.4,30.1,30.4,29.1,30.4,28.2z M11,39.1c-0.3,0-0.4-0.2-0.5-0.5
	c0-0.2,0.2-0.4,0.4-0.4c0.3,0,0.5,0.2,0.5,0.5C11.4,38.9,11.3,39.1,11,39.1z M34.1,36.3c0.3,0,0.5,0.3,0.5,0.5
	c0,0.3-0.2,0.5-0.5,0.4c-0.3,0.1-0.5-0.1-0.5-0.4S33.9,36.3,34.1,36.3z M17.5,15.6c0.3,0,0.5,0.2,0.4,0.4c0,0.3-0.2,0.5-0.5,0.5
	C17.2,16.4,17,16.2,17,16S17.2,15.6,17.5,15.6z M26.9,34.4c-0.2,0-0.4-0.2-0.4-0.5c0-0.2,0.2-0.4,0.5-0.4c0.2,0,0.4,0.3,0.4,0.5
	C27.4,34.3,27.1,34.5,26.9,34.4z M27,26.7c-0.1,0-0.2,0-0.3,0c-0.4,0-0.8,0-1.2,0c-1.1,0-2.3,0-3.4,0c-0.4,0-0.8,0-1.2,0
	c-0.3,0-0.6,0-0.9,0c-3.5,0-6.9,0-10.4,0c-2.4,0-4.4-1.9-5-4c-0.2-0.3-0.3-0.7-0.3-1.1c0-0.5-0.1-0.9,0-1.4c0-0.2,0-0.2,0.2-0.2
	c1.3,0,2.7,0,4,0c0.2,0,0.2,0.1,0.3,0.1c0.4,0.7,1.1,1,1.8,0.8c0.7-0.1,1.2-0.7,1.3-1.4c0.1-0.7-0.3-1.4-0.9-1.7
	c-0.8-0.4-1.8-0.1-2.2,0.7c-0.1,0.2-0.2,0.2-0.4,0.2c-1.2,0-2.4,0-3.6,0c-0.3,0-0.3-0.1-0.2-0.3c0.8-2.1,2.8-3.6,5.1-3.6
	c0.8,0,1.4-0.5,1.6-1.4c0.5-2.2,1.5-4.2,3.2-5.8h0.1c0.4-0.4,0.8-0.7,1.2-0.9c0.3-0.3,0.7-0.5,1.1-0.7v0.5c0,1.8,0,3.5,0,5.3
	c0,0,0,0,0,0v1c0,0,0,0,0,0c0,0.3,0,0.7,0,1c0.1,0.4,0,0.7-0.4,1c-0.6,0.5-0.7,1.3-0.4,2c0.3,0.7,1.1,1.1,1.8,0.9
	c0.8-0.2,1.3-0.9,1.3-1.6c0-0.6-0.2-1.1-0.8-1.4c-0.2-0.1-0.2-0.2-0.2-0.4c0-2.8,0-5.6,0-8.4c0-0.4,0.3-0.4,0.6-0.4
	c0.3-0.1,0.7-0.2,1.1-0.2c1-0.1,1.9-0.1,2.8,0.1c1.5,0.3,2.9,0.9,4.1,1.9l0.1,0.1c0.5,0.3,0.9,0.7,1.2,1.1c0.5,0.5,0.8,1.1,1.2,1.7
	c0.4,0.6,1.1,0.9,1.8,0.7c3.8-1.3,7.6,0.8,9.1,4.2c0.2,0.4,0.4,0.9,0.5,1.4c0,0.3,0,0.4-0.3,0.4c-0.4,0-0.8,0-1.2,0
	c-0.4,0-0.7-0.1-0.9-0.4c-0.1-0.1-0.2-0.3-0.4-0.4c-0.2-0.1-0.3-0.3-0.2-0.6c0.2-0.8-0.4-1.7-1.2-1.9c-0.9-0.2-1.8,0.3-2,1.2
	c-0.2,0.9,0.3,1.8,1.2,2c0.3,0.1,0.6,0.1,0.9,0c0.2-0.1,0.3,0,0.4,0.1c1.3,1.4,1.5,1.2,3.1,1.2c0.1,0,0.2,0,0.4,0
	c0.5,0,0.5,0,0.4,0.5c0,0.4,0,0.8-0.1,1.2c0.1,0.4-0.1,0.9-0.2,1.3c-0.1,0.2-0.2,0.2-0.3,0.2c-0.7,0-1.4,0-2.1,0
	c-0.9,0-1.7,0.2-2.3,0.9c-0.3,0.2-0.5,0.3-0.9,0.2c-0.8-0.3-1.7,0.3-1.9,1.2c-0.2,0.9,0.4,1.8,1.3,2c0.8,0.1,1.7-0.4,1.9-1.3
	c0.1-0.2,0.1-0.5,0-0.7c-0.1-0.2,0-0.3,0.1-0.4c1-0.9,0.6-0.8,2.1-0.8c0.4,0,0.8,0,1.2,0c0.3,0,0.3,0.1,0.2,0.3
	c-0.6,1.2-1.5,2.2-2.7,2.9c-1.2,0.7-2.6,1.1-4,1.1C31.2,26.7,29.1,26.7,27,26.7z M9.7,19.5c0-0.3,0.2-0.5,0.5-0.5s0.5,0.3,0.5,0.5
	s-0.2,0.4-0.5,0.4C10,19.9,9.8,19.7,9.7,19.5z M36.5,15.2c0,0.3-0.2,0.5-0.5,0.5c-0.2,0-0.5-0.3-0.5-0.5c-0.1-0.3,0.1-0.5,0.5-0.5
	C36.3,14.7,36.5,14.9,36.5,15.2z M35.1,24c0,0.2-0.2,0.4-0.5,0.5c-0.3,0-0.5-0.2-0.5-0.5s0.3-0.5,0.5-0.5
	C34.9,23.5,35.1,23.7,35.1,24z"/>
</svg>
