<?xml version="1.0" encoding="utf-8"?>
<!-- Generator: Adobe Illustrator 22.0.1, SVG Export Plug-In . SVG Version: 6.00 Build 0)  -->
<svg version="1.1" id="Layer_1" xmlns="http://www.w3.org/2000/svg" xmlns:xlink="http://www.w3.org/1999/xlink" x="0px" y="0px"
	 viewBox="0 0 45 45" style="enable-background:new 0 0 45 45;" xml:space="preserve">
<g>
	<path d="M7,21.7c0.1-0.1,0.1-0.3,0.1-0.4C7.3,20,7.6,18.8,8,17.6c0.3-0.8,0.7-1.6,1.1-2.4c0.1-0.2,0.2-0.4,0.1-0.6
		c0-0.1-0.1-0.1-0.2-0.2c-0.1-0.1-0.2-0.1-0.3-0.1c-0.1,0-0.1,0-0.2,0.1c-0.1,0.1-0.2,0.2-0.3,0.3c-0.5,1-1,2-1.4,3.1
		c-0.4,1.1-0.7,2.3-0.8,3.6c0,0.1,0,0.2,0,0.3c0.4,0.1,0.5,0.2,0.6,0.2C6.8,21.9,6.9,21.9,7,21.7z"/>
	<path d="M9.5,11.5c0.6-0.1,1.2-0.2,1.8-0.4c0.1,0,0.1,0,0.2,0h0.1c0.1-0.1,0.2-0.1,0.2-0.3v-0.1c0,0,0-0.1-0.1-0.1
		c-0.1-0.1-0.3-0.2-0.5-0.1c-0.8,0.2-1.7,0.4-2.5,0.5c-0.3,0-0.3,0.2-0.3,0.4v0.1c0.1,0.1,0.2,0.2,0.3,0.2C9,11.6,9.2,11.6,9.5,11.5
		z"/>
	<path d="M12.5,12.8c-0.2,0.3-0.3,0.6-0.5,0.8c-0.2,0.3-0.4,0.6-0.6,1c-0.1,0.2-0.4,0.4-0.1,0.6c0.2,0.1,0.4,0.1,0.5,0
		c0.1,0,0.1-0.1,0.2-0.2c0.4-0.6,0.8-1.3,1.1-1.9c0,0,0,0,0-0.1v-0.1c0,0,0,0,0-0.1c0-0.1,0-0.2-0.1-0.3c0,0-0.1-0.1-0.2-0.1
		C12.7,12.5,12.6,12.6,12.5,12.8z"/>
	<path d="M13.9,6.4c0,0.2,0.1,0.3,0.1,0.5c0,0,0,0,0,0.1c0.1,0.2,0.2,0.3,0.4,0.2c0.1,0,0.2-0.1,0.2-0.2V6.9V6.8
		c-0.1-0.5-0.1-0.9-0.2-1.4V5.3c-0.1-0.5-0.2-0.9-0.2-1.4c0-0.1-0.1-0.3-0.2-0.4c-0.1,0-0.1,0-0.2,0c-0.1,0-0.1,0-0.1,0
		c-0.2,0.2-0.2,0.4-0.2,0.6c0.1,0.4,0.1,0.7,0.2,1.1C13.8,5.6,13.8,6,13.9,6.4z"/>
	<path d="M25.2,28.3c1.5-0.3,2.4-1.2,2.8-2.7c0.2-0.7,0.2-1.5,0.1-2.3c-0.2-0.2-0.3-0.5-0.7-0.5c-0.4,0-1,0.2-1.2-0.1
		s-0.1-0.9-0.1-1.3c0-0.1,0-0.2,0-0.4c0-0.6-0.4-0.6-0.8-0.6c-0.4,0-0.7,0.1-0.6,0.6c0,0.5,0,0.9,0,1.4c0,0.2,0,0.4-0.3,0.5
		c-0.6,0.2-1.1-0.2-1.1-0.8c0-0.3,0-0.7,0-1c0-0.5-0.2-0.7-0.6-0.7c-0.4,0-0.7,0.2-0.7,0.7c0,0.4,0,0.7,0,1.1
		c0.1,0.5-0.1,0.7-0.7,0.7c-0.9,0-1.1,0.2-1.2,1.1c0,0.4,0,0.8,0,1.1c0.2,1.4,0.8,2.4,2.1,3c0.5,0.2,1.3-0.1,1.5,0.6
		c0.2,0.6,0.1,1.2,0.1,1.8c0,0.1,0,0.2,0,0.3c0,2.1,0.2,4.2,0,6.3c0,0.3-0.1,0.6-0.1,0.9c-0.4,1.9-1.3,2.5-3.2,2.1
		c-0.7-0.1-1.3-0.3-2-0.6c-0.3-0.1-0.5-0.2-0.8-0.3c-2.3-0.9-4.3-2.2-6.1-3.7c-0.3-0.2-0.6-0.6-0.9-0.1c-0.3,0.4,0.1,0.7,0.4,0.9
		c2.1,1.6,4.4,3,6.9,4c0.8,0.2,1.7,0.5,2.5,0.6c2.2,0.5,3.6-0.5,4.1-2.7c0.2-1,0.3-2,0.3-3c0-2.1-0.1-4.3-0.2-6.4
		C24.7,28.5,24.7,28.4,25.2,28.3z"/>
	<path d="M15.1,32.6c-1.6-1.4-3.4-2.2-5.4-2.7c-0.2,0-0.3-0.1-0.4-0.1c-0.4-0.1-0.4-0.3-0.2-0.9c0.3-0.7,0.4-1.5,0.4-2.2
		c0-1-0.3-2-0.9-3c0-0.1-0.1-0.3-0.2-0.3H8.3c-0.2,0-0.2,0.2-0.2,0.3v0.1c-0.5,1.8-0.5,3.6-0.2,5.4c0,0.1,0,0.1,0,0.2
		c0,0.4-0.2,0.5-0.5,0.5c-0.7,0-1.4,0.1-2,0.3C4,30.6,2.8,31.4,2,32.7c0.2,0.2,0.4,0.1,0.5,0.1c1.9,0,3.6-0.6,5-1.8
		c0.4-0.3,0.7-0.2,0.7,0.3c0,0.1,0,0.2,0,0.2c0,0.1,0,0.2,0,0.3c0,1.3,0,2.5,0,3.8c0,0.2-0.1,0.4,0.2,0.4c0.1,0,0.2-0.1,0.3-0.1
		c0-0.1,0.1-0.1,0.1-0.2v-0.1c0-0.1,0-0.1,0-0.2c0-0.1,0-0.1,0-0.2c0-1.2,0-2.4,0-3.7v-0.1c0-0.2,0-0.3,0.1-0.4c0,0,0.1,0,0.1-0.1
		c0.3-0.1,0.4,0.2,0.5,0.3c0.3,0.3,0.7,0.6,1.1,0.8C11.9,32.7,13.4,32.9,15.1,32.6z"/>
	<path d="M36.8,16.2c0,0.3-0.1,0.7,0.3,0.7c0.4,0,0.3-0.4,0.3-0.7c0-0.9,0.1-1.8,0.1-2.6c0-0.4,0.1-0.6,0.6-0.5
		c0.5,0.2,1.1,0.1,1.6-0.2c1.2-0.6,1.9-1.6,2.6-2.7c-2.2-0.8-4.3,0-5.2,1.9c-0.5-1-0.6-1.1-1.5-1.6c-1.2-0.4-2.4-0.4-3.6-0.1
		c0.5,1.1,1.4,2,2.3,2.7c0.8,0.5,1.7,0.4,2.5,0C36.8,14.2,36.8,15.2,36.8,16.2z M35.3,11.7c0.2,0,0.4,0.1,0.6,0.2
		C35.6,12,35.5,11.8,35.3,11.7z"/>
	<path d="M12.5,11c0.1,0.5,0.3,0.8,0.6,1.1c0.4,0.4,1.1,0.7,2,0.7c0.3,0,0.5,0,0.8-0.1c0.4-0.1,0.8-0.3,1.1-0.6
		c0.3-0.3,0.6-0.8,0.7-1.3c0-0.2,0.1-0.4,0.1-0.6c0-1.1-0.7-2.1-1.7-2.5c-0.3-0.1-0.6-0.2-0.9-0.2c-1.4,0-2.7,1.2-2.6,2.7
		C12.3,10.5,12.4,10.7,12.5,11z"/>
	<path d="M21.5,6.8c1.6-0.2,3.2-0.2,4.8,0c2,0.2,3.8,0.7,5.6,1.6c0.3,0.1,0.7,0.4,0.9,0c0-0.1,0-0.1,0.1-0.2C33,8.1,33,8,33,8
		c-0.1-0.2-0.4-0.3-0.6-0.4c-2.5-1.3-5.2-1.8-8.2-1.9c-0.8,0-1.8,0-2.8,0.2C21.2,6,20.8,6,20.8,6.3c0,0,0,0.1,0,0.2s0.1,0.1,0.1,0.2
		C21,6.9,21.3,6.8,21.5,6.8z"/>
	<path d="M15.7,13.4c0,0-0.1,0-0.2,0s-0.1,0-0.2,0.1c-0.1,0.1-0.1,0.2-0.1,0.3c0,0.2,0.1,0.5,0.1,0.7c0.1,0.5,0.1,1,0.2,1.5
		c0,0.1,0,0.2,0.1,0.3c0.1,0.2,0.2,0.3,0.4,0.3s0.2-0.1,0.3-0.2c0-0.1,0-0.1,0-0.2c-0.1-0.8-0.3-1.6-0.4-2.4v-0.1
		C15.9,13.5,15.9,13.5,15.7,13.4C15.7,13.5,15.7,13.5,15.7,13.4z"/>
	<path d="M21.1,9.3h0.1c0.2-0.1,0.3-0.2,0.3-0.4c0-0.2-0.2-0.3-0.4-0.2c-0.1,0-0.1,0-0.2,0c-0.8,0.1-1.6,0.3-2.4,0.4
		c-0.2,0-0.3,0.1-0.3,0.2c0,0,0,0.1,0,0.2c0,0.2,0.2,0.3,0.3,0.3c0.2,0,0.3-0.1,0.5-0.1c0.5-0.1,1.1-0.2,1.6-0.3
		C20.8,9.4,21,9.3,21.1,9.3z"/>
	<path d="M18,11.9c0,0-0.1,0-0.1-0.1c-0.1,0.1-0.2,0.1-0.3,0.2c0,0.1,0,0.2,0,0.2c0,0.1,0.1,0.1,0.1,0.1l0.1,0.1
		c0.3,0.2,0.6,0.4,0.9,0.6s0.6,0.4,0.9,0.6c0.1,0.1,0.3,0.2,0.4,0.1c0.1,0,0.1,0,0.2-0.1c0.1-0.1,0.1-0.2,0.1-0.3
		c-0.2,0-0.3,0-0.4-0.1c-0.5-0.4-1.1-0.8-1.6-1.1C18.2,12,18.1,12,18,11.9z"/>
	<path d="M16.8,7.6C16.9,7.6,16.9,7.6,16.8,7.6c0.1,0,0.2,0,0.2,0h0.1c0.5-0.7,1-1.4,1.5-2.1c0.1-0.1,0-0.3-0.1-0.4
		c-0.1-0.1-0.2-0.1-0.3,0l-0.1,0.1c-0.3,0.4-0.6,0.8-0.9,1.2c-0.2,0.2-0.4,0.5-0.5,0.7c-0.1,0.1-0.1,0.2-0.1,0.3
		C16.6,7.5,16.7,7.6,16.8,7.6z"/>
	<path d="M11.9,8.4c0.2,0.1,0.4,0.1,0.5-0.1c0.1-0.2,0-0.4-0.2-0.5c-0.5-0.3-1-0.6-1.4-0.9c-0.2-0.1-0.4-0.3-0.6-0.3s-0.3,0-0.3,0.1
		C9.8,6.8,9.8,7,10,7.2C10.6,7.6,11.2,8.1,11.9,8.4z"/>
	<path d="M42.9,32.1c-0.6-1.4-1.6-2.5-2.7-3.5c-0.2-0.2-0.3-0.2-0.6,0c-1.3,1.1-2.5,2.3-3.1,4c-0.7,2.2,0.9,4.3,3.2,4.3
		C42.1,36.8,43.8,34.4,42.9,32.1z M41,35.4c0.5-0.5,0.7-0.9,1-1.4C42.1,34.6,41.9,35,41,35.4z"/>
	<path d="M41.4,26.3c0.4,0,0.5-0.3,0.5-0.6C42,25,42,24.3,42,23.6c0-2.5-0.5-4.9-1.5-7.2c-0.1-0.3-0.2-0.9-0.7-0.7s-0.2,0.6-0.1,1
		c0.4,1,0.7,2,1,3c0.5,1.9,0.6,3.9,0.3,5.8C41,25.9,41,26.2,41.4,26.3z"/>
	<path d="M34.5,37.1c-0.9,0.7-1.9,1.3-3,1.8c-1.6,0.8-3.3,1.3-5,1.6c-0.3,0-0.5,0.2-0.5,0.5s0.3,0.4,0.6,0.4
		c3.1-0.5,5.9-1.7,8.4-3.6c0.2-0.2,0.3-0.4,0.1-0.6C35,36.9,34.8,36.9,34.5,37.1z"/>
</g>
</svg>
