<?xml version="1.0" encoding="utf-8"?>
<!-- Generator: Adobe Illustrator 22.0.1, SVG Export Plug-In . SVG Version: 6.00 Build 0)  -->
<svg version="1.1" id="Layer_1" xmlns="http://www.w3.org/2000/svg" xmlns:xlink="http://www.w3.org/1999/xlink" x="0px" y="0px"
	 viewBox="0 0 45 45" style="enable-background:new 0 0 45 45;" xml:space="preserve">
<g>
	<polygon points="34.5,15.4 23.1,15.4 23.1,11.7 24.9,11.7 24.9,7.1 23.1,7.1 23.1,5.7 21.9,5.7 21.9,15.4 10.5,15.4 10.5,17.7 
		34.5,17.7 	"/>
	<polygon points="28.5,10.5 29.7,8.3 26.2,8.3 26.2,12.8 29.7,12.8 	"/>
	<path d="M36.9,38.3V19H8.1v19.3H5.9v1h33.3v-1H36.9z M16.7,26.2h-0.1v12.2h-1.3V26.2H13v12.2h-1.3V26.2v-1.3H13h2.4h1.3V26.2z
		 M25,26.2v12.2h-1.3V26.2h-2.4v12.2H20V26.2v-1.3h1.3h2.4H25V26.2z M33.3,26.2v12.2H32V26.2h-2.4v12.2h-1.3V26.2v-1.3h1.3H32h1.3
		V26.2z"/>
</g>
</svg>
