<?xml version="1.0" encoding="utf-8"?>
<!-- Generator: Adobe Illustrator 22.0.1, SVG Export Plug-In . SVG Version: 6.00 Build 0)  -->
<svg version="1.1" id="Layer_1" xmlns="http://www.w3.org/2000/svg" xmlns:xlink="http://www.w3.org/1999/xlink" x="0px" y="0px"
	 viewBox="0 0 45 45" style="enable-background:new 0 0 45 45;" xml:space="preserve">
<path d="M39.4,28c-0.7-0.3-1.4-0.6-2.1-0.8c-0.5-0.2-1-0.3-1.5-0.4c0,0-0.1-0.1-0.2-0.1c-1.9-0.9-3.8-1.5-5.8-1.9
	c-0.1,0-0.2-0.1-0.2-0.2c0-0.5,0-1,0-1.5c0-2.1,0-4.2,0-6.3c0-0.1,0-0.1,0.1-0.2c0.2,0.2,0.3,0.4,0.5,0.5c0.1,0.1,0.1,0.1,0.3,0
	c0.5-0.5,1.1-1,1.6-1.5c0.2-0.2,0.2-0.2,0-0.4c-1.1-1-2.1-2.1-3.2-3.1c-0.1-0.1-0.2-0.2-0.2-0.4c0-1.2,0-2.4,0-3.6
	c0-0.1,0-0.2-0.2-0.2c-0.9,0-1.8,0-2.6,0c-0.1,0-0.2,0-0.2,0.2c0,0.3,0,0.6,0,1c-0.1-0.1-0.2-0.2-0.2-0.2c-0.9-0.9-1.9-1.8-2.8-2.7
	c-0.1-0.1-0.2-0.1-0.3,0c-0.4,0.4-0.7,0.7-1.1,1.1c-1.4,1.4-2.9,2.8-4.3,4.2c-1.4,1.3-2.7,2.6-4.1,4c-0.1,0.1-0.1,0.2,0,0.3
	c0.5,0.5,1,1,1.5,1.5c0.2,0.2,0.2,0.2,0.5,0c0.2-0.2,0.3-0.3,0.5-0.5c0,0.1,0,0.1,0,0.1c0,2.7,0,5.4,0,8.1c0,0.2-0.1,0.2-0.2,0.2
	c-1.4,0.3-2.8,0.8-4.1,1.3c-0.6,0.3-1.3,0.5-1.9,0.9c0,0.1-0.1,0-0.1,0c-0.1,0.1-0.2,0-0.2,0.1C8,27.7,7.1,28,6.3,28.4
	c-0.6,0.2-1.1,0.5-1.6,0.8c0.7,1.3,1.6,2.4,2.6,3.5c3.8,4.1,8.4,6.3,13.9,6.6c2,0.1,4.1-0.1,6.1-0.6c4.7-1.2,8.4-3.7,11.4-7.5
	c0.6-0.8,1.1-1.6,1.6-2.4C40,28.3,39.7,28.2,39.4,28z M22.3,21.7c0,0.1-0.1,0.2-0.2,0.2c-0.3,0-0.7,0-1,0c-0.3,0-0.7,0-1,0
	c-0.1,0-0.2,0-0.2-0.2c0.1-0.6,0.1-1.2,0.1-1.8c0-0.1,0-0.1,0.1-0.1c0.7,0,1.4,0,2.1,0c0.1,0,0.1,0.1,0.1,0.2
	C22.3,20.6,22.3,21.2,22.3,21.7z M22.4,19c0,0.1-0.1,0.2-0.2,0.2c-0.3,0-0.7,0-1,0s-0.7,0-1,0c-0.1,0-0.2,0-0.2-0.2
	c0-0.5,0-1.1,0-1.7c0-0.1,0-0.2,0.2-0.2c0.7,0,1.4,0,2,0c0.1,0,0.2,0,0.2,0.2C22.4,17.9,22.4,18.5,22.4,19z M25.2,19.9
	c0,0.6,0,1.2,0,1.8c0,0.1,0,0.1-0.1,0.1c-0.7,0-1.4,0-2.1,0c0,0.1-0.1,0-0.1-0.1c0-0.6,0-1.2,0-1.8c0-0.1,0.1-0.1,0.2-0.1
	c0.3,0,0.7,0,1,0c0.3,0,0.7,0,1,0C25.2,19.8,25.3,19.8,25.2,19.9z M25.3,19.1c0,0.1,0,0.2-0.2,0.2c-0.3,0-0.7,0-1,0
	c-0.3,0-0.7,0-1,0c-0.1,0-0.2,0-0.2-0.2c0-0.6,0-1.2,0-1.7c0-0.2,0.1-0.2,0.2-0.2c0.7,0,1.4,0,2,0c0.1,0,0.2,0,0.2,0.2
	C25.3,18,25.3,18.6,25.3,19.1z"/>
</svg>
