<?xml version="1.0" encoding="utf-8"?>
<!-- Generator: Adobe Illustrator 22.0.1, SVG Export Plug-In . SVG Version: 6.00 Build 0)  -->
<svg version="1.1" id="Layer_1" xmlns="http://www.w3.org/2000/svg" xmlns:xlink="http://www.w3.org/1999/xlink" x="0px" y="0px"
	 viewBox="0 0 45 45" style="enable-background:new 0 0 45 45;" xml:space="preserve">
<g>
	<path d="M6.7,24.4h31.5c0.2,0,0.4-0.1,0.6-0.3c0.1-0.2,0.2-0.4,0.1-0.6L32.5,6.2c-0.1-0.3-0.4-0.5-0.7-0.5h-19
		c-0.3,0-0.6,0.2-0.7,0.5l-6,17.3c-0.1,0.2,0,0.5,0.1,0.6C6.3,24.3,6.5,24.4,6.7,24.4z M37.3,23h-9.2l-0.8-8.1h7L37.3,23z M31.4,7.2
		l2.3,6.3h-6.6l-0.6-6.3H31.4z M19.8,7.2H25l0.6,6.3h-6.5L19.8,7.2z M25.8,14.9l0.8,8.1h-8.5l0.8-8.1H25.8z M13.3,7.2h5.1l-0.6,6.3
		h-6.7L13.3,7.2z M10.6,14.9h7L16.8,23H7.7L10.6,14.9z"/>
	<path d="M38.3,32.7h-8.8c-0.4,0-0.7,0.3-0.7,0.7c0,0.4,0.3,0.7,0.7,0.7h8.8c0.4,0,0.7-0.3,0.7-0.7C39,33,38.7,32.7,38.3,32.7z"/>
	<path d="M15.5,32.7H6.7C6.3,32.7,6,33,6,33.4c0,0.4,0.3,0.7,0.7,0.7h8.8c0.4,0,0.7-0.3,0.7-0.7C16.2,33,15.9,32.7,15.5,32.7z"/>
	<path d="M23.1,28.5c0.2-0.4,0-0.8-0.3-0.9c-0.4-0.2-0.8,0-0.9,0.3L19,34.1h4.8l-2,4.1c-0.2,0.3,0,0.8,0.3,0.9
		c0.1,0.1,0.2,0.1,0.3,0.1c0.3,0,0.5-0.1,0.6-0.4l3.1-6.1h-4.9L23.1,28.5z"/>
</g>
</svg>
