<?xml version="1.0" encoding="utf-8"?>
<!-- Generator: Adobe Illustrator 22.0.1, SVG Export Plug-In . SVG Version: 6.00 Build 0)  -->
<svg version="1.1" id="Layer_1" xmlns="http://www.w3.org/2000/svg" xmlns:xlink="http://www.w3.org/1999/xlink" x="0px" y="0px"
	 viewBox="0 0 45 45" style="enable-background:new 0 0 45 45;" xml:space="preserve">
<g>
	<path d="M43.6,17c0-1.8,0-1.7-1.7-1.9c-0.1,0-0.1-0.1-0.2-0.2c0-0.5,0-1,0-1.5c0.1-1-0.2-1.6-1.3-1.7c-0.2,0-0.6-0.4-0.7-0.7
		c-0.3-2-0.3-2-2.4-2.1c-0.3,0-0.6,0-1,0c-5.3,0-10.4,0.7-14,5.6c-1.2-1.9-2.8-3.2-4.8-4.1C14.1,8.9,10.4,8.8,6.7,9
		C5.3,9,5.2,9.1,5.3,10.6c0,0.8-0.2,1.3-1.1,1.3c-0.8,0-0.9,0.4-0.9,1.1c0,0.7,0,1.4,0,2.1c-1.9,0.3-1.9,0.3-1.9,2.2
		c0,5.8,0,11.7,0,17.5c0,1,0.3,1.3,1.3,1.3c13.2,0,26.4,0,39.6,0c1,0,1.3-0.3,1.3-1.3C43.6,28.9,43.6,22.9,43.6,17z M5.2,12.7v1.1
		c0,5.7,0,11.4,0,17.1c0,0.9,0.1,1.2,1.1,1c3.9-0.7,7.7-0.4,11.4,1c0.3,0.1,0.7,0.3,1.1,0.4c-2.5-0.3-5-0.7-7.4-0.7
		c-2.4-0.1-4.8,0.2-7.3,0.4c0-0.3,0-0.6-0.1-0.9c0-6.1,0-12.2,0-18.3C4.1,13.1,4.2,12.5,5.2,12.7z M18.5,35.2c-5,0-10.1,0-15.1,0
		c-0.9,0-1.2-0.2-1.2-1.2c0-5.6,0-11.1,0-16.7c0-0.2-0.1-0.5,0-0.6c0.1-0.2,0.4-0.4,0.5-0.6c0.2,0.2,0.5,0.4,0.5,0.6
		c0.1,0.8,0,1.6,0,2.3c0,4.7,0,9.4,0,14c0,0.9,0.2,1.1,1.2,1c4.7-0.9,9.4-1,14.1,0.4c0.3,0.1,0.7,0.2,1,0.4c0.1,0,0.1,0.1,0.4,0.4
		H18.5z M22,32.5v1.4c-5.1-2.8-10.3-3.8-15.9-2.9c0-0.4-0.1-0.7-0.1-1c0-6.3,0-12.7,0-19c0-0.8,0.2-1.2,1-1.2
		c3.1-0.1,6.2-0.1,9.1,1.1c1.3,0.5,2.6,1.3,3.7,2.1c1.4,1.1,2.2,2.5,2.1,4.5C22,22.5,22,27.5,22,32.5z M39.7,30.7
		c0-5.6,0-11.1,0-16.7c0-0.4,0-0.8,0-1.3c0.7-0.2,1.1-0.1,1.1,0.6c0,6.5,0,13,0,19.4c0,0.1-0.1,0.1-0.1,0.3
		c-4.8-0.7-9.6-0.9-14.4,0.4c2-1.1,4.2-1.7,6.4-1.8c1.9-0.1,3.9,0.1,5.8,0.2C39.7,32,39.7,32.1,39.7,30.7z M22.9,32.7
		c0-5.3,0-10.7,0-16c0-0.7,0.3-1.5,0.7-2.2c1.7-2.6,4.3-3.8,7.2-4.3c2.3-0.4,4.6-0.4,7-0.5c0.6,0,1.1,0.1,1.1,1c0,6.5,0,13,0,19.5
		c0,0.2,0,0.3-0.1,0.7C33.2,30.1,28,31.1,23,33.9C22.9,33.4,22.9,33.1,22.9,32.7z M42.7,34.7c0,0.1-0.1,0.2-0.1,0.4H25.2
		c0-0.1,0-0.3-0.1-0.4c1.8-0.4,3.5-0.9,5.3-1.1c3.4-0.5,6.7-0.2,10,0.4c1.1,0.2,1.2-0.2,1.2-1c0-5.2,0-10.4,0-15.6
		c0-0.4,0-0.8,0-1.2c0.6-0.2,1-0.2,1,0.6C42.7,22.8,42.7,28.7,42.7,34.7z"/>
	<path d="M7.4,29.3V15.6c-0.1,0-0.1,0-0.2,0v14H14c0-0.1,0-0.2,0-0.3H7.4z"/>
	<path d="M19.6,20.1c-1.6-2.3-7.3-4-10.2-2.9C13.4,17,16.7,17.6,19.6,20.1z"/>
	<path d="M9.8,15.7c4.8,0.3,5.2,0,9.8,3C18.5,16.8,13.2,14.9,9.8,15.7z"/>
	<path d="M9.8,25.4c1.5,0.1,3.3-0.1,5,0.3c1.7,0.4,3.3,1.2,4.7,1.8C18,25.3,11.7,24.4,9.8,25.4z"/>
	<path d="M19.5,17.6c-1.5-2.4-7.5-4.3-9.9-3.1C13.4,14.3,16.7,15,19.5,17.6z"/>
	<path d="M9.7,18.6c3.7-0.3,7.1,0.3,9.9,2.8C17.9,19,12.3,17.5,9.7,18.6z"/>
	<path d="M9.7,22.7c3.6-0.4,7,0.2,10,2.5C16.8,22.6,13.4,22,9.7,22.7z"/>
	<path d="M9.6,20c3.8-0.4,7.1,0.3,10,2.7C18.2,20.4,12.1,18.8,9.6,20z"/>
	<path d="M19.7,24c-1.7-2.3-6.9-3.6-10-2.6C13.3,21,16.7,21.6,19.7,24z"/>
	<path d="M9.7,24.2c3.6-0.5,7,0,10.1,2.3C17.8,24.2,12.2,22.9,9.7,24.2z"/>
	<path d="M24.1,31.1V19h-0.2v12.5c2.7-0.8,5.4-1.5,8-2.2c0,0,0-0.1,0-0.1C29.4,29.8,26.8,30.4,24.1,31.1z"/>
	<path d="M25.2,27.9c3-2.4,6.5-2.8,10-2.4C32,24.4,26.3,25.8,25.2,27.9z"/>
	<path d="M25.5,18.6c1.3-0.7,2.8-1.7,4.5-2.2c1.7-0.5,3.5-0.5,5.1-0.7C32.1,14.9,26.8,16.6,25.5,18.6z"/>
	<path d="M35.2,20c-3-1-8.6,0.5-9.9,2.7C28.2,20.3,31.6,19.6,35.2,20z"/>
	<path d="M35.3,22.8c-2.9-1.1-8.1,0.2-10,2.5C28.2,22.9,31.6,22.4,35.3,22.8z"/>
	<path d="M34.9,14.2c-1.7-0.7-7.6,0.5-9.5,3.1c1.4-0.7,2.9-1.7,4.5-2.2C31.6,14.5,33.4,14.5,34.9,14.2z"/>
	<path d="M25.3,20c2.8-2.4,6.2-3.1,9.8-3C31.4,16.6,28.1,17.4,25.3,20z"/>
	<path d="M35.2,21.4c-2.9-1-8.2,0.3-9.9,2.6C28.3,21.6,31.6,21,35.2,21.4z"/>
	<path d="M35.3,18.6c-3.1-1.1-9,0.7-10,3C28.2,18.9,31.6,18.3,35.3,18.6z"/>
	<path d="M25.4,26.2c1.4-0.6,3-1.4,4.7-1.8c1.7-0.4,3.5-0.3,5.1-0.4C32.4,23,27,24.2,25.4,26.2z"/>
</g>
</svg>
