<?xml version="1.0" encoding="utf-8"?>
<!-- Generator: Adobe Illustrator 22.0.1, SVG Export Plug-In . SVG Version: 6.00 Build 0)  -->
<svg version="1.1" id="Layer_1" xmlns="http://www.w3.org/2000/svg" xmlns:xlink="http://www.w3.org/1999/xlink" x="0px" y="0px"
	 viewBox="0 0 45 45" style="enable-background:new 0 0 45 45;" xml:space="preserve">
<path d="M34,35.4l-5.9-10.1c-0.2-0.3-0.6-0.4-0.9-0.2l-0.1,0.1l-2.3-3.9l0.1-0.1c0.4-0.4,0.8-0.8,1.1-1.2s0.6-0.9,0.8-1.4
	s0.4-1,0.6-1.5c0.1-0.5,0.2-1.1,0.3-1.6c0-0.5,0-1.1,0-1.6c-0.1-0.5-0.2-1.1-0.4-1.6s-0.4-1.1-0.7-1.5c-0.3-0.5-0.6-1-1-1.4
	c-0.4-0.4-0.8-0.8-1.2-1.1C24,7.8,23.5,7.5,23,7.2c-0.5-0.2-1-0.4-1.5-0.6c-0.5-0.1-1.1-0.2-1.6-0.3c-0.5,0-1.1,0-1.6,0
	c-0.5,0.1-1.1,0.2-1.6,0.4s-1.1,0.4-1.6,0.7c-0.5,0.3-1,0.6-1.4,1c-0.4,0.4-0.8,0.8-1.1,1.2C12.3,10,12,10.5,11.8,11s-0.4,1-0.6,1.5
	c-0.1,0.5-0.2,1.1-0.3,1.6c0,0.5,0,1.1,0,1.6c0.1,0.5,0.2,1.1,0.4,1.6s0.4,1.1,0.7,1.5c0.3,0.5,0.6,1,1,1.4c0.4,0.4,0.8,0.8,1.2,1.1
	c0.4,0.3,0.9,0.6,1.4,0.8c0.5,0.2,1,0.4,1.5,0.6c0.5,0.1,1.1,0.2,1.6,0.3c0.5,0,1.1,0,1.6,0c0.5-0.1,1.1-0.2,1.6-0.4
	c0.1,0,0.1,0,0.2-0.1l2.3,3.9l-0.1,0.1c-0.3,0.2-0.4,0.6-0.2,0.9L30,37.7c0.2,0.3,0.6,0.4,0.9,0.2l2.8-1.6
	C34.1,36.1,34.2,35.7,34,35.4z M22.9,21c-3.4,2-7.9,0.8-9.9-2.6c-2-3.4-0.8-7.9,2.6-9.9c3.5-2,7.9-0.8,9.9,2.6
	C27.5,14.5,26.3,19,22.9,21z"/>
</svg>
