<?xml version="1.0" encoding="utf-8"?>
<!-- Generator: Adobe Illustrator 22.0.1, SVG Export Plug-In . SVG Version: 6.00 Build 0)  -->
<svg version="1.1" id="Layer_1" xmlns="http://www.w3.org/2000/svg" xmlns:xlink="http://www.w3.org/1999/xlink" x="0px" y="0px"
	 viewBox="0 0 45 45" style="enable-background:new 0 0 45 45;" xml:space="preserve">
<g>
	<path d="M12.2,28.5c0.2-0.3,0.3-0.5,0.2-0.8c-0.1-0.3-0.4-0.5-0.6-0.7c-0.6-0.6-1.1-1.3-1.6-2c0,0,0,0,0-0.1
		C10,24.5,9.7,24,9.5,23.5C9.2,23,9,22.6,8.9,22.1c-0.1-0.2-0.2-0.5-0.2-0.7v-0.1c-0.1-0.2-0.1-0.4-0.2-0.6
		c-0.2-0.6-0.2-1.1-0.3-1.7c0-0.1,0-0.3,0-0.4c0-0.2,0-0.5,0-0.7c0-0.2,0-0.5,0-0.7c0-0.7,0-1.4,0.2-2.1c0.1-0.6,0.2-1.2,0.4-1.8
		c0.2-0.9,0.6-1.7,1-2.5c0.3-0.6,0.7-1.2,1.1-1.8c0.5-0.7,1-1.3,1.5-1.8C12.7,6.6,12.5,6,12,5.8h-0.1h-0.3C11.2,6,11,6.3,10.8,6.6
		c-0.2,0.2-0.4,0.5-0.6,0.7c-0.3,0.5-0.7,0.9-1,1.4c-0.3,0.6-0.7,1.2-1,1.8c-0.1,0.1-0.1,0.2-0.2,0.3c-0.1,0.2-0.2,0.5-0.3,0.7
		c-0.1,0.3-0.2,0.7-0.3,1C7,13.7,6.8,14.8,6.7,16c0,0.1,0,0.3-0.1,0.4v1.8c0,0.3,0.1,0.5,0.1,0.8c0.2,1.5,0.6,3,1.1,4.4v0.1
		C8,24,8.3,24.4,8.5,24.9c0.3,0.5,0.6,0.9,0.9,1.4c0.2,0.2,0.3,0.5,0.5,0.7c0.3,0.4,0.6,0.7,0.9,1.1c0.1,0.1,0.3,0.3,0.4,0.4
		C11.5,28.8,11.9,28.8,12.2,28.5z"/>
	<path d="M38.4,15.7c-0.2-2.1-0.8-4.1-1.8-6c-0.2-0.4-0.4-0.8-0.7-1.1c-0.3-0.4-0.6-0.9-0.9-1.3c-0.2-0.3-0.5-0.6-0.7-0.8
		c-0.1-0.1-0.2-0.2-0.4-0.4c-0.1-0.2-0.3-0.3-0.5-0.4h-0.3c-0.3,0.1-0.5,0.2-0.6,0.5s-0.1,0.5,0.1,0.7c0,0.1,0.1,0.1,0.1,0.2
		c0.2,0.2,0.4,0.4,0.6,0.7C34,8.4,34.4,9,34.8,9.6c0.1,0.1,0.1,0.2,0.2,0.3c0.2,0.2,0.3,0.4,0.4,0.7c0.3,0.5,0.5,1,0.6,1.5
		c0.4,0.9,0.6,1.8,0.8,2.8S37,17,37,18c-0.1,1.1-0.2,2.1-0.5,3.1c0,0.1,0,0.1-0.1,0.2c0,0.2-0.1,0.5-0.2,0.7c-0.2,0.5-0.4,1-0.6,1.4
		c-0.4,0.8-0.8,1.5-1.3,2.1c-0.4,0.6-0.8,1.1-1.3,1.6c-0.1,0.2-0.3,0.3-0.4,0.5c-0.1,0.3,0,0.5,0.2,0.7s0.4,0.3,0.7,0.3
		c0.1,0,0.2-0.1,0.3-0.2c0.4-0.4,0.8-0.9,1.2-1.3l0.1-0.1c0.3-0.5,0.6-0.9,0.9-1.4c0.2-0.3,0.3-0.5,0.5-0.8c0.2-0.5,0.5-0.9,0.7-1.4
		c0.5-1.1,0.8-2.3,1-3.5C38.5,18.6,38.5,17.1,38.4,15.7z"/>
	<path d="M33.6,38.3c-0.3-0.1-0.5,0-0.8,0h-2.1H30h-0.7h-0.7c-0.3,0-0.3,0-0.3-0.2c0-0.1,0-0.2,0-0.3c-0.1-0.6-0.2-1.1-0.3-1.7
		c0-0.1,0-0.3-0.1-0.5c-0.1-0.5-0.2-0.9-0.3-1.4c-0.1-0.5-0.2-1.1-0.3-1.6c0-0.2-0.1-0.3-0.1-0.5c-0.1-0.5-0.2-1.1-0.3-1.6
		c-0.2-0.8-0.3-1.7-0.5-2.5v-0.1c0,0,0,0,0-0.1c-0.1-0.5-0.2-1.1-0.3-1.6c0-0.1,0-0.3-0.1-0.4c0-0.2-0.1-0.5-0.1-0.7
		c-0.2-0.9-0.3-1.8-0.5-2.8c-0.2-0.8-0.3-1.6-0.5-2.5c0-0.2,0-0.2,0.2-0.3c1.3-0.4,2.1-1.3,2.3-2.6c0.2-0.7,0-1.4-0.3-2
		c-0.1-0.2-0.3-0.4-0.4-0.6c-0.3-0.3-0.7-0.6-1.1-0.8c-0.8-0.4-1.6-0.4-2.4-0.1c-0.1,0.1-0.2,0-0.2-0.1c0-0.1,0-0.2,0-0.4
		c0,0,0,0,0-0.1c0-0.1-0.1-0.3,0-0.4c0.1-0.1,0.3,0,0.4,0c0.1,0,0.1,0,0.2,0c0.4-0.2,0.4-0.8,0-0.9c-0.2,0-0.3,0-0.5,0
		c-0.1,0-0.1,0-0.1-0.1c0-0.2,0-0.3,0-0.5c0-0.1,0-0.2,0.1-0.2c0.1,0,0.3,0,0.4,0c0.2,0,0.5,0,0.7,0c0.3-0.1,0.4-0.2,0.5-0.5
		c0-0.3-0.2-0.4-0.5-0.5c-0.4,0-0.8,0-1.2,0c-0.1,0-0.1,0-0.1-0.1c0-0.2,0-0.3,0-0.5C22.9,9,22.9,9,23,9s0.2,0,0.4,0
		c0.2-0.1,0.4-0.3,0.4-0.5c0-0.3-0.2-0.4-0.4-0.4c-0.1,0-0.2,0-0.3,0c-0.1,0-0.2,0-0.2-0.2c0-0.4,0-0.7,0-1.1c0-0.3-0.2-0.5-0.5-0.5
		c-0.3,0-0.4,0.1-0.5,0.5c0,0.3,0,0.6,0,0.9c0,0.4,0,0.4-0.4,0.4c-0.3,0-0.5,0.1-0.5,0.4s0.1,0.4,0.3,0.6c0.1,0,0.2,0,0.3,0
		C22,8.7,22,8.8,22,9s0,0.3,0,0.5c0,0.1,0,0.1-0.1,0.1c-0.4,0-0.8,0-1.1,0c-0.4,0-0.4,0.1-0.5,0.5c0,0.4,0.2,0.5,0.5,0.5
		c0.2,0,0.5,0,0.7,0c0.1,0,0.3,0,0.4,0c0.1,0,0.2,0.1,0.1,0.2c0,0.2,0,0.3,0,0.5c0,0.1,0,0.1-0.1,0.1c-0.1,0-0.3,0-0.4,0
		c-0.2,0.1-0.3,0.2-0.3,0.4c0,0.3,0.2,0.6,0.5,0.6c0.4,0,0.4,0,0.4,0.4c0,0.3,0,0.6,0,0.8c0,0.2,0,0.3,0,0.5c0,0.1,0,0.2-0.1,0.2
		c-0.2-0.5-0.6-0.9-1.1-1.1c-0.2,0-0.5-0.1-0.7,0c-0.4,0.1-0.7,0.4-0.9,0.7c-0.3,0.4-0.4,0.9-0.4,1.4c-0.1,0.7,0.1,1.3,0.5,1.9
		l0.1,0.1c0.3,0.3,0.7,0.5,1.2,0.5c0.2,0,0.4-0.1,0.6-0.2c0.1-0.1,0.2-0.1,0.2,0.1c0,0.1,0.1,0.1,0.1,0.2c0.2,0.3,0.3,0.5,0.6,0.7
		H21l-0.3,0.1c-0.2,0.1-0.3,0.3-0.3,0.6s-0.1,0.6-0.2,0.8c0,0.2-0.1,0.5-0.1,0.7c-0.1,0.7-0.2,1.4-0.4,2.1c-0.1,0.5-0.2,0.9-0.3,1.4
		c-0.1,0.7-0.2,1.4-0.4,2.1c-0.1,0.5-0.2,0.9-0.3,1.4c-0.3,1.4-0.5,2.8-0.8,4.3c-0.1,0.7-0.3,1.4-0.4,2.1c0,0.2-0.1,0.5-0.1,0.7
		c0,0.1,0,0.2,0,0.2c0,0.2,0,0.3-0.1,0.5c-0.2,0.9-0.3,1.7-0.5,2.6c0,0.1-0.1,0.1-0.2,0.1c-1.4,0-2.8,0-4.1,0c-0.3,0-0.6,0-0.8,0
		c-0.4,0.2-0.4,0.7-0.1,0.9c0.1,0,0.2,0,0.3,0c7.1,0,14.3,0,21.4,0c0.1,0,0.2,0,0.3,0C33.9,38.9,34,38.5,33.6,38.3z M21,16.2
		c0,0.1-0.1,0.2-0.2,0.3c-0.3,0.3-0.6,0.3-0.8-0.1c-0.2-0.3-0.2-0.7-0.3-1c0-0.3,0.1-0.7,0.2-1c0.3-0.4,0.7-0.4,0.9,0
		C21.1,15,21.2,15.6,21,16.2z M26,31.9C26.1,31.8,26.1,31.9,26,31.9c0.1,0.3,0.2,0.5,0.2,0.8c0.1,0.2,0.1,0.5,0.1,0.7
		c0.1,0.5,0.2,0.9,0.3,1.4c0.2,0.8,0.3,1.5,0.5,2.3c-0.5-0.4-0.9-0.7-1.4-1.1c-0.2-0.1-0.3-0.2-0.5-0.4c-0.1-0.1-0.1-0.1-0.2-0.2
		c-0.2-0.2-0.5-0.4-0.7-0.5c-0.3-0.3-0.6-0.5-1-0.8c-0.1-0.1,0-0.1,0-0.1c0.5-0.4,1-0.8,1.5-1.2c0.3-0.2,0.5-0.4,0.8-0.6
		C25.7,32.1,25.9,32,26,31.9z M24.5,25.2c0.1,0.1,0.1,0.1,0,0.2c-0.6,0.5-1.2,1.1-1.9,1.6c-0.1,0.1-0.1,0.1-0.2,0
		c-0.1-0.1-0.2-0.2-0.3-0.3c-0.2-0.1-0.3-0.3-0.5-0.4c-0.4-0.3-0.8-0.7-1.1-1c-0.1-0.1,0-0.1,0-0.2c0.6-0.5,1.1-1.1,1.7-1.6
		c0.1-0.1,0.2-0.3,0.3-0.2c0.1,0,0.2,0.2,0.3,0.3C23.4,24.2,23.9,24.7,24.5,25.2z M23.3,22.6c0.3-0.3,0.6-0.6,1-1
		c0.1,0.8,0.3,1.6,0.4,2.4c-0.2-0.2-0.3-0.3-0.5-0.5c-0.3-0.3-0.6-0.6-0.9-0.8C23.3,22.7,23.2,22.6,23.3,22.6z M22.4,28.5
		c0,0,0.1-0.1,0.2,0c0.8,0.7,1.6,1.4,2.4,2.1c0.2,0.1,0.3,0.2,0.4,0.3c0.1,0.1,0,0.1,0,0.1c-0.4,0.3-0.7,0.6-1.1,0.9c0,0,0,0-0.1,0
		c-0.2,0.2-0.4,0.4-0.7,0.5c-0.3,0.3-0.7,0.6-1,0.8c-0.1,0-0.1,0-0.1,0c-0.3-0.3-0.6-0.5-1-0.8c-0.2-0.2-0.5-0.4-0.7-0.6
		c-0.3-0.2-0.5-0.4-0.8-0.6c-0.1-0.1-0.3-0.2-0.4-0.3c-0.1,0-0.1-0.1,0-0.2c0.2-0.1,0.3-0.2,0.4-0.4c0.6-0.5,1.2-1,1.7-1.5
		C22,28.9,22.2,28.7,22.4,28.5z M25,26.3L25,26.3c0.3,1.1,0.5,2.3,0.8,3.6c-0.1,0-0.1,0-0.2-0.1c-0.8-0.6-1.5-1.3-2.2-1.9
		c-0.1-0.1-0.1-0.1,0-0.2c0.1,0,0.1-0.1,0.2-0.2c0.2-0.2,0.4-0.4,0.6-0.5C24.5,26.8,24.7,26.5,25,26.3z M22.8,14.7
		c0.3-0.3,0.6-0.4,1-0.5c0.4-0.1,0.9-0.1,1.3,0c0.7,0.2,1.1,0.7,1.4,1.4c0.1,0.3,0.2,0.5,0.1,0.8c0,0.2,0,0.4-0.1,0.6
		c-0.1,0.3-0.2,0.5-0.5,0.7l-0.1,0.1c-0.2,0.2-0.4,0.3-0.7,0.4c-0.2,0.1-0.5,0.1-0.7,0.1s-0.5,0-0.7-0.1c-0.6-0.2-1.1-0.7-1.3-1.3
		c-0.1-0.2-0.1-0.4-0.1-0.6C22,15.8,22.3,15.2,22.8,14.7z M21,20.2c0-0.1,0-0.2,0.1-0.3v-0.1c0.1-0.3,0.1-0.3,0.4-0.3h0.7
		c0.5,0,1.1,0,1.6,0c0.1,0,0.1,0,0.1,0.1c0,0.1,0,0.2,0,0.3c0,0.1,0.1,0.3,0.1,0.4c0,0.1,0,0.1-0.1,0.1c-0.5,0.4-0.9,0.9-1.4,1.3
		c-0.1,0.1-0.1,0.1-0.2,0c-0.4-0.4-0.9-0.8-1.3-1.3C21,20.5,20.9,20.4,21,20.2z M20.7,21.7C20.8,21.6,20.8,21.7,20.7,21.7
		c0.4,0.3,0.7,0.6,1,0.9c0.1,0,0.1,0.1,0,0.2c-0.5,0.4-0.9,0.9-1.4,1.3C20.4,23.2,20.6,22.4,20.7,21.7z M19.4,28.9
		c0-0.2,0-0.3,0.1-0.5c0-0.2,0.1-0.5,0.1-0.7c0.1-0.5,0.2-1,0.3-1.5c0.2,0.2,0.4,0.4,0.7,0.6c0.3,0.3,0.7,0.6,1,0.9
		c0.2,0.1,0.2,0.1,0,0.3l-0.1,0.1c-0.4,0.4-0.9,0.7-1.3,1.1c0,0-0.1,0-0.1,0.1c-0.2,0.3-0.5,0.5-0.8,0.7c0-0.4,0-0.6,0.1-0.8
		C19.3,29.1,19.4,29,19.4,28.9z M17.9,37.1c0.1-0.3,0.1-0.6,0.2-0.8c0-0.2,0.1-0.5,0.1-0.7c0.1-0.7,0.2-1.4,0.4-2v-0.1
		c0-0.2,0.1-0.5,0.1-0.7c0-0.3,0.1-0.5,0.1-0.8c0-0.1,0.1-0.1,0.1,0c0.4,0.3,0.7,0.6,1.1,0.9c0.4,0.4,0.9,0.7,1.3,1.1
		c0.3,0.3,0.3,0.3,0,0.5c-1.1,0.9-2.3,1.8-3.4,2.7C18,37.1,18,37.1,17.9,37.1z M26.4,38.4v-0.1h-0.7H25h-0.7h-0.7h-0.7h-0.7h-0.7
		h-2.1h-0.7h-0.5c0.2-0.2,0.4-0.3,0.5-0.4c0.1,0,0.1-0.1,0.2-0.1c0.2-0.2,0.3-0.3,0.5-0.4c0.1-0.1,0.2-0.2,0.4-0.3
		c0.1-0.1,0.2-0.2,0.4-0.3c0.4-0.4,0.9-0.7,1.4-1.1c0.3-0.3,0.7-0.6,1-0.8c0.1,0,0.1,0,0.2,0c0.1,0.1,0.2,0.2,0.4,0.3
		c0.6,0.4,1.1,0.9,1.7,1.3c0.6,0.5,1.2,1,1.8,1.5c0.2,0.1,0.3,0.2,0.5,0.4H26.4z"/>
	<path d="M15.4,15c-0.2,0.4-0.3,0.9-0.3,1.4c0,0.2,0,0.5,0,0.7c0,0.2,0,0.5,0,0.7c0,0.5,0.1,1,0.2,1.4c0.1,0.2,0.2,0.5,0.2,0.7
		c0.2,0.5,0.4,0.9,0.7,1.4c0.3,0.4,0.6,0.8,1,1.2c0.4,0.4,0.9,0.2,1.1-0.1c0.2-0.3,0.2-0.7-0.1-0.9c-0.6-0.6-1-1.3-1.3-2.1
		c0-0.1,0-0.1-0.1-0.2c-0.1-0.2-0.2-0.5-0.2-0.7c-0.1-0.2-0.1-0.5-0.1-0.7c0-0.1,0-0.1,0-0.2c0-0.4,0-0.8,0-1.2
		c0.1-0.7,0.3-1.4,0.6-2c0-0.1,0.1-0.2,0.1-0.3c0-0.1,0.1-0.1,0.1-0.2c0.2-0.4,0.5-0.8,0.9-1.1c0.3-0.3,0.3-0.6,0-0.9
		c-0.1-0.1-0.3-0.2-0.4-0.3c-0.3-0.1-0.5,0-0.7,0.2c-0.3,0.3-0.5,0.6-0.8,0.9c-0.3,0.5-0.6,0.9-0.8,1.4L15.4,15z"/>
	<path d="M11.4,13.5c-0.2,0.7-0.4,1.4-0.5,2.1c0,0.3-0.1,0.5-0.1,0.8c0,0.2,0,0.5,0,0.7c0,0.2,0,0.5,0,0.7c0,0.5,0.1,0.9,0.2,1.4
		c0.2,1.2,0.6,2.4,1.2,3.4c0,0.1,0,0.1,0.1,0.2c0.4,0.7,0.9,1.4,1.4,2.1c0.2,0.2,0.4,0.4,0.6,0.6c0.3,0.3,0.7,0.4,1.1,0
		c0.3-0.3,0.3-0.7,0-1.1c-0.1-0.1-0.2-0.1-0.2-0.2c-0.2-0.2-0.4-0.5-0.6-0.7c-0.4-0.5-0.8-1.1-1.1-1.7c-0.1-0.2-0.2-0.3-0.2-0.5
		c-0.3-0.7-0.5-1.4-0.7-2.1c-0.1-0.3-0.1-0.5-0.1-0.8c-0.1-0.2-0.1-0.5-0.1-0.7s0-0.5,0-0.7c0-0.7,0.1-1.4,0.3-2.1
		c0.1-0.5,0.2-1,0.4-1.4c0.1-0.2,0.2-0.5,0.3-0.7c0.1-0.2,0.2-0.4,0.3-0.6v-0.1c0.1-0.3,0.3-0.5,0.5-0.7c0.1-0.1,0.2-0.2,0.3-0.4
		c0.3-0.4,0.6-0.7,0.9-1.1c0.3-0.3,0.3-0.7,0-1c-0.3-0.3-0.7-0.3-1,0c-0.2,0.2-0.3,0.4-0.5,0.5c-0.3,0.4-0.7,0.8-1,1.2
		c-0.3,0.5-0.6,0.9-0.8,1.4C11.7,12.6,11.5,13.1,11.4,13.5z"/>
	<path d="M31.2,11.9c0,0.1,0.1,0.2,0.1,0.2c0.3,0.4,0.5,0.9,0.7,1.4s0.3,0.9,0.4,1.4c0.1,0.5,0.2,1.1,0.3,1.6c0.1,2-0.3,3.8-1.2,5.5
		c-0.4,0.7-0.9,1.4-1.4,2c0,0-0.1,0-0.1,0.1c-0.1,0.1-0.2,0.2-0.2,0.3c-0.1,0.1-0.2,0.3-0.2,0.4c0,0.3,0.1,0.5,0.3,0.7
		c0,0,0.1,0,0.1,0.1c0.2,0.1,0.5,0.1,0.7-0.1c0,0,0.1,0,0.1-0.1c0.5-0.6,1.1-1.2,1.5-1.9c0.2-0.3,0.4-0.7,0.6-1
		c0.1-0.2,0.2-0.4,0.3-0.7c0.2-0.5,0.4-0.9,0.5-1.4c0.2-0.7,0.4-1.4,0.4-2.1c0-0.2,0-0.3,0-0.5v-0.2c0-0.2,0-0.5,0-0.7v-0.7
		c-0.1-0.5-0.1-0.9-0.2-1.4c-0.1-0.2-0.1-0.5-0.2-0.7c-0.1-0.2-0.1-0.5-0.2-0.7c-0.2-0.5-0.4-0.9-0.6-1.4c-0.3-0.5-0.5-1-0.8-1.4
		c-0.3-0.4-0.6-0.8-0.8-1.1c-0.1-0.1-0.2-0.2-0.3-0.3c0-0.1-0.2-0.2-0.3-0.4c-0.2-0.1-0.5-0.2-0.7-0.1c-0.1,0.1-0.2,0.1-0.2,0.2
		c-0.3,0.3-0.3,0.7,0,1.1C30.3,10.6,30.8,11.2,31.2,11.9z"/>
	<path d="M27.7,14.2c0.1,0.1,0.1,0.2,0.1,0.2c0.3,0.7,0.6,1.3,0.7,2.1c0.2,1.4-0.1,2.7-0.8,3.9c-0.2,0.4-0.5,0.8-0.8,1.1
		c-0.3,0.3-0.3,0.7,0,1c0.3,0.3,0.7,0.3,1,0c0.9-0.9,1.5-2.1,1.9-3.3c0.1-0.4,0.2-0.8,0.2-1.2c0-0.1,0-0.1,0-0.2
		c0.1-1-0.1-1.9-0.3-2.8c-0.1-0.2-0.2-0.5-0.3-0.7c-0.2-0.5-0.5-1-0.8-1.4c-0.2-0.3-0.5-0.6-0.7-0.9c-0.3-0.3-0.7-0.4-1-0.1
		c-0.3,0.3-0.4,0.7-0.1,1.1C27.1,13.3,27.4,13.7,27.7,14.2z"/>
</g>
</svg>
