<?xml version="1.0" encoding="utf-8"?>
<!-- Generator: Adobe Illustrator 22.0.1, SVG Export Plug-In . SVG Version: 6.00 Build 0)  -->
<svg version="1.1" id="Layer_1" xmlns="http://www.w3.org/2000/svg" xmlns:xlink="http://www.w3.org/1999/xlink" x="0px" y="0px"
	 viewBox="0 0 45 45" style="enable-background:new 0 0 45 45;" xml:space="preserve">
<g>
	<path d="M25.4,14.2c-0.3-1.2-1.5-2.3-2.7-2.3c-1.3-0.1-2.6,0.8-3,2.1c-0.4,1.3,0.1,2.5,1.8,3.6c-3.2,7-6.4,14.1-9.6,21.1
		c0.4,0.2,0.9,0.4,1.2,0.5c0.3-0.3,0.5-0.5,0.8-0.6c2.8-1.3,5.5-2.6,8.3-3.8c0.2-0.1,0.4-0.1,0.6,0c2.6,1.2,5.3,2.4,7.9,3.6
		c0.4,0.2,0.9,0.3,1,0.9c0.5-0.2,0.9-0.4,1.3-0.6c-3.2-7.1-6.4-14.1-9.6-21.2C25,16.7,25.7,15.5,25.4,14.2z M21,14.7
		c0-0.9,0.6-1.5,1.5-1.5s1.5,0.6,1.5,1.5c0,0.9-0.6,1.5-1.5,1.5S21,15.7,21,14.7z M19.6,25.3c0.6,0.4,1.1,0.8,1.7,1.2
		c-1.1,0.8-2.2,1.5-3.2,2.3c0,0,0,0-0.1,0C18.5,27.7,19,26.5,19.6,25.3z M14.4,36.8c0.8-1.7,1.5-3.3,2.2-4.9
		c1.4,0.6,2.8,1.3,4.2,1.9C18.6,34.8,16.6,35.8,14.4,36.8z M30.6,36.8c-2.2-1-4.3-2-6.4-2.9c1.4-0.7,2.8-1.3,4.2-1.9
		C29.1,33.5,29.9,35.1,30.6,36.8z M27,31c-1.4,0.7-2.8,1.3-4.3,2c-0.1,0.1-0.3,0.1-0.4,0c-1.5-0.7-3-1.4-4.5-2c0,0,0,0-0.1-0.1
		c1.5-1.1,3.1-2.2,4.6-3.3c0.1,0,0.2,0,0.3,0c1.5,1.1,3,2.2,4.6,3.3C27.2,30.9,27.1,30.9,27,31z M27,28.8c-1.1-0.7-2.2-1.5-3.3-2.3
		c0.6-0.4,1.1-0.8,1.7-1.2C26,26.5,26.5,27.7,27,28.8z M24.8,24c-0.8,0.6-1.5,1.1-2.3,1.7c-0.8-0.6-1.5-1.1-2.3-1.7
		c0.8-1.7,1.5-3.4,2.3-5.1C23.3,20.6,24.1,22.3,24.8,24z"/>
	<path d="M14.4,22.8C14.4,22.8,14.4,22.7,14.4,22.8c-2.1-2.3-3.2-5-3.2-8.1c0-3.1,1.2-5.8,3.3-8c-0.3-0.3-0.7-0.7-1-1
		c-5.3,5.2-4.6,13.7,0,18C13.8,23.4,14.1,23.1,14.4,22.8z"/>
	<path d="M30.6,22.7c0.3,0.3,0.7,0.7,1,1c5.2-5.2,4.5-13.7-0.1-18c-0.3,0.3-0.6,0.6-0.9,0.9c0,0,0,0.1-0.1,0.1
		c2.2,2.2,3.3,4.9,3.3,8C33.9,17.8,32.7,20.5,30.6,22.7z"/>
	<path d="M15.9,21.2c0.3-0.3,0.7-0.7,1-1c-1.5-1.5-2.3-3.4-2.3-5.5c0-2.2,0.8-4,2.3-5.6c-0.3-0.3-0.7-0.7-1-1
		C12.4,11.6,12.4,17.8,15.9,21.2z"/>
	<path d="M28.1,20.3c0.3,0.3,0.7,0.7,1,1c3.8-3.8,3.2-10.1,0-13.1c-0.3,0.3-0.7,0.6-1,1C31.1,12.2,31.2,17.1,28.1,20.3z"/>
	<path d="M18.2,19c0.3-0.3,0.7-0.7,1-1c-1.6-1.6-2-4.4,0-6.5c-0.3-0.3-0.6-0.6-1-1C15.8,12.8,16.1,17.1,18.2,19z"/>
	<path d="M25.8,17.9c0.3,0.3,0.7,0.7,1,1c2.2-2,2.3-6.2-0.1-8.5c-0.2,0.2-0.3,0.4-0.5,0.5c-0.2,0.2-0.3,0.3-0.5,0.5
		C27.6,13.3,27.7,16,25.8,17.9z"/>
</g>
</svg>
