<?xml version="1.0" encoding="utf-8"?>
<!-- Generator: Adobe Illustrator 22.0.1, SVG Export Plug-In . SVG Version: 6.00 Build 0)  -->
<svg version="1.1" id="Layer_1" xmlns="http://www.w3.org/2000/svg" xmlns:xlink="http://www.w3.org/1999/xlink" x="0px" y="0px"
	 viewBox="0 0 45 45" style="enable-background:new 0 0 45 45;" xml:space="preserve">
<g>
	<rect x="11.9" y="19.3" width="4" height="9"/>
	<rect x="20.3" y="19.3" width="4" height="9"/>
	<rect x="28.7" y="19.3" width="4" height="9"/>
	<polygon points="22.3,8.7 10,16.2 34.7,16.2 	"/>
	<polygon points="17.7,31.3 22.3,34.2 27,31.3 	"/>
	<rect x="11.9" y="17.2" width="20.8" height="0.7"/>
	<rect x="11.9" y="29.8" width="20.8" height="0.7"/>
	<path d="M27.8,34.3c1.5-0.3,3-0.3,4.6-0.2c0.4,0,0.8,0.1,1.1,0.1l0.6,0.1l0.6,0.1l1.1,0.2l1.1,0.3l0.5,0.1l0.5,0.2l1.1,0.4
		c0.7,0.3,1.4,0.6,2.1,0.9l0.6-1.4c-0.8-0.3-1.5-0.5-2.3-0.8L38.2,34l-0.6-0.1L37,33.6l-1.2-0.2l-1.2-0.1L34,33.2h-0.6
		c-0.4,0-0.8,0-1.2,0c-1.6,0-3.1,0.3-4.6,0.6c-1.2,0.3-2.5,0.7-3.6,1.4c-0.2,0.2-0.4,0.3-0.6,0.5C24.8,35,26.3,34.6,27.8,34.3z"/>
	<path d="M32.4,31.7c1.6-0.2,3.3-0.2,4.9,0.1c1.6,0.3,3.1,0.9,4.5,1.7l0.7-1.4c-1.6-0.7-3.3-1.2-5-1.4S34,30.6,32.3,31
		s-3.3,1-4.8,1.8c-1,0.5-2,1.2-2.8,1.9c0.9-0.6,1.9-1.2,2.9-1.6C29.1,32.4,30.7,31.9,32.4,31.7z"/>
	<path d="M23.3,35.6c0.2-0.2,0.5-0.3,0.7-0.4c0.2-0.2,0.4-0.3,0.6-0.5C24.2,35,23.7,35.3,23.3,35.6z"/>
	<path d="M12.8,33.2c-0.4,0-0.8,0-1.2,0H11l-0.6,0.1l-1.2,0.1L8,33.6l-0.6,0.1l-0.6,0.1l-1.2,0.3c-0.8,0.2-1.5,0.5-2.3,0.8l0.6,1.4
		C4.6,36,5.3,35.7,6,35.4L7.2,35l0.5-0.2l0.5-0.1l1.1-0.3l1.1-0.2l0.6-0.1l0.6-0.1c0.4,0,0.8-0.1,1.1-0.1c1.5-0.1,3,0,4.6,0.2
		c1.5,0.4,3,0.8,4.4,1.5c-1.3-0.8-2.8-1.4-4.3-1.8C15.9,33.4,14.3,33.2,12.8,33.2z"/>
	<path d="M12.8,30.9c-1.7-0.4-3.4-0.5-5.2-0.3c-1.7,0.2-3.4,0.7-5,1.4l0.7,1.4c1.4-0.8,2.9-1.4,4.5-1.7c1.6-0.3,3.2-0.3,4.9-0.1
		c1.6,0.2,3.2,0.7,4.7,1.4s3,1.5,4.3,2.6c-1.2-1.1-2.6-2.1-4.1-2.9S14.5,31.3,12.8,30.9z"/>
</g>
</svg>
