<?xml version="1.0" encoding="utf-8"?>
<!-- Generator: Adobe Illustrator 22.0.1, SVG Export Plug-In . SVG Version: 6.00 Build 0)  -->
<svg version="1.1" id="Layer_1" xmlns="http://www.w3.org/2000/svg" xmlns:xlink="http://www.w3.org/1999/xlink" x="0px" y="0px"
	 viewBox="0 0 517.2 313.7" style="enable-background:new 0 0 517.2 313.7;" xml:space="preserve">
<style type="text/css">
	.st0{fill:#97A3AE;}
	.st1{fill:#415364;}
</style>
<path class="st0" d="M0.5,168.5c0-1.4,0.7-2,2.1-2h31.5c1,0,1.5,0.7,1.5,2v12.6c0,1.3-0.5,2-1.5,2H18.9v8.8h11.3
	c1.2,0,1.8,0.7,1.8,2.1v12.5c0,1.3-0.6,2-1.8,2H18.9v8.8h15.6c1.1,0,1.7,0.7,1.7,2V232c0,1.3-0.6,2-1.7,2H2.6c-1.4,0-2.1-0.7-2.1-2
	V168.5z"/>
<path class="st0" d="M86.3,232c0.2,0.7,0.2,1.2,0.1,1.5c-0.1,0.3-0.5,0.5-1,0.5H69.8c-0.7,0-1.2-0.2-1.7-0.5
	c-0.5-0.3-0.8-0.8-0.9-1.5l-0.6-5.4h-8.9L57,232c-0.1,0.7-0.4,1.2-0.9,1.5c-0.5,0.3-1,0.5-1.7,0.5H39c-0.5,0-0.9-0.2-1-0.5
	c-0.1-0.3-0.1-0.8,0.1-1.5l14.7-63.5c0.4-1.4,1.2-2,2.5-2H69c0.7,0,1.3,0.2,1.7,0.5s0.7,0.9,0.9,1.5L86.3,232z M59.5,211h5.3
	l-1.9-16.5l-0.8-8.6l-0.7,8.6L59.5,211z"/>
<path class="st0" d="M88.4,168.5c0-1.4,0.7-2,2.1-2h19.4c2.9,0,5.6,0.5,8.2,1.5c2.5,1,4.8,2.4,6.7,4.1c1.9,1.7,3.4,3.7,4.5,6
	c1.1,2.3,1.7,4.7,1.7,7.2v8.3c0,3.1-0.6,5.8-1.7,8c-1.2,2.3-2.6,4.2-4.4,5.7l6.9,24.7c0.2,0.4,0.1,0.9,0,1.3
	c-0.2,0.4-0.5,0.7-1.1,0.7h-15.6c-0.7,0-1.1-0.1-1.4-0.4c-0.2-0.3-0.4-0.8-0.5-1.5l-3.9-19.2h-2.4V232c0,1.3-0.7,2-2,2H90.5
	c-1.4,0-2.1-0.7-2.1-2V168.5z M106.8,183.1v13.1h3.1c0.7,0,1.3-0.2,1.8-0.6c0.5-0.4,0.7-0.9,0.7-1.5v-8.9c0-0.7-0.3-1.3-0.8-1.6
	c-0.5-0.3-1.1-0.5-1.8-0.5H106.8z"/>
<path class="st0" d="M133.5,168.5c0-1.4,0.5-2,1.6-2h37.6c0.5,0,1,0.2,1.3,0.5c0.3,0.3,0.4,0.9,0.4,1.5v12.6c0,0.7-0.1,1.2-0.4,1.5
	c-0.3,0.4-0.7,0.5-1.3,0.5h-9.5V232c0,1.3-0.6,2-1.7,2h-15.1c-1.1,0-1.7-0.7-1.7-2v-48.9h-9.6c-1.1,0-1.6-0.7-1.6-2V168.5z"/>
<path class="st0" d="M178.2,168.5c0-1.4,0.7-2,2-2h14.3c1.4,0,2.1,0.7,2.1,2v22.3h6.7v-22.3c0-0.5,0.2-1,0.5-1.4
	c0.3-0.4,0.9-0.6,1.6-0.6h14.4c0.4,0,0.8,0.1,1.3,0.4c0.5,0.2,0.7,0.8,0.7,1.6V232c0,1.3-0.8,2-2.3,2h-14c-1.4,0-2.1-0.7-2.1-2
	v-24.5h-6.7V232c0,1.3-0.7,2-2.1,2h-14.3c-1.4,0-2-0.7-2-2V168.5z"/>
<path class="st1" d="M0.5,247.1c0-1.4,0.5-2,1.6-2h37.6c0.5,0,1,0.2,1.3,0.5c0.3,0.3,0.4,0.9,0.4,1.5v12.6c0,0.7-0.1,1.2-0.4,1.5
	c-0.3,0.3-0.7,0.5-1.3,0.5h-9.5v48.9c0,1.3-0.6,2-1.7,2H13.4c-1.1,0-1.7-0.7-1.7-2v-48.9H2.1c-1.1,0-1.6-0.7-1.6-2V247.1z"/>
<path class="st1" d="M45.1,247.1c0-1.4,0.7-2,2.1-2h31.5c1,0,1.5,0.7,1.5,2v12.7c0,1.3-0.5,2-1.5,2H63.5v8.8h11.3
	c1.2,0,1.8,0.7,1.8,2.1v12.6c0,1.3-0.6,2-1.8,2H63.5v8.8h15.6c1.1,0,1.7,0.7,1.7,2v12.7c0,1.3-0.6,2-1.7,2H47.2
	c-1.4,0-2.1-0.7-2.1-2V247.1z"/>
<path class="st1" d="M86,255c1-2.2,2.4-4.2,4.3-5.8c1.9-1.6,4.1-2.9,6.8-3.8c2.7-0.9,5.6-1.4,8.9-1.4c3.8,0,7,0.6,9.6,1.7
	c2.6,1.1,4.8,2.6,6.4,4.3c1.6,1.8,2.8,3.8,3.6,6c0.7,2.2,1.1,4.5,1.1,6.7v5.7c0,0.8-0.1,1.4-0.4,1.8c-0.3,0.3-0.8,0.5-1.5,0.5h-14.4
	c-0.7,0-1.2-0.2-1.4-0.5c-0.3-0.3-0.4-0.8-0.3-1.5v-5.4c0-0.3-0.1-0.5-0.2-0.8c-0.1-0.3-0.3-0.6-0.5-0.9c-0.2-0.3-0.5-0.5-0.9-0.7
	c-0.4-0.2-0.8-0.3-1.3-0.3c-1,0-1.8,0.3-2.2,0.8c-0.4,0.5-0.6,1.1-0.6,1.7v31.3c0,0.6,0.2,1.3,0.7,1.8c0.5,0.6,1.3,0.9,2.4,0.9
	c0.5,0,1-0.1,1.3-0.3c0.4-0.2,0.6-0.4,0.9-0.6c0.2-0.3,0.4-0.5,0.4-0.9c0.1-0.3,0.1-0.7,0.1-1v-7.2c0-0.7,0.1-1.2,0.4-1.5
	c0.2-0.3,0.7-0.4,1.4-0.4H125c0.8,0,1.3,0.1,1.5,0.4c0.3,0.3,0.4,0.7,0.4,1.5v8.4c0,3-0.6,5.6-1.7,7.9c-1.1,2.3-2.6,4.2-4.5,5.8
	c-1.9,1.5-4.1,2.7-6.7,3.5c-2.5,0.8-5.3,1.2-8.2,1.2c-2.9,0-5.7-0.4-8.3-1.2c-2.6-0.8-4.9-1.9-6.8-3.5c-2-1.5-3.5-3.4-4.6-5.7
	c-1.1-2.3-1.7-4.9-1.7-7.9v-33.2C84.5,259.6,85,257.2,86,255"/>
<path class="st1" d="M131.4,247.1c0-1.4,0.7-2,2-2h14.3c1.4,0,2.1,0.7,2.1,2v22.3h6.7v-22.3c0-0.5,0.2-1,0.5-1.4
	c0.3-0.4,0.9-0.6,1.6-0.6h14.4c0.4,0,0.8,0.1,1.3,0.4c0.5,0.2,0.7,0.8,0.7,1.6v63.6c0,1.3-0.8,2-2.3,2h-14c-1.4,0-2.1-0.7-2.1-2
	v-24.5h-6.7v24.5c0,1.3-0.7,2-2.1,2h-14.3c-1.4,0-2-0.7-2-2V247.1z"/>
<path class="st1" d="M180.9,247.1c0-1.4,0.7-2,2.1-2h13.3c0.3,0,0.6,0.1,0.9,0.1c1,0.3,1.6,0.9,2,1.9l8.7,26.4l1.5,6.5l-0.4-5.8
	l-0.9-27.1c0-0.5,0.1-1,0.5-1.4c0.4-0.4,0.9-0.6,1.6-0.6h13.4c0.4,0,0.8,0.1,1.3,0.4c0.5,0.2,0.7,0.8,0.7,1.6v63.6
	c0,1.3-0.8,2-2.3,2h-13.4c-0.7,0-1.3-0.2-1.8-0.5c-0.5-0.3-0.9-0.8-1.1-1.5l-7.9-23.4l-1.8-6.3l0.5,6.4l0.8,23.4c0,1.3-0.7,2-2.1,2
	h-13.3c-1.4,0-2.1-0.7-2.1-2V247.1z"/>
<path class="st1" d="M230.4,262.3c0-3,0.6-5.6,1.7-7.9c1.1-2.3,2.7-4.2,4.6-5.7c2-1.5,4.2-2.7,6.8-3.5c2.6-0.8,5.4-1.2,8.3-1.2
	c2.9,0,5.7,0.4,8.3,1.2c2.6,0.8,4.9,1.9,6.8,3.5c2,1.6,3.5,3.5,4.7,5.7c1.2,2.3,1.7,4.9,1.7,8v33.2c0,3-0.6,5.7-1.7,8
	c-1.2,2.3-2.7,4.2-4.7,5.7c-2,1.6-4.2,2.7-6.8,3.5c-2.6,0.8-5.3,1.2-8.2,1.2c-2.9,0-5.7-0.4-8.3-1.2c-2.6-0.8-4.9-2-6.8-3.6
	c-2-1.6-3.5-3.5-4.6-5.8c-1.1-2.3-1.7-4.9-1.7-7.8V262.3z M248.8,294.4c0,0.6,0.2,1.3,0.7,1.8c0.5,0.6,1.3,0.9,2.4,0.9
	c1.1,0,1.9-0.3,2.4-0.9c0.5-0.6,0.7-1.2,0.7-1.8v-31c0-0.6-0.3-1.2-0.8-1.8c-0.5-0.6-1.3-0.9-2.3-0.9c-1,0-1.8,0.3-2.3,0.9
	c-0.5,0.6-0.8,1.2-0.8,1.8V294.4z"/>
<path class="st1" d="M278.3,247.1c0-1.4,0.7-2,2-2h14.3c1.4,0,2.1,0.7,2.1,2V296h13.8c0.6,0,1,0.2,1.2,0.5c0.2,0.3,0.4,0.8,0.4,1.5
	v12.7c0,0.7-0.1,1.2-0.4,1.5c-0.2,0.3-0.6,0.5-1.2,0.5h-30.1c-1.4,0-2-0.7-2-2V247.1z"/>
<path class="st1" d="M315.4,262.3c0-3,0.6-5.6,1.7-7.9c1.1-2.3,2.7-4.2,4.6-5.7c2-1.5,4.2-2.7,6.8-3.5c2.6-0.8,5.4-1.2,8.3-1.2
	c2.9,0,5.7,0.4,8.3,1.2c2.6,0.8,4.9,1.9,6.8,3.5c2,1.6,3.5,3.5,4.7,5.7c1.2,2.3,1.7,4.9,1.7,8v33.2c0,3-0.6,5.7-1.7,8
	c-1.2,2.3-2.7,4.2-4.7,5.7c-2,1.6-4.2,2.7-6.8,3.5c-2.6,0.8-5.3,1.2-8.2,1.2c-2.9,0-5.7-0.4-8.3-1.2c-2.6-0.8-4.9-2-6.8-3.6
	c-2-1.6-3.5-3.5-4.6-5.8c-1.1-2.3-1.7-4.9-1.7-7.8V262.3z M333.8,294.4c0,0.6,0.2,1.3,0.7,1.8c0.5,0.6,1.3,0.9,2.4,0.9
	c1.1,0,1.9-0.3,2.4-0.9c0.5-0.6,0.7-1.2,0.7-1.8v-31c0-0.6-0.3-1.2-0.8-1.8c-0.5-0.6-1.3-0.9-2.3-0.9c-1,0-1.8,0.3-2.3,0.9
	c-0.5,0.6-0.8,1.2-0.8,1.8V294.4z"/>
<path class="st1" d="M364.1,254.4c1.1-2.3,2.7-4.2,4.6-5.7c2-1.5,4.2-2.7,6.8-3.5c2.6-0.8,5.4-1.2,8.3-1.2c3,0,5.6,0.3,7.8,1
	c2.2,0.7,4.1,1.6,5.6,2.7c1.5,1.1,2.8,2.3,3.7,3.7c0.9,1.4,1.7,2.8,2.2,4.1c0.5,1.4,0.9,2.7,1.1,4c0.2,1.3,0.3,2.3,0.3,3.2v5.2
	c0,0.8-0.1,1.4-0.4,1.7c-0.3,0.3-0.8,0.5-1.5,0.5h-14.5c-0.7,0-1.2-0.2-1.4-0.5c-0.2-0.3-0.3-0.8-0.3-1.5v-5c0-0.5-0.2-1.1-0.7-1.7
	c-0.5-0.6-1.1-0.9-2.1-0.9c-0.7,0-1.4,0.2-2,0.7c-0.6,0.4-0.9,1-0.9,1.6v31.6c0,0.4,0.1,0.8,0.3,1.1c0.2,0.3,0.4,0.6,0.7,0.8
	c0.3,0.2,0.6,0.4,1,0.5c0.4,0.1,0.7,0.2,1.1,0.2c0.7,0,1.4-0.2,1.9-0.7c0.6-0.4,0.9-1,0.9-1.6v-4.1h-2.1c-0.6,0-1-0.2-1.2-0.5
	c-0.2-0.3-0.3-0.8-0.3-1.5v-11.2c0-0.7,0.1-1.2,0.3-1.5c0.2-0.3,0.6-0.5,1.2-0.5h18.2c1.4,0,2.1,0.7,2.1,2v17.9c0,3-0.6,5.7-1.7,8
	c-1.1,2.3-2.6,4.2-4.5,5.7c-1.9,1.6-4.1,2.7-6.7,3.5c-2.5,0.8-5.3,1.2-8.2,1.2c-2.9,0-5.7-0.4-8.3-1.2c-2.6-0.8-4.9-1.9-6.8-3.5
	c-2-1.5-3.5-3.5-4.6-5.7c-1.1-2.3-1.7-4.9-1.7-8v-33.2C362.4,259.3,362.9,256.7,364.1,254.4"/>
<path class="st1" d="M409.8,247.1c0-1.4,0.7-2,2.1-2h14.2c1.4,0,2.1,0.7,2.1,2v63.5c0,1.3-0.7,2-2.1,2h-14.2c-1.4,0-2.1-0.7-2.1-2
	V247.1z"/>
<path class="st1" d="M434.2,247.1c0-1.4,0.7-2,2.1-2h31.5c1,0,1.5,0.7,1.5,2v12.7c0,1.3-0.5,2-1.5,2h-15.2v8.8h11.3
	c1.2,0,1.8,0.7,1.8,2.1v12.6c0,1.3-0.6,2-1.8,2h-11.3v8.8h15.6c1.1,0,1.7,0.7,1.7,2v12.7c0,1.3-0.6,2-1.7,2h-31.9
	c-1.4,0-2.1-0.7-2.1-2V247.1z"/>
<path class="st1" d="M474.2,292.3c0-1.1,0.1-1.9,0.3-2.2c0.2-0.4,0.8-0.6,1.7-0.6h14c0.9,0,1.5,0.2,1.8,0.5c0.2,0.3,0.4,0.9,0.4,1.8
	v2.1c0,0.6,0.1,1.2,0.3,1.6c0.2,0.4,0.4,0.8,0.7,1c0.3,0.2,0.6,0.4,1,0.5c0.4,0.1,0.8,0.1,1.2,0.1c0.7,0,1.3-0.2,1.9-0.6
	c0.6-0.4,0.9-1.1,0.9-2.1c0-0.6-0.1-1.2-0.3-1.8c-0.2-0.6-0.6-1.1-1-1.7c-0.5-0.6-1.1-1.2-1.8-1.8c-0.7-0.6-1.6-1.3-2.6-2
	c-2.2-1.7-4.3-3.2-6-4.5c-1.8-1.3-3.4-2.5-4.7-3.7c-1.4-1.1-2.5-2.3-3.5-3.4c-1-1.1-1.7-2.3-2.4-3.6c-0.6-1.3-1.1-2.7-1.4-4.2
	c-0.3-1.6-0.4-3.4-0.4-5.4c0-3,0.6-5.6,1.8-7.9c1.2-2.3,2.8-4.2,4.7-5.8c1.9-1.6,4.1-2.7,6.6-3.6c2.4-0.8,4.9-1.2,7.3-1.2
	c3,0,5.7,0.4,8.3,1.3c2.5,0.9,4.7,2.1,6.6,3.8c1.8,1.7,3.3,3.7,4.3,6.2c1,2.4,1.6,5.2,1.6,8.4v2.7c0,0.8-0.1,1.4-0.4,1.6
	c-0.3,0.3-0.9,0.4-2,0.4h-13.7c-0.8,0-1.2-0.1-1.4-0.4c-0.2-0.3-0.3-0.8-0.3-1.6v-2.5c0-2.1-0.8-3.1-2.5-3.1c-0.9,0-1.5,0.2-1.9,0.7
	c-0.4,0.5-0.6,1-0.6,1.6c0,0.7,0,1.2,0.1,1.7c0.1,0.5,0.3,1,0.6,1.4c0.3,0.5,0.8,1,1.5,1.6c0.7,0.6,1.6,1.3,2.9,2.1
	c2.4,1.5,4.7,3.2,7,4.9c2.3,1.7,4.3,3.6,6.1,5.6c1.8,2,3.2,4.3,4.3,6.8c1.1,2.5,1.6,5.3,1.6,8.5c0,2.5-0.5,4.9-1.5,7.1
	c-1,2.2-2.4,4.2-4.3,5.8c-1.9,1.7-4.1,3-6.8,3.9c-2.7,1-5.6,1.4-8.9,1.4c-2.6,0-5-0.3-7-0.8c-2.1-0.5-3.9-1.3-5.4-2.2
	c-1.5-0.9-2.9-2-4-3.2c-1.1-1.2-2-2.5-2.7-3.9c-0.7-1.4-1.2-2.8-1.5-4.3c-0.3-1.5-0.4-2.9-0.4-4.3V292.3z"/>
<path class="st0" d="M442.7,7.2c0,0-1.9,0.1-2.3,0.2c-0.3,0.1-1.6-0.5-2.6-0.8s-3.3-1-4.2-1c-0.9,0-3.1,0.8-5,1s-1.5,0.5-2.5,1.5
	c-1,1-2,1.2-3.1,1c-1-0.2-0.2-0.9,0.9-1.4c1.1-0.5,0.2-0.8-0.6-1.2c-0.8-0.5-0.9-0.3-1.9-0.5c-1-0.1-3.7-1.2-4.8-1.5
	c-1-0.2-5.3-0.6-6.9-0.1c-1.6,0.5-3.5,1.6-4.6,2.5c-1.1,0.9-2,1.8-3.4,2.8c-1.4,1-2.9,1.4-4.1,2.4c-1.1,1-1.6,1.5-1.8,2.9
	c-0.2,1.5,0.2,0.9,1.5,1.2c1.2,0.3,1.1-1,2.6-1.2c1.5-0.2,1.1,0.3,1.6,1.1c0.5,0.8,0.6,3.2,1.2,3.3c0.7,0.1,1-0.1,2.4-0.7
	c1.4-0.6,2.2-2.4,2.8-3.3c0.7-0.9-0.5-2.3-0.3-3.5c0.1-1.2,0.9-0.9,2.4-1.4c1.5-0.5,1-1.1,1.4-2.2c0.3-1,0.8-0.5,1.7-0.2
	c0.9,0.2,0.3,1.1-0.2,2c-0.6,0.9-1.6,1.4-2,2.3c-0.5,0.9,1.2,1.4,2,1.7c0.8,0.3,2.3-0.2,3.4-0.3c1.1-0.1,2.3-0.5,3.5-1.2
	c1.2-0.8,1.8,0.6,1.4,0.8c-0.5,0.2-1.5,0.5-2.2,1.4c-0.7,0.9-2.7,0.1-3.6-0.2c-0.9-0.3-1.5,0.2-1.1,1.6c0.3,1.4,0.9,1.4,0.5,1.9
	c-0.5,0.6-2.2-1.2-2.9-0.9c-0.8,0.3-0.6,1.8-0.7,2.9c-0.1,1.1-1.6,1.4-2.7,0.5c-1.1-0.9-3.4,0.9-3.4,0.9s-4.6,0.1-5.4,0.1
	c-0.8,0-0.5-1.5,0.2-2.2c0.7-0.7,0.1-1.5-0.9-1.5s-1.6,2.2-1.6,2.8s-2.4,1.8-3.1,1.8c-0.7,0-2.4,1.1-4.4,2.7c-2,1.6-5.6,2.4-5.9,2.8
	c-0.3,0.5-1.8,0.9-2.3,0.5c-0.5-0.4-2.3-0.2-2.7,0.4c-0.3,0.6-0.1,1,0.7,1.3c0.8,0.3,1.6,1.7,1.9,3.2c0.3,1.5-0.7,2.8-1.8,3.4
	c-1.1,0.6-7.1-0.1-8.4-0.1c-1.3,0-2,1.2-2.8,2.3c-0.8,1-0.2,1.4-0.6,2.3c-0.5,1-2,2-2.8,3.5c-0.7,1.4,0.3,2.4,1.2,3.9
	c0.9,1.4,1-0.3,2-0.2c1.1,0.1,1.4,1.1,1.9,1.1c0.5,0,3.2-0.5,4.5-0.6c1.4-0.1,2.6-1.4,3.7-2.4c1.1-1,1.5-2.2,2.2-3.4
	c0.6-1.2,3.2-1.8,4.3-2.1c1.1-0.3,0.8-1.2,0.9-1.6c0.1-0.5,1.7-1.7,2.9-1.7c1.2,0,1.6,0.8,2.6,0.1c0.9-0.7,1.5-1.5,2.1-1.7
	c0.6-0.2,2.1,0.4,2.7,1.2c0.6,0.8,2.2,2.3,3.2,3c1.1,0.7,4.8,3.5,5.4,4c0.6,0.5,0.1,1.6,0.2,2.1c0,0.5,0.3,1,0.3,1
	c0.2-0.1,1.1-2.2,1.1-2.2s0.2-1.3,0.3-1.3c0.1,0,0.9,0.2,1.1,0.2c0.1,0,0.6-0.5,0.6-0.5s-0.5-0.4-0.9-0.6c-0.5-0.2-1.8-1.1-2.5-1.5
	c-0.7-0.4-3.5-3.4-4.4-4.2c-0.9-0.8-0.9-1.8-0.4-2.4c0.6-0.5,1.5-0.6,2-0.5c0.6,0.1,1.5,0.9,2.4,1.7c0.9,0.7,4.6,2.9,4.9,3.3
	c0.4,0.5,1.5,3.1,1.8,3.7c0.4,0.6,1.1,1.6,2.4,2.5c1.3,0.9,1.3,0.6,1.6,1.2c0.2,0.6-1.1,0.4-1.1,1c0,0.6,1.2,1.7,1.2,1.7
	s1.3-0.8,1.3-1.6c0-0.8,1.3-0.3,1.3-0.3l0.8-1.1c-0.5-0.5-3.2-2.5-3.2-3.6c0-1.1,1.7,0.8,2.5,0.3c0.8-0.5,0.3-0.9,0.9-1.1
	c0.6-0.2,2.2,0.8,3.3,0.5c1.1-0.3,1.1-1.7,1.1-2.2c0-0.5-0.8-1.4-0.9-2c-0.2-0.6,1.1-2.5,2.7-3.3c1.6-0.8,0,0,0.3-0.8
	c0.3-0.8,1.7-1.6,2.7-1.6c0.9,0,1.3,1.6,1.9,2.2c0.6,0.6,1.7,0.9,2.8,0.6c1.1-0.3,0.3-1.4-0.5-1.7c-0.8-0.3,0.2-1.3,1.3-1.4
	c1.1-0.2,2.7-0.5,2.7-0.5v0.8c0,0.8,0.5,2,0.6,2.8c0.2,0.8,4.3,2.7,5.4,3.5c1.1,0.8,0.9,2.7-0.5,2.8c-1.4,0.2-4.4-0.5-5.2-0.9
	c-0.8-0.5-2-0.9-3.2-1.1c-1.1-0.2-2.5,0.5-3.5,1.3c-0.9,0.8-2.5,0.3-3.5,0.3c-0.9,0-1.7,1.6-3.3,1.6c-1.6,0-1.7,0.5-1.7,1.4
	s0.6,2.2,1.1,3.3c0.5,1.1,1.9,2.4,3,2.8c1.1,0.5,1.6-0.2,3.2-0.8c1.6-0.6,2.2,0.8,3.6,1.1c1.4,0.3,2.2-1.4,3.6-1.4
	c1.4,0,2.4,1.9,2.4,3.8c0,1.9-1.3,3.9-1.4,6c-0.2,2-2.4,1.6-3.5,1.3c-1.1-0.3-1.7-1.1-3.3-0.5c-1.6,0.6-3.3,1.1-4.1,0.3
	c-0.8-0.8-5.4-1.3-6.5-1.6c-1.1-0.3-3-1.4-3.9-1.7c-0.9-0.3-2.8,0.3-3.8,1.4c-0.9,1.1-0.5,2.8-1.3,3.2c-0.8,0.3-2-0.6-3.9-1.3
	c-1.9-0.6-2.7-1.6-2.7-2.7c0-1.1-2.5,0.2-4.3-0.3c-1.7-0.5-2.8-1.4-4.1-2c-1.3-0.6,0.6-1.7,1.1-2.5c0.5-0.8-0.2-1.3,0.2-1.7
	c0.3-0.5-0.3-1.4-1.4-1.6c-1.1-0.2-10.1,0.3-12.3,0.3c-2.2,0-5.2,1.1-6.9,2s-5.8-0.2-6.8-0.8c-0.9-0.6-1.4,0.5-2.2,1.3
	c-0.8,0.8-1.9,1.9-2.7,2c-0.8,0.2-2.5,2.7-3.5,3.3c-0.9,0.6-1.3,2.4-1.7,3.8c-0.5,1.4-2.2,2.4-3.6,2.2c-1.4-0.2-2.8,1.3-3.2,1.9
	c-0.3,0.6-1.6,1.3-2.4,1.7c-0.8,0.5-3.6,5.5-4.7,6.6c-1.1,1.1-0.9,4.6-0.9,6.1c0,1.6-1.9,5.2-3.3,5.8c-1.4,0.6,0.2,2,1.1,2.4
	c0.9,0.3,0.2,1.3-0.3,2c-0.5,0.8,0.2,2.5,1.4,3c1.3,0.5,0.6,2.5,1.9,3s1.7,2.5,1.7,3.6c0,1.1,1.9,2,3,2.5c1.1,0.5,4.1,4.9,5.8,5.8
	c1.7,0.9,3.3-0.8,4.9-1.4c1.6-0.6,3.9,0.3,5.8,1.3c1.9,0.9,4.4-0.3,7.1-2.2c2.7-1.9,7.6,0.3,8.2,0.6c0.6,0.3,1.3,2.4,1.9,3.3
	c0.6,0.9,1.7,0.3,2.4,0.6c0.6,0.3,1.7,0.2,1.7,0.2s0.6-1.3,1.3-1.1c0.6,0.2,2.1,2.4,2.8,3.6c0.8,1.3-1.6,3.6-2.4,4.4
	c-0.8,0.8,0.6,4.6,1.4,5.5c0.8,0.9,1.9,1.6,3.3,2.8c1.4,1.3,3.3,7.7,3.5,9.1c0.2,1.4-0.6,2.4,0,3.3c0.6,0.9,0.3,3-1.6,4.7
	c-1.9,1.7-1.6,3.2-2.4,4.4c-0.8,1.3-0.6,6.3,0.2,7.1c0.8,0.8,3.2,2.7,4.1,5.8c0.9,3.2,0.6,5.5,0.6,7.6c0,2,2.8,4.9,4.6,6.1
	c1.7,1.3,0.9,3.9,1.9,5.4c0.9,1.4-0.6,1.9-0.6,3c0,1.1,2.5,3,3.8,3.5c1.3,0.5,2-0.9,2.7-1.4c0.6-0.5,1.9-0.5,3.2-0.3
	c1.3,0.2,3.9,0.2,5.5,0c1.6-0.2,6-3.6,7.3-5c1.3-1.4,4.3-3.3,4.7-4.7c0.5-1.4,1.7-3.8,3.9-5c2.2-1.3,3.3-3.2,3.8-4.4
	c0.5-1.3-0.6-3.3-0.6-4.7c0-1.4,1.1-2.4,1.7-3c0.6-0.6,4.1-3,5.5-3.3c1.4-0.3,2.8-0.6,4.1-1.7c1.3-1.1,1.1-4.9,1.1-6.5
	c0-1.6,0.2-2.8,0.6-4.1c0.5-1.3,0.2-2-0.5-2.8c-0.6-0.8-0.9-4.4-0.5-7.4c0.5-3,2.4-3.9,3.6-4.4c1.3-0.5,3.3-1.1,3.9-2.4
	c0.6-1.3,3.3-3.9,4.6-4.6c1.3-0.6,2.7-2.2,3.5-3.3c0.8-1.1,0.3-2,0.9-2.7c0.6-0.6,2-1.9,2-2.7c0-0.8,0.3-2,0.9-2.5
	c0.6-0.5,0.8-2.5,1.3-3.5c0.5-0.9,0.2-3-0.2-4.4c-0.3-1.4-1.6-1.1-2.4-0.2c-0.8,0.9-2.7,0.2-3.5,0.2s-3.3,0.9-4.7,1.3
	c-1.4,0.3-3-0.5-3.2-1.6c-0.2-1.1-2.5-3.8-3.3-4.4c-0.8-0.6-2.4-3.5-2.8-4.3c-0.5-0.8-2.2-0.8-2.2-1.7c0-0.9-0.9-3.5-2-4.3
	c-1.1-0.8-2.7-3.9-2.7-4.7c0-0.8-1.6-3-2.4-3.3c-0.8-0.3-1.1-2-1.3-2.7c-0.2-0.6-1.6-2.7-2.4-3.2s-2.4-2.2-2.5-2.7
	c-0.2-0.5-0.5-1.7-1.3-2.4c-0.8-0.6-1.7-2.5-1.4-3c0.3-0.5,1.9,0.9,2.5,2.4c0.6,1.4,1.3,0,2.2-0.5c0.9-0.5,1.6,2,1.6,2
	s0.9,2.4,1.7,2.7c0.8,0.3,1.4,2,1.6,2.8s3.3,2,3.8,2.7c0.5,0.6,1.4,2.8,2.4,4.1c0.9,1.3,2.1,3.2,3,3.8c0.9,0.6,1.1,3,2.4,4.1
	c1.3,1.1,1.1,3.3,1.1,4.4c0,1.1,1.7,3.6,2.5,4.9c0.8,1.3,1.9,0.3,2.7,0s2.2-0.5,3.8-0.6c1.6-0.2,5.4-2.8,6.6-3
	c1.3-0.2,0.8-1.7,1.1-2.4c0.3-0.6,2.4-1.6,3.2-1.6c0.8,0,0.9-0.6,1.1-1.4c0.2-0.8,2.2-2.4,3-3.2c0.8-0.8,1.4-6,1.4-7.7
	c0-1.7-3.9-2.5-5-3c-1.1-0.5-0.9-1.6-1.6-3s-1.4,0.9-2.8,1.6c-1.4,0.6-4.1,1.4-4.1-0.3c0-1.7-1.1-3-2.5-3c-1.4,0-3.6-3.5-4.7-5.5
	c-1.1-2,1.4-2.2,2.8-2c1.4,0.2,1.9,2,3.5,4.1c1.6,2,4.3,3.8,5.5,3c1.3-0.8,2.2-0.5,3,0.6c0.8,1.1,2.2,1.7,3.5,1.9
	c1.3,0.2,3.5,0.2,5.7,0.2c2.2,0,3.9,0.5,4.7,1.3c0.8,0.8,2.2,3.2,3.6,3.2c1.4,0,2.1,1.1,1.4,1.1c-0.6,0-1.1,0.9-0.8,1.7
	c0.3,0.8,1.1,1.6,2,0.9c0.9-0.6,2,0.8,2.5,1.7c0.5,0.9,0.6,2.4,0.6,4.6c0,2.2,0.9,2.8,2,3.8c1.1,0.9,2.4,4.6,2.5,5.7
	c0.2,1.1,0.2,2.8,0.5,3.5c0.3,0.6,1.6,2.7,1.6,3.9c0,1.3,0.8,2.7,1.3,3.8c0.5,1.1,1.3-0.9,1.3-2.2c0-1.3,1.3-2.4,1.3-3.5
	c0-1.1-1.4-1.4-1.4-1.4s1.3,0,1.1-0.8c-0.2-0.8-1.3-3.9-1.3-6.3c0-2.4,0.6-4.3,0.6-4.3c0.2-0.8,0-6.8,0-9.1c0-2.4,2-1.1,2,0
	c0,1.1,1.3,4.3,1.7,5.4c0.5,1.1,2.7,4.4,2.7,5.5c0,1.1,2.2,2.8,2.2,2.8C500.1,24.2,442.7,7.2,442.7,7.2 M461.6,50.1
	c-1.2-0.1-1.9,0-2.9-0.7c-1-0.7-3.1-2.2-3-3.2c0,0,1.2-1.7-0.2-3.5c-1.4-1.9-4-1.9-5.2-3.7c-1.1-1.9-1.9-4-1.4-4.8
	c0.4-0.7,1.7-2.1,2.8-2.1c1.1,0,3.4,1.6,2.9,2.2c-0.5,0.6-1.2,0.9-1.2,1.4c0,0.5,0.8,1.3,2,2c1.1,0.6,2.3,2.1,2.4,2.7
	c0.1,0.6,1.4,0.6,1.9,1c0.4,0.4,1.3,0.7,0.4,1c-0.9,0.3-1.6,0.6-1,1c0.5,0.4,1.7,0.9,2.6,2.3c0.9,1.3,1.2,2,1.2,2.9
	C462.7,49.6,462.8,50.2,461.6,50.1"/>
<path class="st0" d="M386.6,16.5c-0.1-0.4-0.3-1.9-1.7-1.4c-1.4,0.4-2.2,1.4-2.3,2c-0.1,0.7-0.4,1.3,0.5,2.4
	c0.9,1.1,1.4,1.1,0.9,1.7c-0.5,0.6-2.5,1.5-2.8,2.5c-0.3,0.9-0.7,2.2-0.9,2.4c-0.3,0.2,0.9,0.8,2.2,0.4c1.3-0.4,2.5,0.3,3.8-0.7
	c1.4-1,2.5-1.9,2.3-2.5c-0.2-0.6-1.3-0.6-1.4-1.3c-0.2-0.7,0.3-0.9-0.2-1.5c-0.5-0.6-1.4-1-1.4-1.4s0-0.8,0.7-1.4
	C387,17.3,386.6,16.5,386.6,16.5"/>
<path class="st0" d="M380.5,20.7c0,0-0.8,2.4-1.9,2.9c-1,0.5-2.4,1.1-3.1,0.9c-0.7-0.2-0.9-1-0.3-1.7c0.6-0.7,1.1-1.9,2.2-2.4
	c1.1-0.5,1.4-0.8,2.2-0.8C380.5,19.6,380.5,20.7,380.5,20.7"/>
<path class="st0" d="M382.1,9.4c-1,0.1-3,0.2-3.2,0.2c-0.3,0-1.3,0.4-0.8-1.2c0.5-1.6,3.4-2,4-1.9c0.6,0.2,1.5,0.4,1.6,1
	C383.8,8.2,383.6,9.3,382.1,9.4"/>
<path class="st0" d="M411,0c0,0-0.3,1.6-2.3,1.6s-4.9-0.8-5.3-1.5C403.4,0.1,408.7-0.1,411,0"/>
<path class="st0" d="M392.8,0.1c0,0-9.1-0.3-24.4,4.3c-5.8,2.4-10.2,5.4-10.6,5.9c-0.4,0.4-0.7,2.6,0.8,1.4c1.4-1.2,6.9-3.9,8.3-4.2
	c1.4-0.3,4.2-0.3,5.2-0.6c0.9-0.3,4.5-1.9,6.2-2.2c1.7-0.3,2.7-0.1,3.9-0.4c1.2-0.3,5.1-1.9,6.8-2.5C390.6,1.1,392.8,0.1,392.8,0.1"
	/>
<path class="st0" d="M353.1,10.1c0,0-2,2.2-4,3.1c-2,0.8-3.4,0.9-4.3,2.1c-0.9,1.2-1.5,3.1-3,3.8c-1.4,0.7-1.6,0.7-2.6,1.5
	c-1,0.8-1.2,1.7-2.4,1.9c-1.2,0.2-2.1,0.4-2.9,0.4c-0.8,0-1.7,0.1-1.7,0.1s-2.2,1.8-0.8,1.6c1.4-0.2,2.6-1.4,3.6-1.2
	c1,0.3,1.4,1.7,0.1,2.4c-1.4,0.7-2,1.8-2.7,1.9c-0.7,0.2-1,0.7-1.6-0.2c-0.6-0.8-0.3-1.7-0.9-1.4c-0.6,0.3-3.2,3.6-4.2,4.2
	c-0.9,0.7-6.3,2.2-7.3,3.1C318.5,33.4,332.3,18.9,353.1,10.1"/>
<path class="st0" d="M287.4,85.7c0,0,2.4,3.3,2.7,5.8c0.3,2.5-0.6,6.7,0.6,8.2s2.7,3.1,3,4.2c0.3,1.1,0.4,3.8,0.4,4.2
	c0,0.4,1,1.7,0,3c-1,1.3-2.5,2-3.5,2.4c-1,0.4-2.7,1.1-1.3,1.3c1.4,0.1,3.4,1,4.8,0.8c1.4-0.1,3-0.1,4,1.1c1,1.3,3,3.1,4,3.1
	c1,0,3.1,0.6,3.5,1.7c0.4,1.1,2.1,2.8,2.7,3.1c0.6,0.3,1.4,1.1,1.6,2.5c0.1,1.4,0.8,2.5,0.8,3.7c0,1.1-0.1,2.5-1,3.7
	c-0.8,1.1-2.3,4.8-2.5,6.8c-0.3,2-0.4,5.4,0.3,5.9c0.7,0.6,1,2.5,0.7,3.3c-0.3,0.7-0.4,2,0,2.8c0.4,0.8,1.4,2.8,0.8,3.8
	c-0.6,1-0.4,2.5-2.3,3.4c-1.8,0.9-2.5,3.1-2.5,4.1c0,1,1.8,2.4,2.1,3.5c0.3,1.1,0.6,3.4,0.6,5.5c0,2.1,0.1,3.7,0.7,4.4
	c0.6,0.7,2.1,2.3,1.6,3c-0.6,0.7-1.4,0.7-1.1,1.3c0.3,0.6,1.1,1.4,1.6,1.8c0.4,0.4,0.6,3.1,0.6,3.1s1.7,1.6,1.7,3
	c0,1.4,2.3,1.6,2.3,2.4c0,0.9,0.4,2.8,0.4,2.8S270.7,154.7,287.4,85.7"/>
<path class="st0" d="M372.3,230.8c-0.4-0.1,4.5-0.4,6.4-0.4c1.9,0,3.8-0.1,3.8-0.1s0-0.8,0.4-1c0.4-0.1,2.3-0.7,3.1-0.1
	c0.8,0.6,0.8,1.3,3.1,1.5c2.3,0.1,4.6-0.1,5.9-0.6c1.3-0.5,4.5-0.6,6.2,0c1.7,0.6,4,0.2,5.4-0.2s7,0,7.1,0.4s2.4,0.1,2.9-0.4
	s0.2,0.1,1.7,0.1c1.5,0,3.8-0.8,5.2-1.5c1.5-0.6,3.6-1.2,4.1-0.7c0.5,0.5,4.1,1.3,4.4,2.1C432,229.8,408.8,238.5,372.3,230.8"/>
<path class="st0" d="M473.6,164.2c0,0,0.7-0.4,0.7-1c0-0.6-1.3-0.6-1.5-0.1C472.7,163.6,473.6,164.2,473.6,164.2"/>
<path class="st0" d="M466,153.6c0.1-0.8,0.7-2.2,1.1-2.2s2.3,0,2-1.2c-0.3-1.2,0.1-1.9-0.3-3.1c-0.4-1.2,0.1-3.2-1.3-3.2
	s-1.5,0.6-1.9,1.3c-0.4,0.8-1.1,1.7-1.7,2.3c-0.6,0.7,0.1,2.3-1.7,3.6c-1.8,1.2-1.2,2.3-2.8,1.8c-1.6-0.6-2-0.8-2.8,0.7
	c-0.8,1.5-1.1,3-0.9,3.9c0.2,0.9,0.3,1.3-0.4,2.7c-0.8,1.3-2.3,4.4-2.6,6.3c-0.2,1.9-1,3.9-0.1,4.5c0.9,0.6,2-0.1,2.9-0.6
	c0.9-0.4,1.6,0.4,2.6-0.9c1-1.3,2-2.8,2.9-4.9C461.8,162.3,465.2,157.8,466,153.6"/>
<path class="st0" d="M508.5,106.6c0,0-0.2,2.6-0.2,3.8c0,1.2-0.2,2.4,0.5,2.6c0.7,0.2,1.6,0.1,1.6-0.7c0-0.8-0.4-1.8-0.5-2.6
	c-0.1-0.8-0.7-2-0.7-2.6C509.1,106.5,508.7,105.8,508.5,106.6"/>
<path class="st0" d="M477.9,99.2c-0.3,0.1-0.7,0.6-1.5,0.1c-0.8-0.5-1.3-0.9-1-1.1c0.3-0.3,0.9-0.6,1.7-0.4c0.8,0.2,1.3,0.3,1.3,0.6
	S477.9,99.2,477.9,99.2"/>
<path class="st0" d="M434.7,53.1c0.3,0.3-0.2,1.3-1.2,1.3s-1.4-0.8-1.1-1.2C432.8,52.8,434.2,52.5,434.7,53.1"/>
<path class="st0" d="M421.3,49.2c0,0-0.7-1.3-1.3-0.8c-0.6,0.5-1.4,1.2-0.6,1.6C420.2,50.5,421.4,51,421.3,49.2"/>
<path class="st0" d="M422.1,53c0,0-0.9-1.2-1.7-1c-0.8,0.2-1.7,0.5-0.9,1.1C420.3,53.6,422,54.2,422.1,53"/>
<path class="st0" d="M403.7,47.8l-0.2,2.6c0,0-0.9,0.5-1.7,0c-0.8-0.5-1.2-0.9-1.7-1.3c-0.5-0.3-0.4-0.7-0.3-0.9
	c0.1-0.3,0.3-0.5,1.3-0.5C402,47.7,403.1,47.6,403.7,47.8"/>
<path class="st0" d="M395.3,40.6c0,0-1,0.6-0.9,1.4c0.1,0.8,0.9,0.7,0.7,1.5c-0.3,0.9-0.9,2.3-1.4,2.5c-0.4,0.2-1.4-0.3-1.4-1.2
	c0-0.9,0.4-1.7,0.8-2.2s0.6-0.3,0.7-1.6c0.1-1.3-0.2-1.8,0.5-1.8C394.9,39.1,395.7,39.6,395.3,40.6"/>
<path class="st0" d="M385.8,44.5c0,0-0.6,0.9-1.3,0.8c-0.7-0.1-0.9-1.3-0.1-1.5C385.3,43.5,386,43.7,385.8,44.5"/>
<path class="st0" d="M353.3,59c0,0-1.1,0.1-1.2,0.5c-0.1,0.4,0.2,1.2,0.6,1.1c0.4-0.2,1.2-0.5,1.2-0.8C354,59.4,353.3,59,353.3,59"
	/>
<path class="st0" d="M349.2,62.2c0,0-0.9,0-1.1,0.6c-0.1,0.6,0.4,1.1,0.7,0.8c0.4-0.4,1.2-0.5,1-0.7
	C349.6,62.6,349.2,62.2,349.2,62.2"/>
</svg>
